<svg xmlns="http://www.w3.org/2000/svg" xmlns:xlink="http://www.w3.org/1999/xlink" width="800" zoomAndPan="magnify" viewBox="0 0 600 225" height="300" preserveAspectRatio="xMidYMid meet" version="1.0"><defs><g/><clipPath id="987667e23b"><path d="M 33 108 L 75 108 L 75 145 L 33 145 Z M 33 108 " clip-rule="nonzero"/></clipPath><clipPath id="043cd2a3b7"><path d="M 41.285156 107.449219 L 75.136719 119.707031 L 65.945312 145.09375 L 32.09375 132.835938 Z M 41.285156 107.449219 " clip-rule="nonzero"/></clipPath><clipPath id="4e4e624b3e"><path d="M 41.285156 107.449219 L 75.136719 119.707031 L 65.945312 145.09375 L 32.09375 132.835938 Z M 41.285156 107.449219 " clip-rule="nonzero"/></clipPath><clipPath id="caebb90efa"><path d="M 32 107 L 75 107 L 75 145 L 32 145 Z M 32 107 " clip-rule="nonzero"/></clipPath><clipPath id="c6222e32f8"><path d="M 41.285156 107.449219 L 75.136719 119.707031 L 65.945312 145.09375 L 32.09375 132.835938 Z M 41.285156 107.449219 " clip-rule="nonzero"/></clipPath><clipPath id="b2b17e9789"><path d="M 41.285156 107.449219 L 75.136719 119.707031 L 65.945312 145.09375 L 32.09375 132.835938 Z M 41.285156 107.449219 " clip-rule="nonzero"/></clipPath><clipPath id="e285b5380a"><path d="M 14 58 L 110 58 L 110 157 L 14 157 Z M 14 58 " clip-rule="nonzero"/></clipPath><clipPath id="76c71e153c"><path d="M 31.871094 46.855469 L 121.433594 79.28125 L 89.519531 167.429688 L -0.0429688 135.003906 Z M 31.871094 46.855469 " clip-rule="nonzero"/></clipPath><clipPath id="3b43c047a7"><path d="M 31.871094 46.855469 L 121.433594 79.28125 L 89.519531 167.429688 L -0.0429688 135.003906 Z M 31.871094 46.855469 " clip-rule="nonzero"/></clipPath></defs><rect x="-60" width="720" fill="#ffffff" y="-22.5" height="270" fill-opacity="1"/><rect x="-60" width="720" fill="#ffffff" y="-22.5" height="270" fill-opacity="1"/><g clip-path="url(#987667e23b)"><g clip-path="url(#043cd2a3b7)"><g clip-path="url(#4e4e624b3e)"><path fill="#c1121f" d="M 41.820312 108.621094 L 74.160156 120.328125 L 65.523438 144.183594 L 33.183594 132.476562 Z M 41.820312 108.621094 " fill-opacity="1" fill-rule="nonzero"/></g></g></g><g clip-path="url(#caebb90efa)"><g clip-path="url(#c6222e32f8)"><g clip-path="url(#b2b17e9789)"><path fill="#c1121f" d="M 65.253906 144.925781 L 32.917969 133.21875 C 32.386719 133.027344 32.183594 132.59375 32.335938 132.167969 L 40.972656 108.3125 C 41.164062 107.785156 41.597656 107.582031 42.128906 107.773438 L 74.464844 119.480469 C 74.890625 119.632812 75.09375 120.066406 74.902344 120.597656 L 66.265625 144.453125 C 66.109375 144.875 65.675781 145.078125 65.253906 144.925781 Z M 34.234375 131.894531 L 64.980469 143.027344 L 73.042969 120.761719 L 42.296875 109.632812 Z M 34.234375 131.894531 " fill-opacity="1" fill-rule="nonzero"/></g></g></g><g clip-path="url(#e285b5380a)"><g clip-path="url(#76c71e153c)"><g clip-path="url(#3b43c047a7)"><path fill="#7371fc" d="M 78.761719 126.285156 C 77.15625 123.023438 75.152344 120.867188 74.550781 117.113281 C 73.671875 111.613281 74.535156 107.070312 69.9375 102.789062 C 68.195312 101.164062 63.171875 98.34375 60.894531 97.773438 C 56.492188 96.675781 51.347656 98.359375 47.484375 100.410156 C 43.542969 102.496094 40.367188 105.554688 36.152344 107.09375 C 31.019531 108.972656 27.359375 109.671875 22.796875 113.1875 C 11.5 121.890625 12.199219 137.296875 25.121094 143.859375 C 32.992188 147.851562 39.4375 143.113281 47.464844 146.5625 C 51.269531 148.199219 54.269531 151.320312 58.074219 152.921875 C 59.535156 153.539062 61.144531 153.980469 62.632812 154.5625 C 64.835938 155.425781 65.65625 156.199219 68.234375 156.117188 C 76.0625 155.878906 80.828125 149.21875 81.894531 141.949219 C 82.496094 137.84375 80.605469 130.011719 78.765625 126.285156 Z M 68.269531 126.695312 C 65.851562 132.078125 55.304688 137.121094 49.613281 137.207031 C 48.210938 137.230469 47.839844 136.96875 46.9375 135.941406 C 44.75 133.445312 41.347656 125.992188 41.003906 122.695312 C 40.613281 118.980469 41.550781 111.320312 46.148438 110.734375 C 52.253906 109.953125 55.019531 116.027344 54.324219 121.203125 L 56.050781 119.484375 C 62.175781 114.367188 72.542969 117.171875 68.269531 126.695312 Z M 43.191406 87.316406 C 39.824219 79.277344 42.628906 69.589844 48.941406 63.804688 C 52.203125 60.816406 58.863281 57.0625 63.398438 58.289062 C 69.097656 59.828125 69.082031 69.378906 68.140625 73.972656 C 66.472656 82.125 63.074219 93.328125 52.949219 93.199219 C 49.320312 93.15625 44.648438 90.796875 43.191406 87.316406 Z M 67.742188 90.460938 C 68.199219 84.804688 72.75 75.625 76.679688 71.507812 C 78.707031 69.382812 82.871094 66.289062 85.972656 66.957031 C 90.746094 67.992188 93.328125 74.851562 94.117188 79.121094 C 95.1875 84.925781 93.945312 90.769531 90.6875 95.707031 C 88.441406 99.113281 83.542969 103.285156 79.273438 103.195312 C 72.304688 103.046875 67.183594 97.386719 67.742188 90.460938 Z M 23.585938 104.050781 C 12.261719 99.058594 17.378906 81.503906 23.878906 74.59375 C 26.21875 72.105469 29.390625 69.433594 33.089844 70.265625 C 36.003906 70.925781 36.734375 72.734375 37.949219 75.128906 C 39.699219 78.574219 40.640625 81.191406 40.859375 85.09375 C 41.191406 91.121094 40.679688 95.757812 36.328125 100.378906 C 33.390625 103.496094 27.75 105.882812 23.589844 104.050781 Z M 99.890625 124.402344 C 97.671875 125.636719 95.734375 126.46875 93.109375 126.050781 C 86.0625 124.921875 81.878906 119.703125 83.925781 112.535156 C 85.148438 108.261719 89.675781 101.535156 93.074219 98.640625 C 95.097656 96.921875 99.113281 94.570312 101.851562 95.164062 C 107.160156 96.3125 109.753906 104.019531 109.542969 108.828125 C 109.242188 115.527344 105.691406 121.183594 99.890625 124.40625 Z M 99.890625 124.402344 " fill-opacity="1" fill-rule="nonzero"/></g></g></g><g fill="#27187e" fill-opacity="1"><g transform="translate(125.76231, 133.500004)"><g><path d="M 29.78125 -36.109375 C 30.238281 -37.328125 30.941406 -38.207031 31.890625 -38.75 C 32.835938 -39.300781 33.84375 -39.566406 34.90625 -39.546875 C 35.976562 -39.523438 36.957031 -39.265625 37.84375 -38.765625 C 38.726562 -38.265625 39.363281 -37.546875 39.75 -36.609375 C 40.132812 -35.679688 40.097656 -34.609375 39.640625 -33.390625 C 35.421875 -22.191406 30.707031 -11.3125 25.5 -0.75 C 24.90625 0.425781 24.03125 1.171875 22.875 1.484375 C 21.71875 1.804688 20.5625 1.765625 19.40625 1.359375 C 18.257812 0.953125 17.367188 0.25 16.734375 -0.75 C 14.460938 -4.238281 12.585938 -7.976562 11.109375 -11.96875 C 9.640625 -15.957031 8.335938 -20.015625 7.203125 -24.140625 C 6.078125 -28.265625 4.898438 -32.273438 3.671875 -36.171875 C 3.265625 -37.441406 3.273438 -38.539062 3.703125 -39.46875 C 4.140625 -40.40625 4.8125 -41.132812 5.71875 -41.65625 C 6.625 -42.175781 7.597656 -42.445312 8.640625 -42.46875 C 9.679688 -42.488281 10.65625 -42.210938 11.5625 -41.640625 C 12.46875 -41.078125 13.101562 -40.160156 13.46875 -38.890625 C 14.6875 -35.035156 15.847656 -31.046875 16.953125 -26.921875 C 18.066406 -22.796875 19.394531 -18.804688 20.9375 -14.953125 C 22.53125 -18.453125 24.0625 -21.957031 25.53125 -25.46875 C 27.007812 -28.976562 28.425781 -32.523438 29.78125 -36.109375 Z M 29.78125 -36.109375 "/></g></g></g><g fill="#27187e" fill-opacity="1"><g transform="translate(169.141345, 133.500004)"><g><path d="M 28.359375 -14.34375 C 29.671875 -14.300781 30.722656 -13.914062 31.515625 -13.1875 C 32.304688 -12.46875 32.828125 -11.597656 33.078125 -10.578125 C 33.328125 -9.554688 33.328125 -8.546875 33.078125 -7.546875 C 32.828125 -6.546875 32.304688 -5.71875 31.515625 -5.0625 C 30.722656 -4.40625 29.671875 -4.097656 28.359375 -4.140625 C 25.273438 -4.285156 22.191406 -4.273438 19.109375 -4.109375 C 16.023438 -3.953125 12.941406 -3.625 9.859375 -3.125 C 8.910156 -2.988281 7.910156 -3.085938 6.859375 -3.421875 C 5.816406 -3.765625 4.945312 -4.320312 4.25 -5.09375 C 3.550781 -5.863281 3.289062 -6.863281 3.46875 -8.09375 C 4.238281 -14.34375 5.085938 -20.597656 6.015625 -26.859375 C 6.941406 -33.117188 7.953125 -39.375 9.046875 -45.625 C 9.179688 -46.394531 9.453125 -47.050781 9.859375 -47.59375 C 10.222656 -48.226562 10.742188 -48.757812 11.421875 -49.1875 C 12.097656 -49.625 12.9375 -49.863281 13.9375 -49.90625 C 18.832031 -50.039062 23.726562 -49.953125 28.625 -49.640625 C 29.9375 -49.546875 30.988281 -49.125 31.78125 -48.375 C 32.582031 -47.632812 33.109375 -46.753906 33.359375 -45.734375 C 33.609375 -44.710938 33.609375 -43.703125 33.359375 -42.703125 C 33.109375 -41.703125 32.582031 -40.882812 31.78125 -40.25 C 30.988281 -39.613281 29.9375 -39.34375 28.625 -39.4375 C 25.269531 -39.664062 21.847656 -39.78125 18.359375 -39.78125 C 18.128906 -38.46875 17.898438 -37.148438 17.671875 -35.828125 C 17.453125 -34.515625 17.25 -33.203125 17.0625 -31.890625 C 18.925781 -31.847656 20.71875 -31.734375 22.4375 -31.546875 C 23.800781 -31.410156 24.992188 -30.898438 26.015625 -30.015625 C 27.035156 -29.140625 27.546875 -27.953125 27.546875 -26.453125 C 27.546875 -25.585938 27.304688 -24.75 26.828125 -23.9375 C 26.347656 -23.125 25.722656 -22.46875 24.953125 -21.96875 C 24.179688 -21.46875 23.34375 -21.265625 22.4375 -21.359375 C 20.125 -21.578125 17.8125 -21.6875 15.5 -21.6875 C 15.320312 -20.414062 15.140625 -19.125 14.953125 -17.8125 C 14.773438 -16.5 14.597656 -15.207031 14.421875 -13.9375 C 16.734375 -14.164062 19.039062 -14.3125 21.34375 -14.375 C 23.65625 -14.445312 25.992188 -14.4375 28.359375 -14.34375 Z M 28.359375 -14.34375 "/></g></g></g><g fill="#7371fc" fill-opacity="1"><g transform="translate(206.070901, 133.500004)"><g><path d="M 27.46875 -46.375 C 29.644531 -45.507812 31.628906 -44.351562 33.421875 -42.90625 C 35.210938 -41.457031 36.660156 -39.800781 37.765625 -37.9375 C 38.878906 -36.082031 39.515625 -34.066406 39.671875 -31.890625 C 39.835938 -29.710938 39.375 -27.445312 38.28125 -25.09375 C 36.875 -22.1875 34.925781 -19.894531 32.4375 -18.21875 C 29.945312 -16.539062 27.191406 -15.453125 24.171875 -14.953125 C 21.160156 -14.460938 18.179688 -14.578125 15.234375 -15.296875 C 14.960938 -12.710938 14.691406 -10.128906 14.421875 -7.546875 C 14.148438 -4.960938 13.875 -2.378906 13.59375 0.203125 C 13.457031 1.515625 13.015625 2.554688 12.265625 3.328125 C 11.523438 4.097656 10.632812 4.617188 9.59375 4.890625 C 8.550781 5.160156 7.53125 5.160156 6.53125 4.890625 C 5.53125 4.617188 4.734375 4.097656 4.140625 3.328125 C 3.554688 2.554688 3.3125 1.515625 3.40625 0.203125 C 4.039062 -5.867188 4.648438 -11.960938 5.234375 -18.078125 C 5.828125 -24.203125 6.460938 -30.300781 7.140625 -36.375 C 7.453125 -38.78125 8.109375 -40.945312 9.109375 -42.875 C 10.109375 -44.800781 11.8125 -46.21875 14.21875 -47.125 C 16.34375 -47.9375 18.570312 -48.21875 20.90625 -47.96875 C 23.238281 -47.71875 25.425781 -47.1875 27.46875 -46.375 Z M 16.25 -25.5625 C 17.382812 -25.25 18.675781 -25.054688 20.125 -24.984375 C 21.570312 -24.921875 23 -25.066406 24.40625 -25.421875 C 25.8125 -25.785156 26.988281 -26.410156 27.9375 -27.296875 C 28.894531 -28.179688 29.441406 -29.421875 29.578125 -31.015625 C 29.671875 -32.003906 29.332031 -32.953125 28.5625 -33.859375 C 27.789062 -34.765625 26.789062 -35.566406 25.5625 -36.265625 C 24.34375 -36.972656 23.117188 -37.472656 21.890625 -37.765625 C 20.671875 -38.066406 19.628906 -38.082031 18.765625 -37.8125 C 18.265625 -37.675781 17.957031 -37.582031 17.84375 -37.53125 C 17.738281 -37.488281 17.6875 -37.382812 17.6875 -37.21875 C 17.6875 -37.0625 17.570312 -36.78125 17.34375 -36.375 C 17.070312 -35.738281 16.9375 -34.921875 16.9375 -33.921875 C 16.9375 -32.929688 16.910156 -32.070312 16.859375 -31.34375 C 16.773438 -30.394531 16.675781 -29.429688 16.5625 -28.453125 C 16.445312 -27.484375 16.34375 -26.519531 16.25 -25.5625 Z M 16.25 -25.5625 "/></g></g></g><g fill="#7371fc" fill-opacity="1"><g transform="translate(249.177966, 133.500004)"><g><path d="M 35.21875 -29.71875 C 35.351562 -25.226562 35.46875 -20.71875 35.5625 -16.1875 C 35.65625 -11.65625 35.769531 -7.117188 35.90625 -2.578125 C 35.945312 -1.265625 35.628906 -0.210938 34.953125 0.578125 C 34.273438 1.367188 33.4375 1.890625 32.4375 2.140625 C 31.4375 2.390625 30.425781 2.390625 29.40625 2.140625 C 28.382812 1.890625 27.519531 1.367188 26.8125 0.578125 C 26.113281 -0.210938 25.742188 -1.265625 25.703125 -2.578125 C 25.660156 -3.941406 25.625 -5.289062 25.59375 -6.625 C 25.570312 -7.96875 25.539062 -9.316406 25.5 -10.671875 L 15.296875 -11.078125 C 14.929688 -9.359375 14.585938 -7.648438 14.265625 -5.953125 C 13.953125 -4.253906 13.640625 -2.539062 13.328125 -0.8125 C 13.097656 0.5 12.585938 1.445312 11.796875 2.03125 C 11.003906 2.625 10.085938 2.910156 9.046875 2.890625 C 8.003906 2.867188 7.015625 2.597656 6.078125 2.078125 C 5.148438 1.554688 4.425781 0.820312 3.90625 -0.125 C 3.382812 -1.082031 3.238281 -2.21875 3.46875 -3.53125 C 4.28125 -7.976562 5.195312 -12.375 6.21875 -16.71875 C 7.238281 -21.070312 8.679688 -25.3125 10.546875 -29.4375 C 11.453125 -31.476562 12.601562 -33.675781 14 -36.03125 C 15.40625 -38.394531 17.003906 -40.5625 18.796875 -42.53125 C 20.585938 -44.5 22.570312 -45.941406 24.75 -46.859375 C 26.789062 -47.710938 28.445312 -47.867188 29.71875 -47.328125 C 30.988281 -46.785156 31.984375 -45.8125 32.703125 -44.40625 C 33.429688 -43 33.960938 -41.375 34.296875 -39.53125 C 34.640625 -37.695312 34.867188 -35.894531 34.984375 -34.125 C 35.097656 -32.363281 35.175781 -30.894531 35.21875 -29.71875 Z M 18.09375 -21.140625 C 19.3125 -21.097656 20.507812 -21.050781 21.6875 -21 C 22.863281 -20.957031 24.046875 -20.914062 25.234375 -20.875 C 25.179688 -22.375 25.144531 -23.859375 25.125 -25.328125 C 25.101562 -26.804688 25.070312 -28.269531 25.03125 -29.71875 C 24.976562 -30.300781 24.953125 -30.921875 24.953125 -31.578125 C 24.953125 -32.242188 24.953125 -32.914062 24.953125 -33.59375 C 24.179688 -32.6875 23.523438 -31.828125 22.984375 -31.015625 C 22.078125 -29.648438 21.25 -28.226562 20.5 -26.75 C 19.75 -25.28125 19.082031 -23.796875 18.5 -22.296875 C 18.445312 -22.117188 18.382812 -21.925781 18.3125 -21.71875 C 18.25 -21.519531 18.175781 -21.328125 18.09375 -21.140625 Z M 18.09375 -21.140625 "/></g></g></g><g fill="#7371fc" fill-opacity="1"><g transform="translate(288.477468, 133.500004)"><g><path d="M 50.25 -37.265625 C 51.0625 -30.367188 50.789062 -23.5 49.4375 -16.65625 C 49.03125 -14.800781 48.550781 -12.898438 48 -10.953125 C 47.457031 -9.003906 46.734375 -7.117188 45.828125 -5.296875 C 44.921875 -3.484375 43.765625 -1.898438 42.359375 -0.546875 C 40.953125 0.816406 39.351562 1.816406 37.5625 2.453125 C 35.78125 3.085938 33.957031 3.300781 32.09375 3.09375 C 30.238281 2.882812 28.492188 2.21875 26.859375 1.09375 C 25.953125 0.457031 25.160156 -0.289062 24.484375 -1.15625 C 22.941406 0.0195312 21.25 0.8125 19.40625 1.21875 C 17.570312 1.632812 15.738281 1.523438 13.90625 0.890625 C 12.070312 0.253906 10.359375 -1.015625 8.765625 -2.921875 C 7.503906 -4.503906 6.53125 -6.28125 5.84375 -8.25 C 5.164062 -10.226562 4.675781 -12.257812 4.375 -14.34375 C 4.082031 -16.425781 3.847656 -18.445312 3.671875 -20.40625 C 3.359375 -23.800781 3.3125 -27.195312 3.53125 -30.59375 C 3.757812 -34 4.191406 -37.378906 4.828125 -40.734375 C 5.054688 -42.046875 5.566406 -42.992188 6.359375 -43.578125 C 7.148438 -44.171875 8.066406 -44.457031 9.109375 -44.4375 C 10.148438 -44.414062 11.125 -44.144531 12.03125 -43.625 C 12.9375 -43.101562 13.648438 -42.363281 14.171875 -41.40625 C 14.691406 -40.457031 14.84375 -39.328125 14.625 -38.015625 C 13.988281 -34.566406 13.632812 -31.070312 13.5625 -27.53125 C 13.5 -24 13.757812 -20.488281 14.34375 -17 C 14.4375 -16.40625 14.570312 -15.507812 14.75 -14.3125 C 14.9375 -13.113281 15.222656 -11.96875 15.609375 -10.875 C 15.992188 -9.789062 16.546875 -9.132812 17.265625 -8.90625 C 17.953125 -8.675781 18.507812 -8.753906 18.9375 -9.140625 C 19.363281 -9.523438 19.691406 -10.054688 19.921875 -10.734375 C 20.148438 -11.421875 20.304688 -12.113281 20.390625 -12.8125 C 20.484375 -13.519531 20.507812 -14.078125 20.46875 -14.484375 C 20.375 -15.847656 20.65625 -16.914062 21.3125 -17.6875 C 21.96875 -18.457031 22.785156 -18.960938 23.765625 -19.203125 C 24.742188 -19.453125 25.738281 -19.453125 26.75 -19.203125 C 27.769531 -18.960938 28.65625 -18.441406 29.40625 -17.640625 C 30.15625 -16.847656 30.578125 -15.796875 30.671875 -14.484375 C 30.671875 -13.984375 30.703125 -13.289062 30.765625 -12.40625 C 30.835938 -11.519531 30.972656 -10.632812 31.171875 -9.75 C 31.378906 -8.875 31.71875 -8.160156 32.1875 -7.609375 C 32.664062 -7.066406 33.316406 -6.910156 34.140625 -7.140625 C 35.046875 -7.367188 35.78125 -7.96875 36.34375 -8.9375 C 36.914062 -9.914062 37.359375 -10.96875 37.671875 -12.09375 C 37.984375 -13.226562 38.253906 -14.160156 38.484375 -14.890625 C 39.523438 -18.566406 40.160156 -22.273438 40.390625 -26.015625 C 40.617188 -29.753906 40.503906 -33.503906 40.046875 -37.265625 C 39.910156 -38.578125 40.132812 -39.617188 40.71875 -40.390625 C 41.3125 -41.160156 42.097656 -41.671875 43.078125 -41.921875 C 44.054688 -42.171875 45.066406 -42.160156 46.109375 -41.890625 C 47.148438 -41.617188 48.066406 -41.097656 48.859375 -40.328125 C 49.648438 -39.554688 50.113281 -38.535156 50.25 -37.265625 Z M 50.25 -37.265625 "/></g></g></g><g fill="#27187e" fill-opacity="1"><g transform="translate(342.606055, 133.500004)"><g><path d="M 38.6875 -6.390625 C 39.457031 -5.304688 39.773438 -4.273438 39.640625 -3.296875 C 39.503906 -2.328125 39.070312 -1.476562 38.34375 -0.75 C 37.625 -0.0195312 36.753906 0.488281 35.734375 0.78125 C 34.710938 1.070312 33.671875 1.070312 32.609375 0.78125 C 31.546875 0.488281 30.628906 -0.175781 29.859375 -1.21875 C 27.816406 -4.03125 25.535156 -6.613281 23.015625 -8.96875 C 20.503906 -11.332031 17.796875 -13.46875 14.890625 -15.375 C 14.660156 -12.695312 14.441406 -10.007812 14.234375 -7.3125 C 14.035156 -4.613281 13.820312 -1.925781 13.59375 0.75 C 13.507812 2.0625 13.09375 3.101562 12.34375 3.875 C 11.59375 4.644531 10.695312 5.164062 9.65625 5.4375 C 8.613281 5.707031 7.601562 5.71875 6.625 5.46875 C 5.65625 5.21875 4.851562 4.695312 4.21875 3.90625 C 3.582031 3.113281 3.3125 2.0625 3.40625 0.75 C 3.8125 -4.1875 4.125 -9.21875 4.34375 -14.34375 C 4.570312 -19.46875 5.1875 -24.476562 6.1875 -29.375 C 6.6875 -31.914062 7.613281 -34.363281 8.96875 -36.71875 C 10.332031 -39.070312 12.066406 -41.019531 14.171875 -42.5625 C 16.285156 -44.101562 18.75 -44.941406 21.5625 -45.078125 C 23.507812 -45.171875 25.351562 -44.804688 27.09375 -43.984375 C 28.84375 -43.171875 30.328125 -42.039062 31.546875 -40.59375 C 32.773438 -39.144531 33.601562 -37.515625 34.03125 -35.703125 C 34.46875 -33.890625 34.367188 -32.007812 33.734375 -30.0625 C 33.097656 -28.101562 32.0625 -26.265625 30.625 -24.546875 C 29.195312 -22.828125 27.554688 -21.332031 25.703125 -20.0625 C 30.554688 -16.113281 34.882812 -11.554688 38.6875 -6.390625 Z M 20.46875 -29.03125 C 20.738281 -29.300781 21.191406 -29.71875 21.828125 -30.28125 C 22.460938 -30.851562 23.03125 -31.457031 23.53125 -32.09375 C 24.03125 -32.726562 24.234375 -33.226562 24.140625 -33.59375 C 23.960938 -34.539062 23.609375 -35.0625 23.078125 -35.15625 C 22.554688 -35.25 21.96875 -35.101562 21.3125 -34.71875 C 20.65625 -34.332031 20.007812 -33.804688 19.375 -33.140625 C 18.738281 -32.484375 18.191406 -31.859375 17.734375 -31.265625 C 17.285156 -30.679688 16.992188 -30.253906 16.859375 -29.984375 C 16.492188 -28.941406 16.175781 -27.8125 15.90625 -26.59375 C 16.8125 -26.726562 17.628906 -27.007812 18.359375 -27.4375 C 19.085938 -27.863281 19.789062 -28.394531 20.46875 -29.03125 Z M 20.46875 -29.03125 "/></g></g></g><g fill="#27187e" fill-opacity="1"><g transform="translate(385.64512, 133.500004)"><g><path d="M 6.453125 -41.890625 C 6.585938 -43.160156 7.039062 -44.179688 7.8125 -44.953125 C 8.582031 -45.722656 9.488281 -46.242188 10.53125 -46.515625 C 11.582031 -46.785156 12.601562 -46.796875 13.59375 -46.546875 C 14.59375 -46.296875 15.382812 -45.773438 15.96875 -44.984375 C 16.5625 -44.191406 16.789062 -43.160156 16.65625 -41.890625 C 15.34375 -29.597656 14.320312 -17.289062 13.59375 -4.96875 C 13.507812 -3.644531 13.101562 -2.585938 12.375 -1.796875 C 11.644531 -1.003906 10.769531 -0.484375 9.75 -0.234375 C 8.738281 0.015625 7.734375 0.015625 6.734375 -0.234375 C 5.734375 -0.484375 4.90625 -1.003906 4.25 -1.796875 C 3.59375 -2.585938 3.3125 -3.644531 3.40625 -4.96875 C 4.125 -17.289062 5.140625 -29.597656 6.453125 -41.890625 Z M 6.453125 -41.890625 "/></g></g></g><g fill="#27187e" fill-opacity="1"><g transform="translate(405.770813, 133.500004)"><g><path d="M 29.921875 -41.203125 C 30.097656 -42.472656 30.570312 -43.398438 31.34375 -43.984375 C 32.113281 -44.578125 33.007812 -44.875 34.03125 -44.875 C 35.050781 -44.875 36.035156 -44.601562 36.984375 -44.0625 C 37.941406 -43.519531 38.691406 -42.769531 39.234375 -41.8125 C 39.773438 -40.863281 39.957031 -39.753906 39.78125 -38.484375 C 37.914062 -25.972656 35.601562 -13.550781 32.84375 -1.21875 C 32.613281 -0.226562 32.101562 0.582031 31.3125 1.21875 C 30.519531 1.851562 29.601562 2.25 28.5625 2.40625 C 27.519531 2.570312 26.53125 2.460938 25.59375 2.078125 C 24.664062 1.691406 23.976562 1 23.53125 0 C 22.488281 -2.488281 21.421875 -4.96875 20.328125 -7.4375 C 19.242188 -9.914062 18.15625 -12.378906 17.0625 -14.828125 C 16.382812 -11.878906 15.726562 -8.921875 15.09375 -5.953125 C 14.457031 -2.984375 13.867188 -0.0234375 13.328125 2.921875 C 13.097656 4.234375 12.578125 5.179688 11.765625 5.765625 C 10.953125 6.359375 10.035156 6.644531 9.015625 6.625 C 7.992188 6.601562 7.015625 6.332031 6.078125 5.8125 C 5.148438 5.289062 4.425781 4.550781 3.90625 3.59375 C 3.382812 2.644531 3.257812 1.515625 3.53125 0.203125 C 5.53125 -10.585938 7.976562 -21.285156 10.875 -31.890625 C 11.144531 -32.835938 11.6875 -33.628906 12.5 -34.265625 C 13.320312 -34.898438 14.242188 -35.304688 15.265625 -35.484375 C 16.285156 -35.671875 17.25 -35.582031 18.15625 -35.21875 C 19.0625 -34.863281 19.742188 -34.160156 20.203125 -33.109375 L 26.1875 -19.3125 C 26.90625 -22.9375 27.570312 -26.570312 28.1875 -30.21875 C 28.800781 -33.875 29.378906 -37.535156 29.921875 -41.203125 Z M 29.921875 -41.203125 "/></g></g></g><g fill="#27187e" fill-opacity="1"><g transform="translate(449.013857, 133.500004)"><g><path d="M 35.21875 -29.71875 C 35.351562 -25.226562 35.46875 -20.71875 35.5625 -16.1875 C 35.65625 -11.65625 35.769531 -7.117188 35.90625 -2.578125 C 35.945312 -1.265625 35.628906 -0.210938 34.953125 0.578125 C 34.273438 1.367188 33.4375 1.890625 32.4375 2.140625 C 31.4375 2.390625 30.425781 2.390625 29.40625 2.140625 C 28.382812 1.890625 27.519531 1.367188 26.8125 0.578125 C 26.113281 -0.210938 25.742188 -1.265625 25.703125 -2.578125 C 25.660156 -3.941406 25.625 -5.289062 25.59375 -6.625 C 25.570312 -7.96875 25.539062 -9.316406 25.5 -10.671875 L 15.296875 -11.078125 C 14.929688 -9.359375 14.585938 -7.648438 14.265625 -5.953125 C 13.953125 -4.253906 13.640625 -2.539062 13.328125 -0.8125 C 13.097656 0.5 12.585938 1.445312 11.796875 2.03125 C 11.003906 2.625 10.085938 2.910156 9.046875 2.890625 C 8.003906 2.867188 7.015625 2.597656 6.078125 2.078125 C 5.148438 1.554688 4.425781 0.820312 3.90625 -0.125 C 3.382812 -1.082031 3.238281 -2.21875 3.46875 -3.53125 C 4.28125 -7.976562 5.195312 -12.375 6.21875 -16.71875 C 7.238281 -21.070312 8.679688 -25.3125 10.546875 -29.4375 C 11.453125 -31.476562 12.601562 -33.675781 14 -36.03125 C 15.40625 -38.394531 17.003906 -40.5625 18.796875 -42.53125 C 20.585938 -44.5 22.570312 -45.941406 24.75 -46.859375 C 26.789062 -47.710938 28.445312 -47.867188 29.71875 -47.328125 C 30.988281 -46.785156 31.984375 -45.8125 32.703125 -44.40625 C 33.429688 -43 33.960938 -41.375 34.296875 -39.53125 C 34.640625 -37.695312 34.867188 -35.894531 34.984375 -34.125 C 35.097656 -32.363281 35.175781 -30.894531 35.21875 -29.71875 Z M 18.09375 -21.140625 C 19.3125 -21.097656 20.507812 -21.050781 21.6875 -21 C 22.863281 -20.957031 24.046875 -20.914062 25.234375 -20.875 C 25.179688 -22.375 25.144531 -23.859375 25.125 -25.328125 C 25.101562 -26.804688 25.070312 -28.269531 25.03125 -29.71875 C 24.976562 -30.300781 24.953125 -30.921875 24.953125 -31.578125 C 24.953125 -32.242188 24.953125 -32.914062 24.953125 -33.59375 C 24.179688 -32.6875 23.523438 -31.828125 22.984375 -31.015625 C 22.078125 -29.648438 21.25 -28.226562 20.5 -26.75 C 19.75 -25.28125 19.082031 -23.796875 18.5 -22.296875 C 18.445312 -22.117188 18.382812 -21.925781 18.3125 -21.71875 C 18.25 -21.519531 18.175781 -21.328125 18.09375 -21.140625 Z M 18.09375 -21.140625 "/></g></g></g><g fill="#27187e" fill-opacity="1"><g transform="translate(488.313359, 133.500004)"><g><path d="M 38.6875 -6.390625 C 39.457031 -5.304688 39.773438 -4.273438 39.640625 -3.296875 C 39.503906 -2.328125 39.070312 -1.476562 38.34375 -0.75 C 37.625 -0.0195312 36.753906 0.488281 35.734375 0.78125 C 34.710938 1.070312 33.671875 1.070312 32.609375 0.78125 C 31.546875 0.488281 30.628906 -0.175781 29.859375 -1.21875 C 27.816406 -4.03125 25.535156 -6.613281 23.015625 -8.96875 C 20.503906 -11.332031 17.796875 -13.46875 14.890625 -15.375 C 14.660156 -12.695312 14.441406 -10.007812 14.234375 -7.3125 C 14.035156 -4.613281 13.820312 -1.925781 13.59375 0.75 C 13.507812 2.0625 13.09375 3.101562 12.34375 3.875 C 11.59375 4.644531 10.695312 5.164062 9.65625 5.4375 C 8.613281 5.707031 7.601562 5.71875 6.625 5.46875 C 5.65625 5.21875 4.851562 4.695312 4.21875 3.90625 C 3.582031 3.113281 3.3125 2.0625 3.40625 0.75 C 3.8125 -4.1875 4.125 -9.21875 4.34375 -14.34375 C 4.570312 -19.46875 5.1875 -24.476562 6.1875 -29.375 C 6.6875 -31.914062 7.613281 -34.363281 8.96875 -36.71875 C 10.332031 -39.070312 12.066406 -41.019531 14.171875 -42.5625 C 16.285156 -44.101562 18.75 -44.941406 21.5625 -45.078125 C 23.507812 -45.171875 25.351562 -44.804688 27.09375 -43.984375 C 28.84375 -43.171875 30.328125 -42.039062 31.546875 -40.59375 C 32.773438 -39.144531 33.601562 -37.515625 34.03125 -35.703125 C 34.46875 -33.890625 34.367188 -32.007812 33.734375 -30.0625 C 33.097656 -28.101562 32.0625 -26.265625 30.625 -24.546875 C 29.195312 -22.828125 27.554688 -21.332031 25.703125 -20.0625 C 30.554688 -16.113281 34.882812 -11.554688 38.6875 -6.390625 Z M 20.46875 -29.03125 C 20.738281 -29.300781 21.191406 -29.71875 21.828125 -30.28125 C 22.460938 -30.851562 23.03125 -31.457031 23.53125 -32.09375 C 24.03125 -32.726562 24.234375 -33.226562 24.140625 -33.59375 C 23.960938 -34.539062 23.609375 -35.0625 23.078125 -35.15625 C 22.554688 -35.25 21.96875 -35.101562 21.3125 -34.71875 C 20.65625 -34.332031 20.007812 -33.804688 19.375 -33.140625 C 18.738281 -32.484375 18.191406 -31.859375 17.734375 -31.265625 C 17.285156 -30.679688 16.992188 -30.253906 16.859375 -29.984375 C 16.492188 -28.941406 16.175781 -27.8125 15.90625 -26.59375 C 16.8125 -26.726562 17.628906 -27.007812 18.359375 -27.4375 C 19.085938 -27.863281 19.789062 -28.394531 20.46875 -29.03125 Z M 20.46875 -29.03125 "/></g></g></g><g fill="#27187e" fill-opacity="1"><g transform="translate(531.352423, 133.500004)"><g><path d="M 6.453125 -41.890625 C 6.585938 -43.160156 7.039062 -44.179688 7.8125 -44.953125 C 8.582031 -45.722656 9.488281 -46.242188 10.53125 -46.515625 C 11.582031 -46.785156 12.601562 -46.796875 13.59375 -46.546875 C 14.59375 -46.296875 15.382812 -45.773438 15.96875 -44.984375 C 16.5625 -44.191406 16.789062 -43.160156 16.65625 -41.890625 C 15.34375 -29.597656 14.320312 -17.289062 13.59375 -4.96875 C 13.507812 -3.644531 13.101562 -2.585938 12.375 -1.796875 C 11.644531 -1.003906 10.769531 -0.484375 9.75 -0.234375 C 8.738281 0.015625 7.734375 0.015625 6.734375 -0.234375 C 5.734375 -0.484375 4.90625 -1.003906 4.25 -1.796875 C 3.59375 -2.585938 3.3125 -3.644531 3.40625 -4.96875 C 4.125 -17.289062 5.140625 -29.597656 6.453125 -41.890625 Z M 6.453125 -41.890625 "/></g></g></g><g fill="#27187e" fill-opacity="1"><g transform="translate(551.478117, 133.500004)"><g><path d="M 37.8125 -41.546875 C 38.894531 -39.773438 39.640625 -37.789062 40.046875 -35.59375 C 40.453125 -33.394531 40.632812 -31.171875 40.59375 -28.921875 C 40.550781 -26.679688 40.367188 -24.585938 40.046875 -22.640625 C 39.597656 -19.648438 38.671875 -16.816406 37.265625 -14.140625 C 35.859375 -11.460938 33.976562 -9.148438 31.625 -7.203125 C 29.351562 -5.347656 26.722656 -3.988281 23.734375 -3.125 C 20.742188 -2.269531 17.816406 -2.296875 14.953125 -3.203125 C 13.054688 -3.785156 11.40625 -4.753906 10 -6.109375 C 8.59375 -7.472656 7.410156 -9.023438 6.453125 -10.765625 C 5.503906 -12.515625 4.804688 -14.296875 4.359375 -16.109375 C 3.804688 -18.109375 3.484375 -20.410156 3.390625 -23.015625 C 3.304688 -25.617188 3.488281 -28.28125 3.9375 -31 C 4.394531 -33.726562 5.144531 -36.269531 6.1875 -38.625 C 7.226562 -40.976562 8.632812 -42.925781 10.40625 -44.46875 C 12.21875 -46.332031 14.390625 -47.648438 16.921875 -48.421875 C 19.460938 -49.191406 22.070312 -49.453125 24.75 -49.203125 C 27.425781 -48.953125 29.921875 -48.179688 32.234375 -46.890625 C 34.546875 -45.597656 36.40625 -43.816406 37.8125 -41.546875 Z M 25.4375 -15.09375 C 26.976562 -16.539062 28.117188 -18.226562 28.859375 -20.15625 C 29.609375 -22.082031 30.070312 -24.097656 30.25 -26.203125 C 30.4375 -28.316406 30.394531 -30.375 30.125 -32.375 C 29.851562 -34.363281 29.070312 -35.992188 27.78125 -37.265625 C 26.488281 -38.535156 24.773438 -39.144531 22.640625 -39.09375 C 21.460938 -39.09375 20.316406 -38.796875 19.203125 -38.203125 C 18.097656 -37.617188 17.179688 -36.851562 16.453125 -35.90625 C 15.640625 -34.769531 15.050781 -33.40625 14.6875 -31.8125 C 14.320312 -30.226562 14.050781 -28.757812 13.875 -27.40625 C 13.46875 -24.363281 13.625 -21.367188 14.34375 -18.421875 C 14.570312 -17.566406 14.878906 -16.707031 15.265625 -15.84375 C 15.648438 -14.976562 16.207031 -14.273438 16.9375 -13.734375 C 18.113281 -12.867188 19.457031 -12.5625 20.96875 -12.8125 C 22.488281 -13.0625 23.816406 -13.664062 24.953125 -14.625 C 25.085938 -14.757812 25.25 -14.914062 25.4375 -15.09375 Z M 25.4375 -15.09375 "/></g></g></g></svg>