<svg xmlns="http://www.w3.org/2000/svg" xmlns:xlink="http://www.w3.org/1999/xlink" width="500" zoomAndPan="magnify" viewBox="0 0 375 374.999991" height="500" preserveAspectRatio="xMidYMid meet" version="1.0"><defs><clipPath id="fd663a143f"><path d="M 109.816406 149 L 213 149 L 213 287.9375 L 109.816406 287.9375 Z M 109.816406 149 " clip-rule="nonzero"/></clipPath><clipPath id="14354bd2b7"><path d="M 141 86.9375 L 182 86.9375 L 182 136 L 141 136 Z M 141 86.9375 " clip-rule="nonzero"/></clipPath><clipPath id="5555cee68b"><path d="M 244 106 L 265.066406 106 L 265.066406 283 L 244 283 Z M 244 106 " clip-rule="nonzero"/></clipPath><clipPath id="29184e4931"><path d="M 244 218 L 265.066406 218 L 265.066406 283 L 244 283 Z M 244 218 " clip-rule="nonzero"/></clipPath></defs><rect x="-37.5" width="450" fill="#ffffff" y="-37.499999" height="449.999989" fill-opacity="1"/><rect x="-37.5" width="450" fill="#ffffff" y="-37.499999" height="449.999989" fill-opacity="1"/><g clip-path="url(#fd663a143f)"><path fill="#1f2937" d="M 209.300781 288.085938 L 113.285156 288.085938 C 113.046875 288.085938 112.808594 288.0625 112.578125 288.011719 C 112.34375 287.964844 112.117188 287.890625 111.898438 287.796875 C 111.683594 287.699219 111.476562 287.582031 111.28125 287.445312 C 111.089844 287.308594 110.910156 287.152344 110.75 286.976562 C 110.585938 286.800781 110.445312 286.609375 110.324219 286.40625 C 110.203125 286.203125 110.101562 285.988281 110.023438 285.761719 C 109.945312 285.535156 109.894531 285.304688 109.863281 285.070312 C 109.832031 284.832031 109.828125 284.597656 109.847656 284.359375 L 120.417969 153.109375 C 120.453125 152.675781 120.5625 152.265625 120.753906 151.875 C 120.941406 151.484375 121.195312 151.144531 121.515625 150.847656 C 121.832031 150.554688 122.195312 150.328125 122.597656 150.171875 C 123 150.011719 123.421875 149.933594 123.855469 149.933594 L 198.730469 149.933594 C 199.164062 149.933594 199.582031 150.011719 199.988281 150.171875 C 200.390625 150.328125 200.753906 150.554688 201.070312 150.847656 C 201.390625 151.144531 201.644531 151.484375 201.835938 151.875 C 202.023438 152.265625 202.136719 152.675781 202.171875 153.109375 L 212.742188 284.359375 C 212.761719 284.597656 212.753906 284.832031 212.726562 285.070312 C 212.695312 285.304688 212.640625 285.539062 212.5625 285.761719 C 212.488281 285.988281 212.386719 286.203125 212.265625 286.40625 C 212.140625 286.613281 212 286.800781 211.839844 286.976562 C 211.675781 287.152344 211.5 287.308594 211.304688 287.445312 C 211.109375 287.585938 210.902344 287.703125 210.6875 287.796875 C 210.46875 287.894531 210.242188 287.964844 210.007812 288.015625 C 209.773438 288.0625 209.539062 288.085938 209.300781 288.085938 Z M 117.027344 281.1875 L 205.5625 281.1875 L 195.550781 156.832031 L 127.039062 156.832031 Z M 117.027344 281.1875 " fill-opacity="1" fill-rule="nonzero"/></g><path fill="#1f2937" d="M 207.105469 260.777344 L 115.484375 260.777344 C 115.246094 260.78125 115.011719 260.757812 114.777344 260.707031 C 114.542969 260.660156 114.316406 260.589844 114.097656 260.492188 C 113.878906 260.398438 113.671875 260.28125 113.476562 260.144531 C 113.28125 260.007812 113.101562 259.851562 112.941406 259.675781 C 112.777344 259.5 112.636719 259.308594 112.511719 259.105469 C 112.390625 258.902344 112.289062 258.6875 112.210938 258.460938 C 112.132812 258.234375 112.078125 258.003906 112.046875 257.765625 C 112.015625 257.53125 112.011719 257.292969 112.03125 257.054688 L 118.203125 180.417969 C 118.238281 179.984375 118.351562 179.574219 118.542969 179.183594 C 118.730469 178.792969 118.984375 178.453125 119.304688 178.160156 C 119.621094 177.863281 119.984375 177.636719 120.386719 177.480469 C 120.792969 177.320312 121.210938 177.242188 121.644531 177.242188 L 200.933594 177.242188 C 201.363281 177.242188 201.785156 177.320312 202.1875 177.480469 C 202.589844 177.636719 202.953125 177.863281 203.269531 178.15625 C 203.589844 178.453125 203.84375 178.792969 204.03125 179.183594 C 204.222656 179.574219 204.332031 179.984375 204.367188 180.417969 L 210.539062 257.054688 C 210.558594 257.292969 210.554688 257.527344 210.523438 257.765625 C 210.492188 258 210.441406 258.230469 210.363281 258.457031 C 210.285156 258.679688 210.183594 258.894531 210.0625 259.101562 C 209.941406 259.304688 209.796875 259.492188 209.636719 259.667969 C 209.476562 259.84375 209.296875 260 209.105469 260.136719 C 208.910156 260.277344 208.703125 260.394531 208.488281 260.488281 C 208.269531 260.585938 208.042969 260.65625 207.808594 260.707031 C 207.578125 260.753906 207.34375 260.777344 207.105469 260.777344 Z M 119.21875 253.878906 L 203.359375 253.878906 L 197.742188 184.140625 L 124.84375 184.140625 Z M 119.21875 253.878906 " fill-opacity="1" fill-rule="nonzero"/><path fill="#1f2937" d="M 198.730469 156.832031 L 123.855469 156.832031 C 123.574219 156.832031 123.296875 156.800781 123.023438 156.734375 C 122.75 156.664062 122.492188 156.566406 122.242188 156.433594 C 121.996094 156.304688 121.765625 156.144531 121.554688 155.957031 C 121.347656 155.773438 121.164062 155.5625 121.003906 155.332031 C 120.847656 155.097656 120.71875 154.851562 120.621094 154.589844 C 120.523438 154.324219 120.457031 154.054688 120.425781 153.773438 C 120.394531 153.496094 120.398438 153.21875 120.433594 152.9375 C 120.46875 152.660156 120.539062 152.390625 120.640625 152.128906 L 128.886719 130.988281 C 129.011719 130.664062 129.183594 130.367188 129.398438 130.097656 C 129.617188 129.824219 129.867188 129.589844 130.152344 129.394531 C 130.441406 129.199219 130.75 129.046875 131.082031 128.945312 C 131.414062 128.84375 131.753906 128.792969 132.101562 128.792969 L 190.5 128.792969 C 190.847656 128.792969 191.1875 128.84375 191.519531 128.945312 C 191.851562 129.046875 192.160156 129.199219 192.449219 129.394531 C 192.734375 129.589844 192.988281 129.824219 193.203125 130.097656 C 193.417969 130.367188 193.589844 130.664062 193.71875 130.988281 L 201.960938 152.128906 C 202.0625 152.390625 202.132812 152.664062 202.167969 152.941406 C 202.203125 153.21875 202.207031 153.5 202.171875 153.777344 C 202.140625 154.058594 202.074219 154.328125 201.976562 154.59375 C 201.878906 154.855469 201.75 155.105469 201.589844 155.335938 C 201.429688 155.566406 201.246094 155.777344 201.035156 155.964844 C 200.824219 156.152344 200.59375 156.308594 200.347656 156.441406 C 200.097656 156.570312 199.835938 156.667969 199.5625 156.734375 C 199.289062 156.800781 199.011719 156.835938 198.730469 156.832031 Z M 128.902344 149.933594 L 193.679688 149.933594 L 188.128906 135.691406 L 134.457031 135.691406 Z M 128.902344 149.933594 " fill-opacity="1" fill-rule="nonzero"/><g clip-path="url(#14354bd2b7)"><path fill="#1f2937" d="M 177.589844 135.691406 L 145 135.691406 C 144.761719 135.691406 144.523438 135.667969 144.289062 135.621094 C 144.054688 135.570312 143.828125 135.5 143.609375 135.402344 C 143.390625 135.304688 143.183594 135.1875 142.992188 135.050781 C 142.796875 134.910156 142.617188 134.753906 142.457031 134.578125 C 142.292969 134.402344 142.152344 134.210938 142.03125 134.007812 C 141.90625 133.800781 141.808594 133.585938 141.730469 133.359375 C 141.652344 133.132812 141.601562 132.902344 141.570312 132.664062 C 141.542969 132.425781 141.539062 132.1875 141.558594 131.949219 L 145.152344 90.105469 C 145.191406 89.675781 145.304688 89.269531 145.496094 88.882812 C 145.6875 88.496094 145.941406 88.15625 146.257812 87.867188 C 146.578125 87.574219 146.9375 87.351562 147.339844 87.195312 C 147.742188 87.039062 148.15625 86.960938 148.589844 86.960938 L 174.023438 86.960938 C 174.453125 86.960938 174.871094 87.039062 175.273438 87.195312 C 175.675781 87.351562 176.035156 87.574219 176.351562 87.863281 C 176.671875 88.15625 176.925781 88.496094 177.117188 88.882812 C 177.308594 89.269531 177.421875 89.675781 177.460938 90.105469 L 181.054688 131.949219 C 181.074219 132.1875 181.070312 132.425781 181.042969 132.664062 C 181.011719 132.902344 180.960938 133.132812 180.882812 133.359375 C 180.808594 133.585938 180.707031 133.800781 180.585938 134.007812 C 180.464844 134.210938 180.320312 134.402344 180.160156 134.578125 C 180 134.753906 179.820312 134.914062 179.625 135.050781 C 179.429688 135.191406 179.226562 135.308594 179.003906 135.402344 C 178.785156 135.5 178.558594 135.570312 178.328125 135.621094 C 178.09375 135.667969 177.855469 135.695312 177.617188 135.691406 Z M 148.753906 128.792969 L 173.828125 128.792969 L 170.832031 93.851562 L 151.75 93.851562 Z M 148.753906 128.792969 " fill-opacity="1" fill-rule="nonzero"/></g><g clip-path="url(#5555cee68b)"><path fill="#1f2937" d="M 261.714844 282.25 L 247.789062 282.25 C 247.332031 282.25 246.890625 282.164062 246.46875 281.988281 C 246.046875 281.8125 245.671875 281.5625 245.347656 281.238281 C 245.027344 280.914062 244.777344 280.542969 244.601562 280.117188 C 244.425781 279.695312 244.339844 279.253906 244.339844 278.796875 L 244.339844 109.804688 C 244.339844 109.347656 244.425781 108.90625 244.601562 108.484375 C 244.777344 108.0625 245.027344 107.6875 245.351562 107.363281 C 245.675781 107.039062 246.046875 106.792969 246.46875 106.617188 C 246.890625 106.441406 247.332031 106.355469 247.789062 106.355469 L 261.714844 106.355469 C 262.171875 106.355469 262.613281 106.441406 263.035156 106.617188 C 263.457031 106.792969 263.832031 107.039062 264.15625 107.363281 C 264.480469 107.6875 264.726562 108.0625 264.902344 108.484375 C 265.078125 108.90625 265.167969 109.347656 265.167969 109.804688 L 265.167969 278.796875 C 265.167969 279.253906 265.078125 279.695312 264.90625 280.117188 C 264.730469 280.542969 264.480469 280.914062 264.15625 281.238281 C 263.832031 281.5625 263.460938 281.8125 263.039062 281.988281 C 262.613281 282.164062 262.175781 282.25 261.714844 282.25 Z M 251.238281 275.347656 L 258.265625 275.347656 L 258.265625 113.261719 L 251.238281 113.261719 Z M 251.238281 275.347656 " fill-opacity="1" fill-rule="nonzero"/></g><g clip-path="url(#29184e4931)"><path fill="#1f2937" d="M 261.714844 282.25 L 247.789062 282.25 C 247.332031 282.25 246.890625 282.164062 246.46875 281.988281 C 246.046875 281.8125 245.671875 281.5625 245.347656 281.238281 C 245.027344 280.914062 244.777344 280.542969 244.601562 280.117188 C 244.425781 279.695312 244.339844 279.253906 244.339844 278.796875 L 244.339844 222.15625 C 244.339844 221.695312 244.425781 221.257812 244.601562 220.835938 C 244.777344 220.410156 245.027344 220.039062 245.351562 219.714844 C 245.675781 219.390625 246.046875 219.140625 246.46875 218.96875 C 246.890625 218.792969 247.332031 218.703125 247.789062 218.703125 L 261.714844 218.703125 C 262.171875 218.703125 262.613281 218.792969 263.035156 218.96875 C 263.457031 219.140625 263.832031 219.390625 264.15625 219.714844 C 264.480469 220.039062 264.726562 220.410156 264.902344 220.835938 C 265.078125 221.257812 265.167969 221.695312 265.167969 222.15625 L 265.167969 278.796875 C 265.167969 279.253906 265.078125 279.695312 264.90625 280.117188 C 264.730469 280.542969 264.480469 280.914062 264.15625 281.238281 C 263.832031 281.5625 263.460938 281.8125 263.039062 281.988281 C 262.613281 282.164062 262.175781 282.25 261.714844 282.25 Z M 251.238281 275.347656 L 258.265625 275.347656 L 258.265625 225.605469 L 251.238281 225.605469 Z M 251.238281 275.347656 " fill-opacity="1" fill-rule="nonzero"/></g><path fill="#1f2937" d="M 247.789062 173.230469 C 247.691406 173.230469 247.59375 173.230469 247.492188 173.230469 L 220.4375 170.886719 C 220.007812 170.847656 219.597656 170.730469 219.214844 170.539062 C 218.828125 170.347656 218.488281 170.09375 218.195312 169.773438 C 217.90625 169.457031 217.683594 169.097656 217.527344 168.695312 C 217.371094 168.292969 217.292969 167.875 217.292969 167.445312 L 217.292969 120.386719 C 217.292969 119.957031 217.371094 119.539062 217.527344 119.140625 C 217.683594 118.738281 217.90625 118.378906 218.199219 118.058594 C 218.488281 117.742188 218.828125 117.488281 219.214844 117.296875 C 219.601562 117.105469 220.007812 116.988281 220.4375 116.953125 L 247.492188 114.601562 C 247.730469 114.582031 247.96875 114.585938 248.207031 114.613281 C 248.445312 114.644531 248.675781 114.699219 248.902344 114.773438 C 249.128906 114.851562 249.34375 114.953125 249.550781 115.074219 C 249.753906 115.195312 249.945312 115.339844 250.121094 115.5 C 250.296875 115.660156 250.457031 115.839844 250.59375 116.035156 C 250.734375 116.226562 250.851562 116.433594 250.949219 116.652344 C 251.042969 116.871094 251.117188 117.097656 251.167969 117.332031 C 251.214844 117.566406 251.238281 117.804688 251.238281 118.042969 L 251.238281 169.78125 C 251.238281 170.238281 251.152344 170.675781 250.976562 171.101562 C 250.800781 171.523438 250.554688 171.894531 250.230469 172.21875 C 249.90625 172.542969 249.53125 172.792969 249.109375 172.96875 C 248.6875 173.140625 248.246094 173.230469 247.789062 173.230469 Z M 224.183594 164.269531 L 244.339844 166.019531 L 244.339844 121.804688 L 224.183594 123.554688 Z M 224.183594 164.269531 " fill-opacity="1" fill-rule="nonzero"/><path fill="#1f2937" d="M 247.789062 156.167969 L 220.742188 156.167969 C 220.285156 156.167969 219.84375 156.082031 219.421875 155.90625 C 219 155.730469 218.625 155.480469 218.304688 155.15625 C 217.980469 154.835938 217.730469 154.460938 217.554688 154.039062 C 217.378906 153.617188 217.292969 153.175781 217.292969 152.71875 L 217.292969 135.105469 C 217.292969 134.648438 217.378906 134.207031 217.554688 133.785156 C 217.730469 133.363281 217.980469 132.988281 218.304688 132.664062 C 218.625 132.339844 219 132.09375 219.421875 131.917969 C 219.84375 131.742188 220.285156 131.652344 220.742188 131.652344 L 247.800781 131.652344 C 248.257812 131.652344 248.695312 131.742188 249.121094 131.917969 C 249.542969 132.09375 249.914062 132.339844 250.238281 132.664062 C 250.5625 132.988281 250.8125 133.363281 250.988281 133.785156 C 251.160156 134.207031 251.25 134.648438 251.25 135.105469 L 251.25 152.71875 C 251.25 153.175781 251.160156 153.617188 250.984375 154.039062 C 250.808594 154.464844 250.558594 154.835938 250.234375 155.160156 C 249.910156 155.484375 249.535156 155.734375 249.113281 155.910156 C 248.6875 156.082031 248.25 156.167969 247.789062 156.167969 Z M 224.183594 149.269531 L 244.339844 149.269531 L 244.339844 138.554688 L 224.183594 138.554688 Z M 224.183594 149.269531 " fill-opacity="1" fill-rule="nonzero"/><path fill="#1f2937" d="M 167.675781 247.878906 C 167.21875 247.875 166.777344 247.789062 166.355469 247.613281 C 165.933594 247.4375 165.5625 247.1875 165.238281 246.867188 C 164.914062 246.542969 164.664062 246.167969 164.488281 245.746094 C 164.3125 245.324219 164.226562 244.882812 164.226562 244.425781 L 164.226562 229.925781 C 164.226562 227.082031 162.710938 226.070312 161.292969 226.070312 C 159.871094 226.070312 158.359375 227.082031 158.359375 229.925781 L 158.359375 244.425781 C 158.359375 245.101562 158.175781 245.726562 157.808594 246.292969 C 157.441406 246.863281 156.949219 247.285156 156.335938 247.566406 C 155.71875 247.84375 155.078125 247.9375 154.40625 247.839844 C 153.738281 247.738281 153.148438 247.46875 152.640625 247.023438 C 145.003906 240.363281 143.570312 234.273438 143.570312 225.371094 L 143.570312 218.101562 C 138.066406 213.234375 136.316406 204.277344 139.847656 197.542969 C 141.261719 194.847656 146.90625 186.652344 161.292969 191.773438 C 175.667969 186.652344 181.328125 194.84375 182.742188 197.542969 C 186.273438 204.28125 184.539062 213.234375 179.015625 218.101562 L 179.015625 225.371094 C 179.015625 234.273438 177.570312 240.363281 169.945312 247.023438 C 169.296875 247.59375 168.539062 247.878906 167.675781 247.878906 Z M 161.292969 219.171875 C 166.179688 219.171875 171.125 222.863281 171.125 229.925781 L 171.125 233.9375 C 171.917969 231.535156 172.113281 228.832031 172.113281 225.371094 L 172.113281 216.417969 C 172.113281 215.839844 172.25 215.300781 172.523438 214.789062 C 172.792969 214.28125 173.171875 213.867188 173.648438 213.546875 C 177.410156 211.039062 178.828125 204.941406 176.628906 200.746094 C 174.484375 196.65625 169.496094 195.921875 162.5625 198.664062 C 161.714844 199.003906 160.867188 199.003906 160.019531 198.664062 C 153.09375 195.921875 148.097656 196.65625 145.957031 200.746094 C 143.757812 204.941406 145.179688 211.039062 148.933594 213.546875 C 149.414062 213.867188 149.789062 214.28125 150.0625 214.789062 C 150.335938 215.296875 150.472656 215.839844 150.46875 216.417969 L 150.46875 225.371094 C 150.46875 228.832031 150.671875 231.535156 151.457031 233.9375 L 151.457031 229.925781 C 151.457031 222.863281 156.410156 219.171875 161.292969 219.171875 Z M 161.292969 219.171875 " fill-opacity="1" fill-rule="nonzero"/></svg>