<svg xmlns="http://www.w3.org/2000/svg" xmlns:xlink="http://www.w3.org/1999/xlink" width="500" zoomAndPan="magnify" viewBox="0 0 375 374.999991" height="500" preserveAspectRatio="xMidYMid meet" version="1.0"><defs><clipPath id="580623330b"><path d="M 42.65625 117 L 235 117 L 235 375 L 42.65625 375 Z M 42.65625 117 " clip-rule="nonzero"/></clipPath><clipPath id="230ecddb3e"><path d="M 293 36 L 332.15625 36 L 332.15625 365 L 293 365 Z M 293 36 " clip-rule="nonzero"/></clipPath><clipPath id="105b26a589"><path d="M 293 245 L 332.15625 245 L 332.15625 365 L 293 365 Z M 293 245 " clip-rule="nonzero"/></clipPath></defs><g clip-path="url(#580623330b)"><path fill="#1f2937" d="M 228.148438 375.058594 L 49.117188 375.058594 C 48.671875 375.058594 48.234375 375.011719 47.800781 374.921875 C 47.363281 374.828125 46.945312 374.695312 46.539062 374.515625 C 46.132812 374.339844 45.746094 374.121094 45.386719 373.863281 C 45.023438 373.605469 44.691406 373.3125 44.390625 372.984375 C 44.089844 372.660156 43.828125 372.304688 43.597656 371.921875 C 43.371094 371.542969 43.183594 371.140625 43.039062 370.722656 C 42.894531 370.300781 42.796875 369.871094 42.738281 369.429688 C 42.683594 368.992188 42.675781 368.550781 42.710938 368.105469 L 62.417969 123.378906 C 62.449219 122.980469 62.519531 122.589844 62.625 122.203125 C 62.730469 121.816406 62.871094 121.441406 63.046875 121.082031 C 63.21875 120.71875 63.425781 120.378906 63.664062 120.058594 C 63.90625 119.734375 64.171875 119.4375 64.464844 119.167969 C 64.757812 118.894531 65.078125 118.652344 65.417969 118.441406 C 65.753906 118.226562 66.113281 118.046875 66.484375 117.902344 C 66.859375 117.753906 67.242188 117.644531 67.636719 117.570312 C 68.027344 117.496094 68.425781 117.457031 68.828125 117.457031 L 208.441406 117.457031 C 208.839844 117.457031 209.238281 117.496094 209.632812 117.570312 C 210.027344 117.644531 210.410156 117.753906 210.785156 117.902344 C 211.15625 118.046875 211.511719 118.226562 211.851562 118.441406 C 212.191406 118.652344 212.511719 118.894531 212.804688 119.167969 C 213.097656 119.4375 213.367188 119.734375 213.605469 120.058594 C 213.84375 120.378906 214.050781 120.71875 214.226562 121.082031 C 214.402344 121.441406 214.542969 121.8125 214.648438 122.199219 C 214.753906 122.585938 214.824219 122.980469 214.855469 123.378906 L 234.566406 368.105469 C 234.601562 368.550781 234.589844 368.992188 234.535156 369.433594 C 234.480469 369.875 234.378906 370.304688 234.234375 370.722656 C 234.089844 371.144531 233.902344 371.542969 233.675781 371.925781 C 233.445312 372.308594 233.183594 372.660156 232.882812 372.988281 C 232.578125 373.316406 232.246094 373.605469 231.886719 373.863281 C 231.523438 374.121094 231.140625 374.339844 230.730469 374.519531 C 230.324219 374.699219 229.902344 374.832031 229.46875 374.921875 C 229.035156 375.011719 228.59375 375.058594 228.148438 375.058594 Z M 56.09375 362.191406 L 221.179688 362.191406 L 202.511719 130.324219 L 74.765625 130.324219 Z M 56.09375 362.191406 " fill-opacity="1" fill-rule="nonzero"/></g><path fill="#1f2937" d="M 224.054688 324.140625 L 53.222656 324.140625 C 52.777344 324.140625 52.335938 324.097656 51.898438 324.007812 C 51.464844 323.917969 51.042969 323.785156 50.632812 323.609375 C 50.226562 323.433594 49.839844 323.214844 49.476562 322.957031 C 49.113281 322.699219 48.78125 322.410156 48.476562 322.082031 C 48.175781 321.753906 47.910156 321.402344 47.679688 321.019531 C 47.449219 320.636719 47.261719 320.238281 47.117188 319.816406 C 46.96875 319.398438 46.867188 318.964844 46.8125 318.523438 C 46.757812 318.082031 46.746094 317.640625 46.78125 317.195312 L 58.289062 174.300781 C 58.324219 173.898438 58.390625 173.507812 58.496094 173.121094 C 58.605469 172.734375 58.746094 172.359375 58.921875 172 C 59.097656 171.640625 59.304688 171.300781 59.542969 170.976562 C 59.78125 170.65625 60.046875 170.359375 60.34375 170.085938 C 60.636719 169.816406 60.953125 169.574219 61.292969 169.359375 C 61.632812 169.148438 61.992188 168.96875 62.363281 168.820312 C 62.738281 168.675781 63.121094 168.566406 63.515625 168.492188 C 63.90625 168.414062 64.304688 168.378906 64.707031 168.378906 L 212.542969 168.378906 C 212.945312 168.378906 213.34375 168.414062 213.734375 168.488281 C 214.128906 168.5625 214.511719 168.675781 214.886719 168.820312 C 215.257812 168.964844 215.617188 169.144531 215.957031 169.359375 C 216.292969 169.570312 216.613281 169.8125 216.90625 170.085938 C 217.199219 170.359375 217.464844 170.65625 217.707031 170.976562 C 217.945312 171.296875 218.152344 171.640625 218.328125 172 C 218.5 172.359375 218.640625 172.734375 218.746094 173.121094 C 218.851562 173.507812 218.921875 173.898438 218.953125 174.300781 L 230.460938 317.195312 C 230.496094 317.636719 230.484375 318.078125 230.429688 318.519531 C 230.375 318.960938 230.273438 319.390625 230.128906 319.808594 C 229.984375 320.230469 229.796875 320.628906 229.570312 321.007812 C 229.339844 321.390625 229.078125 321.742188 228.777344 322.070312 C 228.476562 322.394531 228.144531 322.6875 227.78125 322.945312 C 227.421875 323.203125 227.039062 323.421875 226.632812 323.597656 C 226.226562 323.777344 225.804688 323.910156 225.371094 324.003906 C 224.9375 324.09375 224.496094 324.140625 224.054688 324.140625 Z M 60.183594 311.273438 L 217.066406 311.273438 L 206.597656 181.242188 L 70.667969 181.242188 Z M 60.183594 311.273438 " fill-opacity="1" fill-rule="nonzero"/><path fill="#1f2937" d="M 208.441406 130.324219 L 68.828125 130.324219 C 68.566406 130.324219 68.304688 130.308594 68.046875 130.277344 C 67.789062 130.246094 67.53125 130.199219 67.28125 130.136719 C 67.027344 130.074219 66.777344 129.996094 66.535156 129.90625 C 66.289062 129.8125 66.054688 129.703125 65.824219 129.582031 C 65.59375 129.460938 65.371094 129.324219 65.15625 129.175781 C 64.941406 129.027344 64.738281 128.867188 64.542969 128.695312 C 64.347656 128.519531 64.164062 128.335938 63.992188 128.140625 C 63.820312 127.945312 63.660156 127.738281 63.511719 127.523438 C 63.367188 127.308594 63.234375 127.085938 63.113281 126.851562 C 62.992188 126.621094 62.886719 126.382812 62.796875 126.140625 C 62.707031 125.894531 62.628906 125.644531 62.570312 125.390625 C 62.507812 125.136719 62.464844 124.882812 62.433594 124.621094 C 62.40625 124.363281 62.390625 124.105469 62.394531 123.84375 C 62.398438 123.582031 62.414062 123.324219 62.449219 123.0625 C 62.484375 122.804688 62.53125 122.550781 62.597656 122.296875 C 62.664062 122.046875 62.742188 121.796875 62.835938 121.554688 L 78.207031 82.136719 C 78.445312 81.53125 78.761719 80.976562 79.164062 80.46875 C 79.570312 79.964844 80.039062 79.527344 80.574219 79.160156 C 81.109375 78.796875 81.6875 78.515625 82.304688 78.328125 C 82.925781 78.136719 83.558594 78.039062 84.207031 78.039062 L 193.09375 78.039062 C 193.742188 78.039062 194.375 78.136719 194.996094 78.328125 C 195.613281 78.515625 196.191406 78.796875 196.726562 79.160156 C 197.261719 79.527344 197.730469 79.964844 198.132812 80.46875 C 198.539062 80.976562 198.855469 81.53125 199.09375 82.136719 L 214.460938 121.554688 C 214.558594 121.796875 214.636719 122.046875 214.703125 122.300781 C 214.765625 122.550781 214.816406 122.808594 214.847656 123.066406 C 214.882812 123.328125 214.902344 123.585938 214.902344 123.847656 C 214.902344 124.109375 214.890625 124.371094 214.859375 124.628906 C 214.828125 124.890625 214.785156 125.144531 214.722656 125.398438 C 214.660156 125.652344 214.585938 125.902344 214.492188 126.148438 C 214.402344 126.394531 214.296875 126.628906 214.175781 126.863281 C 214.054688 127.09375 213.921875 127.316406 213.773438 127.535156 C 213.625 127.75 213.464844 127.953125 213.292969 128.148438 C 213.117188 128.347656 212.933594 128.53125 212.738281 128.703125 C 212.542969 128.878906 212.335938 129.039062 212.121094 129.1875 C 211.90625 129.335938 211.683594 129.46875 211.453125 129.589844 C 211.222656 129.710938 210.984375 129.820312 210.738281 129.910156 C 210.496094 130.003906 210.246094 130.078125 209.992188 130.140625 C 209.738281 130.203125 209.480469 130.25 209.222656 130.28125 C 208.960938 130.3125 208.703125 130.324219 208.441406 130.324219 Z M 78.242188 117.457031 L 199.027344 117.457031 L 188.671875 90.90625 L 88.59375 90.90625 Z M 78.242188 117.457031 " fill-opacity="1" fill-rule="nonzero"/><path fill="#1f2937" d="M 169.023438 90.90625 L 108.253906 90.90625 C 107.808594 90.90625 107.367188 90.863281 106.929688 90.769531 C 106.496094 90.679688 106.074219 90.542969 105.664062 90.363281 C 105.257812 90.1875 104.871094 89.96875 104.507812 89.707031 C 104.144531 89.449219 103.8125 89.15625 103.511719 88.828125 C 103.210938 88.5 102.945312 88.144531 102.71875 87.761719 C 102.488281 87.378906 102.304688 86.976562 102.160156 86.554688 C 102.015625 86.132812 101.917969 85.699219 101.863281 85.257812 C 101.808594 84.816406 101.800781 84.371094 101.835938 83.929688 L 108.539062 5.90625 C 108.574219 5.507812 108.644531 5.117188 108.753906 4.734375 C 108.859375 4.351562 109.003906 3.980469 109.179688 3.625 C 109.355469 3.265625 109.5625 2.929688 109.804688 2.609375 C 110.042969 2.292969 110.308594 1.996094 110.601562 1.730469 C 110.898438 1.460938 111.214844 1.21875 111.550781 1.011719 C 111.890625 0.800781 112.246094 0.621094 112.617188 0.476562 C 112.988281 0.335938 113.371094 0.226562 113.761719 0.152344 C 114.152344 0.078125 114.546875 0.0429688 114.945312 0.0429688 L 162.371094 0.0429688 C 162.769531 0.0429688 163.164062 0.078125 163.558594 0.152344 C 163.949219 0.222656 164.332031 0.332031 164.703125 0.476562 C 165.074219 0.621094 165.429688 0.796875 165.765625 1.007812 C 166.105469 1.21875 166.421875 1.457031 166.714844 1.726562 C 167.011719 1.996094 167.277344 2.289062 167.515625 2.609375 C 167.753906 2.925781 167.964844 3.265625 168.140625 3.621094 C 168.316406 3.980469 168.457031 4.351562 168.566406 4.734375 C 168.671875 5.117188 168.746094 5.507812 168.78125 5.90625 L 175.480469 83.929688 C 175.519531 84.371094 175.511719 84.816406 175.457031 85.257812 C 175.40625 85.699219 175.308594 86.132812 175.164062 86.554688 C 175.019531 86.976562 174.835938 87.378906 174.609375 87.761719 C 174.378906 88.144531 174.117188 88.5 173.8125 88.828125 C 173.511719 89.160156 173.179688 89.453125 172.816406 89.710938 C 172.457031 89.96875 172.070312 90.1875 171.660156 90.367188 C 171.253906 90.546875 170.832031 90.679688 170.394531 90.773438 C 169.960938 90.863281 169.519531 90.90625 169.074219 90.90625 Z M 115.253906 78.039062 L 162.011719 78.039062 L 156.425781 12.890625 L 120.84375 12.890625 Z M 115.253906 78.039062 " fill-opacity="1" fill-rule="nonzero"/><g clip-path="url(#230ecddb3e)"><path fill="#1f2937" d="M 325.882812 364.179688 L 299.917969 364.179688 C 299.492188 364.179688 299.074219 364.136719 298.660156 364.054688 C 298.246094 363.972656 297.84375 363.847656 297.453125 363.6875 C 297.0625 363.527344 296.691406 363.328125 296.339844 363.09375 C 295.988281 362.855469 295.664062 362.589844 295.363281 362.289062 C 295.066406 361.992188 294.800781 361.667969 294.566406 361.316406 C 294.328125 360.964844 294.132812 360.589844 293.96875 360.199219 C 293.808594 359.808594 293.6875 359.40625 293.605469 358.992188 C 293.523438 358.578125 293.484375 358.160156 293.484375 357.738281 L 293.484375 42.632812 C 293.484375 42.210938 293.523438 41.792969 293.605469 41.378906 C 293.6875 40.964844 293.8125 40.5625 293.972656 40.171875 C 294.132812 39.78125 294.332031 39.410156 294.566406 39.0625 C 294.800781 38.710938 295.070312 38.382812 295.367188 38.085938 C 295.667969 37.789062 295.992188 37.519531 296.34375 37.285156 C 296.695312 37.050781 297.0625 36.851562 297.453125 36.691406 C 297.84375 36.53125 298.246094 36.40625 298.660156 36.324219 C 299.074219 36.242188 299.492188 36.203125 299.917969 36.203125 L 325.882812 36.203125 C 326.304688 36.203125 326.722656 36.242188 327.136719 36.324219 C 327.550781 36.40625 327.953125 36.53125 328.34375 36.691406 C 328.734375 36.851562 329.105469 37.050781 329.457031 37.285156 C 329.808594 37.519531 330.132812 37.789062 330.429688 38.085938 C 330.730469 38.382812 330.996094 38.710938 331.230469 39.0625 C 331.464844 39.410156 331.664062 39.78125 331.824219 40.171875 C 331.988281 40.5625 332.109375 40.964844 332.191406 41.378906 C 332.273438 41.792969 332.316406 42.210938 332.316406 42.632812 L 332.316406 357.738281 C 332.316406 358.160156 332.273438 358.578125 332.191406 358.992188 C 332.109375 359.40625 331.988281 359.808594 331.828125 360.199219 C 331.667969 360.59375 331.46875 360.964844 331.234375 361.316406 C 331 361.667969 330.734375 361.992188 330.433594 362.289062 C 330.136719 362.589844 329.808594 362.855469 329.457031 363.09375 C 329.109375 363.328125 328.738281 363.527344 328.347656 363.6875 C 327.957031 363.847656 327.554688 363.972656 327.136719 364.054688 C 326.722656 364.136719 326.304688 364.179688 325.882812 364.179688 Z M 306.347656 351.304688 L 319.449219 351.304688 L 319.449219 49.085938 L 306.347656 49.085938 Z M 306.347656 351.304688 " fill-opacity="1" fill-rule="nonzero"/></g><g clip-path="url(#105b26a589)"><path fill="#1f2937" d="M 325.882812 364.179688 L 299.917969 364.179688 C 299.492188 364.179688 299.074219 364.136719 298.660156 364.054688 C 298.246094 363.972656 297.84375 363.847656 297.453125 363.6875 C 297.0625 363.527344 296.691406 363.328125 296.339844 363.09375 C 295.988281 362.855469 295.664062 362.589844 295.363281 362.289062 C 295.066406 361.992188 294.800781 361.667969 294.566406 361.316406 C 294.328125 360.964844 294.132812 360.589844 293.96875 360.199219 C 293.808594 359.808594 293.6875 359.40625 293.605469 358.992188 C 293.523438 358.578125 293.484375 358.160156 293.484375 357.738281 L 293.484375 252.121094 C 293.484375 251.699219 293.523438 251.28125 293.605469 250.867188 C 293.6875 250.453125 293.8125 250.050781 293.972656 249.660156 C 294.132812 249.269531 294.332031 248.898438 294.566406 248.546875 C 294.800781 248.195312 295.070312 247.871094 295.367188 247.574219 C 295.667969 247.273438 295.992188 247.007812 296.34375 246.773438 C 296.695312 246.539062 297.0625 246.339844 297.453125 246.179688 C 297.84375 246.015625 298.246094 245.894531 298.660156 245.8125 C 299.074219 245.730469 299.492188 245.6875 299.917969 245.6875 L 325.882812 245.6875 C 326.304688 245.6875 326.722656 245.730469 327.136719 245.8125 C 327.550781 245.894531 327.953125 246.015625 328.34375 246.179688 C 328.734375 246.339844 329.105469 246.539062 329.457031 246.773438 C 329.808594 247.007812 330.132812 247.273438 330.429688 247.574219 C 330.730469 247.871094 330.996094 248.195312 331.230469 248.546875 C 331.464844 248.898438 331.664062 249.269531 331.824219 249.660156 C 331.988281 250.050781 332.109375 250.453125 332.191406 250.867188 C 332.273438 251.28125 332.316406 251.699219 332.316406 252.121094 L 332.316406 357.738281 C 332.316406 358.160156 332.273438 358.578125 332.191406 358.992188 C 332.109375 359.40625 331.988281 359.808594 331.828125 360.199219 C 331.667969 360.589844 331.46875 360.964844 331.234375 361.316406 C 331 361.667969 330.734375 361.992188 330.433594 362.289062 C 330.136719 362.589844 329.808594 362.855469 329.457031 363.09375 C 329.105469 363.328125 328.738281 363.527344 328.347656 363.6875 C 327.957031 363.847656 327.554688 363.972656 327.136719 364.054688 C 326.722656 364.136719 326.304688 364.179688 325.882812 364.179688 Z M 306.347656 351.304688 L 319.449219 351.304688 L 319.449219 258.554688 L 306.347656 258.554688 Z M 306.347656 351.304688 " fill-opacity="1" fill-rule="nonzero"/></g><path fill="#1f2937" d="M 299.917969 160.898438 C 299.730469 160.898438 299.546875 160.898438 299.363281 160.898438 L 248.914062 156.523438 C 248.515625 156.488281 248.125 156.417969 247.742188 156.308594 C 247.359375 156.199219 246.988281 156.058594 246.632812 155.882812 C 246.273438 155.703125 245.9375 155.496094 245.617188 155.257812 C 245.300781 155.015625 245.003906 154.75 244.738281 154.453125 C 244.46875 154.160156 244.226562 153.84375 244.019531 153.503906 C 243.808594 153.167969 243.632812 152.8125 243.488281 152.441406 C 243.34375 152.066406 243.234375 151.6875 243.160156 151.292969 C 243.085938 150.902344 243.050781 150.507812 243.050781 150.109375 L 243.050781 62.367188 C 243.050781 61.96875 243.089844 61.574219 243.160156 61.183594 C 243.234375 60.792969 243.34375 60.410156 243.488281 60.039062 C 243.632812 59.667969 243.8125 59.3125 244.019531 58.976562 C 244.230469 58.636719 244.472656 58.320312 244.738281 58.027344 C 245.007812 57.734375 245.300781 57.46875 245.621094 57.226562 C 245.9375 56.988281 246.277344 56.78125 246.632812 56.605469 C 246.992188 56.425781 247.359375 56.285156 247.742188 56.175781 C 248.128906 56.070312 248.515625 55.996094 248.914062 55.960938 L 299.363281 51.582031 C 299.808594 51.542969 300.25 51.550781 300.691406 51.605469 C 301.136719 51.660156 301.566406 51.757812 301.988281 51.902344 C 302.410156 52.046875 302.8125 52.234375 303.199219 52.460938 C 303.582031 52.6875 303.9375 52.953125 304.265625 53.253906 C 304.59375 53.554688 304.886719 53.886719 305.148438 54.25 C 305.40625 54.613281 305.625 55 305.804688 55.40625 C 305.984375 55.816406 306.121094 56.238281 306.210938 56.671875 C 306.304688 57.109375 306.347656 57.550781 306.347656 57.996094 L 306.347656 154.464844 C 306.347656 154.886719 306.308594 155.304688 306.226562 155.71875 C 306.144531 156.132812 306.019531 156.535156 305.859375 156.925781 C 305.699219 157.316406 305.5 157.6875 305.265625 158.039062 C 305.03125 158.390625 304.761719 158.714844 304.464844 159.011719 C 304.167969 159.3125 303.839844 159.578125 303.488281 159.8125 C 303.140625 160.046875 302.769531 160.246094 302.378906 160.40625 C 301.988281 160.570312 301.585938 160.691406 301.171875 160.773438 C 300.757812 160.855469 300.339844 160.898438 299.917969 160.898438 Z M 255.898438 144.1875 L 293.484375 147.453125 L 293.484375 65.007812 L 255.898438 68.273438 Z M 255.898438 144.1875 " fill-opacity="1" fill-rule="nonzero"/><path fill="#1f2937" d="M 299.917969 129.085938 L 249.484375 129.085938 C 249.0625 129.085938 248.644531 129.042969 248.226562 128.960938 C 247.8125 128.878906 247.410156 128.757812 247.023438 128.59375 C 246.632812 128.433594 246.261719 128.234375 245.910156 128 C 245.558594 127.765625 245.234375 127.5 244.933594 127.199219 C 244.636719 126.902344 244.371094 126.578125 244.132812 126.226562 C 243.898438 125.875 243.703125 125.503906 243.539062 125.113281 C 243.378906 124.722656 243.257812 124.320312 243.175781 123.90625 C 243.089844 123.492188 243.050781 123.074219 243.050781 122.652344 L 243.050781 89.808594 C 243.050781 89.386719 243.089844 88.96875 243.175781 88.554688 C 243.257812 88.140625 243.378906 87.738281 243.539062 87.347656 C 243.703125 86.957031 243.898438 86.585938 244.132812 86.234375 C 244.371094 85.882812 244.636719 85.558594 244.933594 85.261719 C 245.234375 84.960938 245.558594 84.695312 245.910156 84.460938 C 246.261719 84.226562 246.632812 84.027344 247.023438 83.867188 C 247.410156 83.703125 247.8125 83.582031 248.226562 83.5 C 248.644531 83.417969 249.0625 83.375 249.484375 83.375 L 299.933594 83.375 C 300.355469 83.375 300.773438 83.417969 301.1875 83.5 C 301.601562 83.582031 302.003906 83.703125 302.394531 83.867188 C 302.785156 84.027344 303.15625 84.226562 303.507812 84.460938 C 303.859375 84.695312 304.183594 84.960938 304.480469 85.261719 C 304.78125 85.558594 305.046875 85.882812 305.28125 86.234375 C 305.515625 86.585938 305.714844 86.957031 305.875 87.347656 C 306.039062 87.738281 306.160156 88.140625 306.242188 88.554688 C 306.324219 88.96875 306.367188 89.386719 306.367188 89.808594 L 306.367188 122.652344 C 306.367188 123.074219 306.324219 123.492188 306.242188 123.910156 C 306.160156 124.324219 306.035156 124.726562 305.875 125.117188 C 305.710938 125.507812 305.511719 125.878906 305.277344 126.230469 C 305.042969 126.582031 304.773438 126.90625 304.476562 127.207031 C 304.175781 127.503906 303.851562 127.773438 303.5 128.007812 C 303.144531 128.242188 302.773438 128.4375 302.382812 128.601562 C 301.992188 128.761719 301.589844 128.882812 301.171875 128.964844 C 300.757812 129.046875 300.339844 129.085938 299.917969 129.085938 Z M 255.898438 116.21875 L 293.484375 116.21875 L 293.484375 96.242188 L 255.898438 96.242188 Z M 255.898438 116.21875 " fill-opacity="1" fill-rule="nonzero"/><path fill="#1f2937" d="M 150.535156 300.082031 C 150.113281 300.082031 149.695312 300.042969 149.28125 299.957031 C 148.867188 299.875 148.464844 299.753906 148.074219 299.59375 C 147.6875 299.429688 147.316406 299.230469 146.964844 298.996094 C 146.613281 298.761719 146.289062 298.496094 145.988281 298.195312 C 145.691406 297.898438 145.425781 297.574219 145.191406 297.222656 C 144.957031 296.871094 144.757812 296.5 144.59375 296.109375 C 144.433594 295.722656 144.3125 295.320312 144.226562 294.90625 C 144.144531 294.492188 144.105469 294.074219 144.101562 293.652344 L 144.101562 266.613281 C 144.101562 261.3125 141.28125 259.425781 138.632812 259.425781 C 135.988281 259.425781 133.164062 261.3125 133.164062 266.613281 L 133.164062 293.652344 C 133.164062 294.269531 133.074219 294.871094 132.902344 295.464844 C 132.726562 296.058594 132.472656 296.613281 132.136719 297.132812 C 131.804688 297.652344 131.402344 298.113281 130.933594 298.515625 C 130.46875 298.917969 129.953125 299.246094 129.390625 299.503906 C 128.828125 299.757812 128.242188 299.929688 127.628906 300.015625 C 127.019531 300.101562 126.40625 300.101562 125.796875 300.011719 C 125.1875 299.921875 124.601562 299.746094 124.039062 299.488281 C 123.480469 299.230469 122.964844 298.898438 122.5 298.492188 C 108.261719 286.070312 105.589844 274.722656 105.589844 258.121094 L 105.589844 244.566406 C 95.328125 235.488281 92.0625 218.785156 98.644531 206.230469 C 101.285156 201.203125 111.8125 185.925781 138.632812 195.472656 C 165.4375 185.925781 175.992188 201.195312 178.628906 206.230469 C 185.214844 218.792969 181.980469 235.488281 171.675781 244.566406 L 171.675781 258.121094 C 171.675781 274.722656 168.988281 286.070312 154.765625 298.492188 C 153.554688 299.554688 152.144531 300.085938 150.535156 300.082031 Z M 138.632812 246.558594 C 147.746094 246.558594 156.96875 253.445312 156.96875 266.613281 L 156.96875 274.09375 C 158.441406 269.609375 158.8125 264.570312 158.8125 258.121094 L 158.8125 241.425781 C 158.8125 240.351562 159.066406 239.339844 159.574219 238.390625 C 160.082031 237.441406 160.78125 236.671875 161.675781 236.074219 C 168.6875 231.398438 171.335938 220.023438 167.230469 212.203125 C 163.234375 204.578125 153.929688 203.207031 141.003906 208.324219 C 140.242188 208.628906 139.453125 208.78125 138.632812 208.78125 C 137.8125 208.78125 137.023438 208.628906 136.261719 208.324219 C 123.347656 203.207031 114.03125 204.578125 110.039062 212.203125 C 105.941406 220.023438 108.589844 231.398438 115.589844 236.074219 C 116.488281 236.667969 117.1875 237.441406 117.695312 238.390625 C 118.203125 239.335938 118.457031 240.351562 118.457031 241.425781 L 118.457031 258.121094 C 118.457031 264.570312 118.832031 269.609375 120.296875 274.09375 L 120.296875 266.613281 C 120.296875 253.445312 129.527344 246.558594 138.632812 246.558594 Z M 138.632812 246.558594 " fill-opacity="1" fill-rule="nonzero"/></svg>