<svg xmlns="http://www.w3.org/2000/svg" xmlns:xlink="http://www.w3.org/1999/xlink" width="500" zoomAndPan="magnify" viewBox="0 0 375 374.999991" height="500" preserveAspectRatio="xMidYMid meet" version="1.0"><defs><clipPath id="f87581d493"><path d="M 99.925781 215 L 212 215 L 212 277.601562 L 99.925781 277.601562 Z M 99.925781 215 " clip-rule="nonzero"/></clipPath><clipPath id="51a4fe891d"><path d="M 124 194 L 147 194 L 147 277.601562 L 124 277.601562 Z M 124 194 " clip-rule="nonzero"/></clipPath><clipPath id="12bba9a649"><path d="M 136 203 L 160 203 L 160 277.601562 L 136 277.601562 Z M 136 203 " clip-rule="nonzero"/></clipPath><clipPath id="9804b31136"><path d="M 165 194 L 188 194 L 188 277.601562 L 165 277.601562 Z M 165 194 " clip-rule="nonzero"/></clipPath><clipPath id="2f90e0903d"><path d="M 152 203 L 176 203 L 176 277.601562 L 152 277.601562 Z M 152 203 " clip-rule="nonzero"/></clipPath><clipPath id="8cab8b6896"><path d="M 114 249 L 121 249 L 121 277.601562 L 114 277.601562 Z M 114 249 " clip-rule="nonzero"/></clipPath><clipPath id="243eaa37eb"><path d="M 191 249 L 198 249 L 198 277.601562 L 191 277.601562 Z M 191 249 " clip-rule="nonzero"/></clipPath><clipPath id="0d8c11a546"><path d="M 201 93.851562 L 270.925781 93.851562 L 270.925781 164 L 201 164 Z M 201 93.851562 " clip-rule="nonzero"/></clipPath></defs><rect x="-37.5" width="450" fill="#ffffff" y="-37.499999" height="449.999989" fill-opacity="1"/><rect x="-37.5" width="450" fill="#ffffff" y="-37.499999" height="449.999989" fill-opacity="1"/><g clip-path="url(#f87581d493)"><path fill="#1f2937" d="M 208.539062 277.238281 L 103.148438 277.238281 C 101.429688 277.238281 99.925781 275.734375 99.925781 274.015625 L 99.925781 242 C 99.925781 233.941406 103.042969 223.523438 111.851562 220.515625 L 127 215.25 C 128.609375 214.714844 130.4375 215.574219 131.082031 217.292969 C 131.621094 218.902344 130.761719 220.835938 129.042969 221.375 L 114 226.53125 C 108.738281 228.355469 106.371094 235.769531 106.371094 242 L 106.371094 270.792969 L 205.316406 270.792969 L 205.316406 242 C 205.316406 235.769531 202.953125 228.355469 197.796875 226.53125 L 182.757812 221.375 C 181.039062 220.835938 180.179688 218.902344 180.714844 217.292969 C 181.359375 215.574219 183.1875 214.714844 184.796875 215.25 L 199.945312 220.515625 C 208.648438 223.523438 211.761719 233.941406 211.761719 242 L 211.761719 274.015625 C 211.761719 275.734375 210.367188 277.238281 208.539062 277.238281 Z M 208.539062 277.238281 " fill-opacity="1" fill-rule="evenodd"/></g><g clip-path="url(#51a4fe891d)"><path fill="#1f2937" d="M 143.4375 277.238281 C 142.148438 277.238281 140.964844 276.484375 140.429688 275.304688 L 126.03125 241.785156 C 124.636719 238.671875 122.59375 233.941406 126.570312 229 L 128.824219 226.101562 L 128.179688 225.347656 C 126.246094 222.664062 123.992188 219.226562 124.742188 215.574219 C 124.957031 214.070312 125.925781 211.917969 128.71875 210.199219 L 136.347656 205.472656 L 136.347656 197.953125 C 136.347656 196.128906 137.851562 194.730469 139.570312 194.730469 C 141.394531 194.730469 142.792969 196.128906 142.792969 197.953125 L 142.792969 207.300781 C 142.792969 208.375 142.253906 209.449219 141.289062 209.984375 L 132.050781 215.679688 C 131.621094 215.894531 131.082031 216.324219 131.082031 216.753906 C 130.976562 217.183594 131.191406 218.472656 133.339844 221.480469 L 135.488281 224.273438 C 136.347656 225.457031 136.347656 227.066406 135.378906 228.25 L 131.511719 232.976562 C 130.332031 234.589844 130.332031 235.664062 131.941406 239.316406 L 146.445312 272.726562 C 147.089844 274.335938 146.335938 276.269531 144.726562 276.914062 C 144.296875 277.128906 143.867188 277.238281 143.4375 277.238281 Z M 143.4375 277.238281 " fill-opacity="1" fill-rule="evenodd"/></g><g clip-path="url(#12bba9a649)"><path fill="#1f2937" d="M 155.898438 277.238281 C 154.394531 277.238281 153.105469 276.164062 152.785156 274.765625 L 136.453125 208.050781 C 136.023438 206.332031 137.097656 204.507812 138.816406 204.078125 C 140.535156 203.648438 142.363281 204.722656 142.792969 206.441406 L 159.015625 273.261719 C 159.445312 274.980469 158.371094 276.699219 156.652344 277.128906 C 156.4375 277.128906 156.113281 277.238281 155.898438 277.238281 Z M 155.898438 277.238281 " fill-opacity="1" fill-rule="evenodd"/></g><path fill="#1f2937" d="M 155.898438 232.546875 C 152.355469 232.546875 148.914062 231.257812 142.792969 228.570312 C 141.179688 227.925781 140.429688 225.992188 141.179688 224.382812 C 141.824219 222.769531 143.757812 222.019531 145.371094 222.664062 C 155.898438 227.28125 155.898438 227.28125 166.425781 222.664062 C 168.039062 222.019531 169.972656 222.769531 170.617188 224.382812 C 171.367188 225.992188 170.617188 227.925781 169.003906 228.570312 C 162.882812 231.257812 159.445312 232.546875 155.898438 232.546875 Z M 155.898438 232.546875 " fill-opacity="1" fill-rule="evenodd"/><g clip-path="url(#9804b31136)"><path fill="#1f2937" d="M 168.359375 277.238281 C 167.929688 277.238281 167.5 277.128906 167.070312 276.914062 C 165.460938 276.269531 164.707031 274.335938 165.351562 272.726562 L 179.855469 239.316406 C 181.46875 235.664062 181.46875 234.589844 180.179688 232.976562 L 176.3125 228.25 C 175.453125 227.066406 175.34375 225.457031 176.3125 224.273438 L 178.351562 221.480469 C 180.609375 218.472656 180.824219 217.183594 180.714844 216.753906 C 180.609375 216.324219 180.179688 215.894531 179.75 215.679688 L 170.507812 209.984375 C 169.542969 209.449219 168.898438 208.375 168.898438 207.300781 L 168.898438 197.953125 C 168.898438 196.128906 170.402344 194.730469 172.121094 194.730469 C 173.949219 194.730469 175.34375 196.128906 175.34375 197.953125 L 175.34375 205.472656 L 183.078125 210.199219 C 185.871094 211.917969 186.730469 214.070312 187.054688 215.574219 C 187.699219 219.226562 185.550781 222.664062 183.507812 225.347656 L 182.972656 226.101562 L 185.226562 229 C 189.203125 233.941406 187.160156 238.671875 185.765625 241.785156 L 171.261719 275.304688 C 170.722656 276.484375 169.542969 277.238281 168.359375 277.238281 Z M 168.359375 277.238281 " fill-opacity="1" fill-rule="evenodd"/></g><g clip-path="url(#2f90e0903d)"><path fill="#1f2937" d="M 155.898438 277.238281 C 155.683594 277.238281 155.363281 277.128906 155.148438 277.128906 C 153.429688 276.699219 152.355469 274.980469 152.785156 273.261719 L 169.003906 206.441406 C 169.433594 204.722656 171.152344 203.648438 172.875 204.078125 C 174.699219 204.507812 175.667969 206.332031 175.34375 208.050781 L 159.015625 274.765625 C 158.691406 276.164062 157.296875 277.238281 155.898438 277.238281 Z M 155.898438 277.238281 " fill-opacity="1" fill-rule="evenodd"/></g><g clip-path="url(#8cab8b6896)"><path fill="#1f2937" d="M 117.222656 277.238281 C 115.398438 277.238281 114 275.734375 114 274.015625 L 114 252.3125 C 114 250.59375 115.398438 249.089844 117.222656 249.089844 C 118.941406 249.089844 120.445312 250.59375 120.445312 252.3125 L 120.445312 274.015625 C 120.445312 275.734375 118.941406 277.238281 117.222656 277.238281 Z M 117.222656 277.238281 " fill-opacity="1" fill-rule="evenodd"/></g><g clip-path="url(#243eaa37eb)"><path fill="#1f2937" d="M 194.574219 277.238281 C 192.855469 277.238281 191.351562 275.734375 191.351562 274.015625 L 191.351562 252.3125 C 191.351562 250.59375 192.855469 249.089844 194.574219 249.089844 C 196.402344 249.089844 197.796875 250.59375 197.796875 252.3125 L 197.796875 274.015625 C 197.796875 275.734375 196.402344 277.238281 194.574219 277.238281 Z M 194.574219 277.238281 " fill-opacity="1" fill-rule="evenodd"/></g><path fill="#1f2937" d="M 155.898438 206.65625 C 141.71875 206.65625 127.214844 196.664062 127.214844 177.648438 L 127.320312 161.964844 C 127.320312 160.996094 127.644531 160.136719 128.394531 159.492188 C 129.042969 158.957031 130.007812 158.632812 130.867188 158.742188 C 132.800781 158.957031 134.734375 159.171875 136.667969 159.171875 C 153.859375 159.171875 161.378906 148.320312 161.484375 148.210938 C 162.128906 147.246094 163.203125 146.707031 164.277344 146.816406 C 165.460938 146.816406 166.425781 147.460938 166.964844 148.425781 C 166.964844 148.535156 172.980469 159.171875 181.144531 158.742188 C 182.003906 158.632812 182.863281 158.957031 183.507812 159.601562 C 184.152344 160.246094 184.476562 161.105469 184.476562 161.964844 L 184.476562 177.648438 C 184.476562 196.664062 170.078125 206.65625 155.898438 206.65625 Z M 133.769531 165.507812 L 133.769531 177.648438 C 133.769531 193.121094 145.261719 200.210938 155.898438 200.210938 C 166.535156 200.210938 178.03125 193.121094 178.03125 177.648438 L 178.03125 164.972656 C 171.476562 163.898438 166.535156 158.847656 163.742188 155.304688 C 159.550781 159.386719 150.851562 165.617188 136.667969 165.617188 C 135.703125 165.617188 134.734375 165.507812 133.769531 165.507812 Z M 133.769531 165.507812 " fill-opacity="1" fill-rule="evenodd"/><path fill="#1f2937" d="M 130.546875 182.160156 L 129.363281 182.160156 C 122.917969 182.160156 117.652344 176.898438 117.652344 170.453125 C 117.652344 164.003906 122.917969 158.742188 129.363281 158.742188 L 130.546875 158.742188 C 132.265625 158.742188 133.769531 160.136719 133.769531 161.964844 L 133.769531 178.9375 C 133.769531 180.765625 132.265625 182.160156 130.546875 182.160156 Z M 127.320312 165.617188 C 125.386719 166.367188 124.097656 168.300781 124.097656 170.453125 C 124.097656 172.601562 125.386719 174.535156 127.320312 175.285156 Z M 127.320312 165.617188 " fill-opacity="1" fill-rule="evenodd"/><path fill="#1f2937" d="M 182.433594 182.160156 L 181.253906 182.160156 C 179.535156 182.160156 178.03125 180.765625 178.03125 178.9375 L 178.03125 161.964844 C 178.03125 160.136719 179.535156 158.742188 181.253906 158.742188 L 182.433594 158.742188 C 188.878906 158.742188 194.144531 164.003906 194.144531 170.453125 C 194.144531 176.898438 188.878906 182.160156 182.433594 182.160156 Z M 184.476562 165.617188 L 184.476562 175.285156 C 186.410156 174.535156 187.699219 172.601562 187.699219 170.453125 C 187.699219 168.300781 186.410156 166.367188 184.476562 165.617188 Z M 184.476562 165.617188 " fill-opacity="1" fill-rule="evenodd"/><path fill="#1f2937" d="M 185.550781 165.617188 C 185.335938 165.617188 185.011719 165.617188 184.691406 165.507812 C 182.972656 165.078125 182.003906 163.359375 182.433594 161.640625 C 183.1875 158.417969 183.617188 153.476562 183.507812 147.675781 C 183.402344 142.089844 181.144531 137.578125 177.601562 135.859375 C 174.914062 134.460938 171.691406 135.105469 168.253906 137.683594 C 167.394531 138.328125 166.210938 138.4375 165.136719 138.007812 C 164.0625 137.578125 163.3125 136.71875 163.203125 135.535156 C 162.988281 134.355469 162.34375 130.59375 154.609375 130.488281 C 142.148438 130.164062 133.875 132.957031 129.792969 138.867188 C 124.097656 147.136719 128.503906 159.277344 128.824219 160.136719 C 128.824219 160.246094 128.933594 160.351562 128.933594 160.460938 C 129.363281 161.855469 128.933594 163.253906 127.75 164.113281 C 126.570312 164.863281 125.066406 164.863281 123.992188 164.113281 C 123.667969 163.789062 123.238281 163.253906 122.917969 162.5 L 122.808594 162.5 C 122.703125 162.285156 122.703125 162.179688 122.703125 161.964844 C 120.984375 157.773438 119.050781 148.425781 121.84375 140.371094 C 124.527344 132.636719 132.371094 123.394531 154.824219 124.039062 C 162.453125 124.148438 166.210938 127.15625 168.039062 130.273438 C 172.230469 128.339844 176.632812 128.230469 180.394531 130.058594 C 186.085938 132.742188 189.738281 139.511719 189.953125 147.566406 C 190.0625 152.082031 189.847656 158.527344 188.664062 163.253906 C 188.34375 164.648438 186.945312 165.617188 185.550781 165.617188 Z M 185.550781 165.617188 " fill-opacity="1" fill-rule="evenodd"/><path fill="#1f2937" d="M 213.480469 201.175781 C 209.828125 201.175781 206.070312 198.707031 203.707031 194.730469 C 200.375 189.144531 201.128906 182.804688 205.316406 180.226562 C 206.5 179.582031 207.789062 179.261719 209.078125 179.261719 C 212.730469 179.261719 216.492188 181.730469 218.855469 185.707031 C 222.183594 191.292969 221.433594 197.632812 217.242188 200.210938 C 216.167969 200.855469 214.878906 201.175781 213.480469 201.175781 Z M 209.078125 185.707031 C 208.863281 185.707031 208.648438 185.707031 208.648438 185.8125 C 207.894531 186.242188 207.574219 188.714844 209.292969 191.398438 C 210.582031 193.550781 212.40625 194.730469 213.480469 194.730469 C 213.804688 194.730469 213.910156 194.625 213.910156 194.625 C 214.664062 194.195312 214.988281 191.722656 213.375 188.929688 C 212.085938 186.78125 210.257812 185.707031 209.078125 185.707031 Z M 209.078125 185.707031 " fill-opacity="1" fill-rule="evenodd"/><path fill="#1f2937" d="M 257.636719 201.175781 C 256.238281 201.175781 254.949219 200.855469 253.875 200.210938 C 251.726562 198.8125 250.332031 196.34375 250.222656 193.441406 C 250.007812 190.863281 250.761719 188.175781 252.265625 185.707031 C 254.628906 181.730469 258.390625 179.261719 262.042969 179.261719 C 263.332031 179.261719 264.621094 179.582031 265.800781 180.226562 C 267.949219 181.515625 269.347656 183.988281 269.453125 186.996094 C 269.5625 189.464844 268.917969 192.261719 267.414062 194.730469 C 265.050781 198.707031 261.289062 201.175781 257.636719 201.175781 Z M 262.042969 185.707031 C 260.859375 185.707031 259.035156 186.78125 257.746094 188.929688 C 256.992188 190.324219 256.5625 191.832031 256.5625 193.121094 C 256.667969 193.871094 256.882812 194.410156 257.207031 194.625 C 257.207031 194.625 257.3125 194.730469 257.636719 194.730469 C 258.710938 194.730469 260.539062 193.550781 261.828125 191.398438 C 262.6875 190.003906 263.117188 188.605469 263.007812 187.316406 C 263.007812 186.566406 262.792969 185.921875 262.472656 185.8125 C 262.472656 185.707031 262.257812 185.707031 262.042969 185.707031 Z M 262.042969 185.707031 " fill-opacity="1" fill-rule="evenodd"/><path fill="#1f2937" d="M 244.101562 231.148438 C 240.984375 231.148438 237.976562 230.183594 235.613281 228.464844 C 233.140625 230.183594 230.132812 231.148438 227.019531 231.148438 C 219.605469 231.148438 213.695312 225.992188 213.375 219.117188 C 213.050781 214.605469 215.203125 209.664062 219.175781 205.472656 C 223.582031 200.640625 229.703125 197.738281 235.503906 197.632812 C 241.414062 197.738281 247.539062 200.640625 251.941406 205.472656 C 255.917969 209.664062 258.066406 214.605469 257.851562 219.117188 C 257.421875 225.992188 251.511719 231.148438 244.101562 231.148438 Z M 235.613281 220.945312 C 236.472656 220.945312 237.332031 221.265625 237.976562 222.019531 C 239.480469 223.738281 241.738281 224.703125 244.101562 224.703125 C 247.539062 224.703125 251.191406 222.664062 251.40625 218.796875 C 251.511719 216.109375 250.007812 212.671875 247.324219 209.878906 C 243.992188 206.226562 239.589844 204.078125 235.503906 204.078125 C 231.53125 204.078125 227.125 206.226562 223.796875 209.878906 C 221.109375 212.671875 219.605469 216.109375 219.714844 218.796875 C 219.929688 222.664062 223.582031 224.703125 227.019531 224.703125 C 229.382812 224.703125 231.636719 223.738281 233.140625 222.019531 C 233.785156 221.265625 234.644531 220.945312 235.613281 220.945312 Z M 235.613281 220.945312 " fill-opacity="1" fill-rule="evenodd"/><path fill="#1f2937" d="M 235.398438 193.011719 L 235.074219 193.011719 C 232.496094 192.90625 230.132812 191.398438 228.628906 188.820312 C 227.339844 186.671875 226.589844 183.988281 226.695312 181.085938 C 227.019531 174.75 230.992188 169.804688 235.71875 169.804688 L 236.042969 169.804688 C 238.621094 169.914062 240.984375 171.417969 242.488281 173.996094 C 243.777344 176.144531 244.53125 178.9375 244.421875 181.730469 C 244.101562 188.070312 240.125 193.011719 235.398438 193.011719 Z M 235.71875 176.253906 C 234.859375 176.253906 233.355469 178.1875 233.140625 181.300781 C 233.140625 182.914062 233.464844 184.417969 234.109375 185.492188 C 234.539062 186.136719 234.96875 186.566406 235.398438 186.566406 C 236.257812 186.566406 237.761719 184.632812 237.976562 181.515625 C 237.976562 179.90625 237.65625 178.402344 237.011719 177.328125 C 236.582031 176.683594 236.152344 176.253906 235.71875 176.253906 Z M 235.71875 176.253906 " fill-opacity="1" fill-rule="evenodd"/><g clip-path="url(#0d8c11a546)"><path fill="#1f2937" d="M 236.472656 163.359375 C 217.351562 163.359375 201.773438 147.78125 201.773438 128.554688 C 201.773438 109.429688 217.351562 93.851562 236.472656 93.851562 C 255.59375 93.851562 271.171875 109.429688 271.171875 128.554688 C 271.171875 147.78125 255.59375 163.359375 236.472656 163.359375 Z M 236.472656 100.296875 C 220.894531 100.296875 208.21875 112.976562 208.21875 128.554688 C 208.21875 144.128906 220.894531 156.914062 236.472656 156.914062 C 252.050781 156.914062 264.726562 144.128906 264.726562 128.554688 C 264.726562 112.976562 252.050781 100.296875 236.472656 100.296875 Z M 236.472656 100.296875 " fill-opacity="1" fill-rule="evenodd"/></g><path fill="#1f2937" d="M 236.472656 151.4375 C 231.636719 151.4375 227.769531 147.566406 227.769531 142.734375 L 227.769531 137.253906 L 222.292969 137.253906 C 217.457031 137.253906 213.589844 133.386719 213.589844 128.554688 C 213.589844 123.824219 217.457031 119.851562 222.292969 119.851562 L 227.769531 119.851562 L 227.769531 114.371094 C 227.769531 109.644531 231.636719 105.667969 236.472656 105.667969 C 241.308594 105.667969 245.175781 109.644531 245.175781 114.371094 L 245.175781 119.851562 L 250.652344 119.851562 C 255.488281 119.851562 259.355469 123.824219 259.355469 128.554688 C 259.355469 133.386719 255.488281 137.253906 250.652344 137.253906 L 245.175781 137.253906 L 245.175781 142.734375 C 245.175781 147.566406 241.308594 151.4375 236.472656 151.4375 Z M 222.292969 126.296875 C 221.003906 126.296875 220.035156 127.371094 220.035156 128.554688 C 220.035156 129.84375 221.003906 130.808594 222.292969 130.808594 L 230.992188 130.808594 C 232.820312 130.808594 234.214844 132.3125 234.214844 134.03125 L 234.214844 142.734375 C 234.214844 144.023438 235.183594 144.988281 236.472656 144.988281 C 237.761719 144.988281 238.730469 144.023438 238.730469 142.734375 L 238.730469 134.03125 C 238.730469 132.3125 240.234375 130.808594 241.953125 130.808594 L 250.652344 130.808594 C 251.941406 130.808594 252.910156 129.84375 252.910156 128.554688 C 252.910156 127.371094 251.941406 126.296875 250.652344 126.296875 L 241.953125 126.296875 C 240.234375 126.296875 238.730469 124.898438 238.730469 123.074219 L 238.730469 114.371094 C 238.730469 113.191406 237.761719 112.117188 236.472656 112.117188 C 235.183594 112.117188 234.214844 113.191406 234.214844 114.371094 L 234.214844 123.074219 C 234.214844 124.898438 232.820312 126.296875 230.992188 126.296875 Z M 222.292969 126.296875 " fill-opacity="1" fill-rule="evenodd"/></svg>