<svg xmlns="http://www.w3.org/2000/svg" xmlns:xlink="http://www.w3.org/1999/xlink" width="500" zoomAndPan="magnify" viewBox="0 0 375 374.999991" height="500" preserveAspectRatio="xMidYMid meet" version="1.0"><defs><clipPath id="862028f1a0"><path d="M 12.421875 247 L 242 247 L 242 375 L 12.421875 375 Z M 12.421875 247 " clip-rule="nonzero"/></clipPath><clipPath id="f702af6da9"><path d="M 220 0 L 362.671875 0 L 362.671875 143 L 220 143 Z M 220 0 " clip-rule="nonzero"/></clipPath></defs><g clip-path="url(#862028f1a0)"><path fill="#1f2937" d="M 234.507812 374.988281 L 19.011719 374.988281 C 15.496094 374.988281 12.421875 371.914062 12.421875 368.398438 L 12.421875 302.9375 C 12.421875 286.460938 18.792969 265.152344 36.804688 259.003906 L 67.777344 248.238281 C 71.074219 247.140625 74.808594 248.898438 76.125 252.414062 C 77.226562 255.707031 75.46875 259.660156 71.953125 260.761719 L 41.199219 271.304688 C 30.433594 275.039062 25.601562 290.195312 25.601562 302.9375 L 25.601562 361.808594 L 227.917969 361.808594 L 227.917969 302.9375 C 227.917969 290.195312 223.085938 275.039062 212.542969 271.304688 L 181.789062 260.761719 C 178.273438 259.660156 176.515625 255.707031 177.613281 252.414062 C 178.933594 248.898438 182.667969 247.140625 185.960938 248.238281 L 216.9375 259.003906 C 234.730469 265.152344 241.101562 286.460938 241.101562 302.9375 L 241.101562 368.398438 C 241.101562 371.914062 238.242188 374.988281 234.507812 374.988281 Z M 234.507812 374.988281 " fill-opacity="1" fill-rule="evenodd"/></g><path fill="#1f2937" d="M 101.390625 374.988281 C 98.753906 374.988281 96.335938 373.453125 95.238281 371.035156 L 65.800781 302.496094 C 62.945312 296.128906 58.773438 286.460938 66.898438 276.355469 L 71.511719 270.425781 L 70.195312 268.886719 C 66.242188 263.394531 61.628906 256.367188 63.164062 248.898438 C 63.605469 245.824219 65.582031 241.429688 71.292969 237.914062 L 86.890625 228.25 L 86.890625 212.871094 C 86.890625 209.136719 89.964844 206.28125 93.480469 206.28125 C 97.214844 206.28125 100.070312 209.136719 100.070312 212.871094 L 100.070312 231.984375 C 100.070312 234.179688 98.972656 236.375 96.996094 237.476562 L 78.105469 249.117188 C 77.226562 249.558594 76.125 250.4375 76.125 251.316406 C 75.90625 252.191406 76.347656 254.828125 80.738281 260.980469 L 85.132812 266.691406 C 86.890625 269.109375 86.890625 272.402344 84.914062 274.820312 L 77.003906 284.484375 C 74.589844 287.78125 74.589844 289.976562 77.882812 297.445312 L 107.539062 365.761719 C 108.859375 369.058594 107.320312 373.011719 104.023438 374.332031 C 103.144531 374.769531 102.265625 374.988281 101.390625 374.988281 Z M 101.390625 374.988281 " fill-opacity="1" fill-rule="evenodd"/><path fill="#1f2937" d="M 126.871094 374.988281 C 123.796875 374.988281 121.160156 372.792969 120.5 369.9375 L 87.109375 233.519531 C 86.230469 230.007812 88.429688 226.273438 91.941406 225.394531 C 95.457031 224.515625 99.191406 226.710938 100.070312 230.226562 L 133.242188 366.863281 C 134.121094 370.375 131.921875 373.890625 128.410156 374.769531 C 127.96875 374.769531 127.308594 374.988281 126.871094 374.988281 Z M 126.871094 374.988281 " fill-opacity="1" fill-rule="evenodd"/><path fill="#1f2937" d="M 126.871094 283.605469 C 119.621094 283.605469 112.59375 280.96875 100.070312 275.476562 C 96.777344 274.160156 95.238281 270.207031 96.777344 266.910156 C 98.09375 263.617188 102.046875 262.078125 105.34375 263.394531 C 126.871094 272.84375 126.871094 272.84375 148.398438 263.394531 C 151.695312 262.078125 155.648438 263.617188 156.964844 266.910156 C 158.503906 270.207031 156.964844 274.160156 153.671875 275.476562 C 141.148438 280.96875 134.121094 283.605469 126.871094 283.605469 Z M 126.871094 283.605469 " fill-opacity="1" fill-rule="evenodd"/><path fill="#1f2937" d="M 152.351562 374.988281 C 151.472656 374.988281 150.59375 374.769531 149.714844 374.332031 C 146.421875 373.011719 144.882812 369.058594 146.203125 365.761719 L 175.855469 297.445312 C 179.152344 289.976562 179.152344 287.78125 176.515625 284.484375 L 168.609375 274.820312 C 166.851562 272.402344 166.632812 269.109375 168.609375 266.691406 L 172.78125 260.980469 C 177.394531 254.828125 177.835938 252.191406 177.613281 251.316406 C 177.394531 250.4375 176.515625 249.558594 175.636719 249.117188 L 156.746094 237.476562 C 154.769531 236.375 153.449219 234.179688 153.449219 231.984375 L 153.449219 212.871094 C 153.449219 209.136719 156.527344 206.28125 160.042969 206.28125 C 163.777344 206.28125 166.632812 209.136719 166.632812 212.871094 L 166.632812 228.25 L 182.449219 237.914062 C 188.160156 241.429688 189.917969 245.824219 190.574219 248.898438 C 191.894531 256.367188 187.5 263.394531 183.328125 268.886719 L 182.226562 270.425781 L 186.839844 276.355469 C 194.96875 286.460938 190.796875 296.128906 187.9375 302.496094 L 158.285156 371.035156 C 157.183594 373.453125 154.769531 374.988281 152.351562 374.988281 Z M 152.351562 374.988281 " fill-opacity="1" fill-rule="evenodd"/><path fill="#1f2937" d="M 126.871094 374.988281 C 126.429688 374.988281 125.773438 374.769531 125.332031 374.769531 C 121.816406 373.890625 119.621094 370.375 120.5 366.863281 L 153.671875 230.226562 C 154.550781 226.710938 158.0625 224.515625 161.578125 225.394531 C 165.3125 226.273438 167.289062 230.007812 166.632812 233.519531 L 133.242188 369.9375 C 132.582031 372.792969 129.726562 374.988281 126.871094 374.988281 Z M 126.871094 374.988281 " fill-opacity="1" fill-rule="evenodd"/><path fill="#1f2937" d="M 47.789062 374.988281 C 44.054688 374.988281 41.199219 371.914062 41.199219 368.398438 L 41.199219 324.027344 C 41.199219 320.511719 44.054688 317.4375 47.789062 317.4375 C 51.304688 317.4375 54.378906 320.511719 54.378906 324.027344 L 54.378906 368.398438 C 54.378906 371.914062 51.304688 374.988281 47.789062 374.988281 Z M 47.789062 374.988281 " fill-opacity="1" fill-rule="evenodd"/><path fill="#1f2937" d="M 205.953125 374.988281 C 202.4375 374.988281 199.363281 371.914062 199.363281 368.398438 L 199.363281 324.027344 C 199.363281 320.511719 202.4375 317.4375 205.953125 317.4375 C 209.6875 317.4375 212.542969 320.511719 212.542969 324.027344 L 212.542969 368.398438 C 212.542969 371.914062 209.6875 374.988281 205.953125 374.988281 Z M 205.953125 374.988281 " fill-opacity="1" fill-rule="evenodd"/><path fill="#1f2937" d="M 126.871094 230.664062 C 97.875 230.664062 68.21875 210.234375 68.21875 171.355469 L 68.4375 139.28125 C 68.4375 137.304688 69.097656 135.546875 70.636719 134.230469 C 71.953125 133.132812 73.929688 132.472656 75.6875 132.691406 C 79.640625 133.132812 83.59375 133.570312 87.550781 133.570312 C 122.695312 133.570312 138.074219 111.382812 138.292969 111.164062 C 139.613281 109.1875 141.808594 108.089844 144.003906 108.308594 C 146.421875 108.308594 148.398438 109.625 149.496094 111.601562 C 149.496094 111.824219 161.796875 133.570312 178.492188 132.691406 C 180.25 132.472656 182.007812 133.132812 183.328125 134.449219 C 184.644531 135.765625 185.304688 137.523438 185.304688 139.28125 L 185.304688 171.355469 C 185.304688 210.234375 155.867188 230.664062 126.871094 230.664062 Z M 81.617188 146.53125 L 81.617188 171.355469 C 81.617188 202.988281 105.125 217.484375 126.871094 217.484375 C 148.617188 217.484375 172.121094 202.988281 172.121094 171.355469 L 172.121094 145.433594 C 158.722656 143.234375 148.617188 132.910156 142.90625 125.664062 C 134.339844 134.011719 116.546875 146.75 87.550781 146.75 C 85.574219 146.75 83.59375 146.53125 81.617188 146.53125 Z M 81.617188 146.53125 " fill-opacity="1" fill-rule="evenodd"/><path fill="#1f2937" d="M 75.027344 180.582031 L 72.613281 180.582031 C 59.429688 180.582031 48.667969 169.816406 48.667969 156.636719 C 48.667969 143.457031 59.429688 132.691406 72.613281 132.691406 L 75.027344 132.691406 C 78.542969 132.691406 81.617188 135.546875 81.617188 139.28125 L 81.617188 173.988281 C 81.617188 177.722656 78.542969 180.582031 75.027344 180.582031 Z M 68.4375 146.75 C 64.484375 148.289062 61.847656 152.242188 61.847656 156.636719 C 61.847656 161.03125 64.484375 164.984375 68.4375 166.519531 Z M 68.4375 146.75 " fill-opacity="1" fill-rule="evenodd"/><path fill="#1f2937" d="M 181.128906 180.582031 L 178.714844 180.582031 C 175.199219 180.582031 172.121094 177.722656 172.121094 173.988281 L 172.121094 139.28125 C 172.121094 135.546875 175.199219 132.691406 178.714844 132.691406 L 181.128906 132.691406 C 194.308594 132.691406 205.074219 143.457031 205.074219 156.636719 C 205.074219 169.816406 194.308594 180.582031 181.128906 180.582031 Z M 185.304688 146.75 L 185.304688 166.519531 C 189.257812 164.984375 191.894531 161.03125 191.894531 156.636719 C 191.894531 152.242188 189.257812 148.289062 185.304688 146.75 Z M 185.304688 146.75 " fill-opacity="1" fill-rule="evenodd"/><path fill="#1f2937" d="M 187.5 146.75 C 187.0625 146.75 186.402344 146.75 185.742188 146.53125 C 182.226562 145.652344 180.25 142.136719 181.128906 138.625 C 182.667969 132.03125 183.546875 121.929688 183.328125 110.066406 C 183.105469 98.644531 178.492188 89.417969 171.246094 85.902344 C 165.753906 83.046875 159.164062 84.363281 152.132812 89.636719 C 150.375 90.953125 147.960938 91.175781 145.761719 90.296875 C 143.566406 89.417969 142.027344 87.660156 141.808594 85.242188 C 141.367188 82.828125 140.050781 75.136719 124.234375 74.917969 C 98.753906 74.257812 81.839844 79.972656 73.492188 92.054688 C 61.847656 108.96875 70.855469 133.789062 71.511719 135.546875 C 71.511719 135.765625 71.734375 135.988281 71.734375 136.207031 C 72.613281 139.0625 71.734375 141.917969 69.316406 143.675781 C 66.898438 145.214844 63.824219 145.214844 61.628906 143.675781 C 60.96875 143.015625 60.089844 141.917969 59.429688 140.378906 L 59.210938 140.378906 C 58.992188 139.941406 58.992188 139.722656 58.992188 139.28125 C 55.476562 130.714844 51.523438 111.601562 57.234375 95.128906 C 62.726562 79.3125 78.761719 60.421875 124.675781 61.738281 C 140.269531 61.957031 147.960938 68.109375 151.695312 74.480469 C 160.261719 70.523438 169.265625 70.304688 176.957031 74.039062 C 188.597656 79.53125 196.066406 93.371094 196.507812 109.847656 C 196.726562 119.074219 196.285156 132.253906 193.871094 141.917969 C 193.210938 144.773438 190.355469 146.75 187.5 146.75 Z M 187.5 146.75 " fill-opacity="1" fill-rule="evenodd"/><path fill="#1f2937" d="M 244.613281 219.460938 C 237.144531 219.460938 229.457031 214.410156 224.625 206.28125 C 217.816406 194.859375 219.351562 181.898438 227.917969 176.625 C 230.335938 175.308594 232.972656 174.648438 235.609375 174.648438 C 243.078125 174.648438 250.765625 179.703125 255.597656 187.828125 C 262.40625 199.253906 260.871094 212.214844 252.304688 217.484375 C 250.105469 218.804688 247.46875 219.460938 244.613281 219.460938 Z M 235.609375 187.828125 C 235.167969 187.828125 234.730469 187.828125 234.730469 188.050781 C 233.191406 188.929688 232.53125 193.980469 236.046875 199.472656 C 238.683594 203.867188 242.417969 206.28125 244.613281 206.28125 C 245.273438 206.28125 245.492188 206.0625 245.492188 206.0625 C 247.03125 205.183594 247.691406 200.132812 244.394531 194.417969 C 241.757812 190.027344 238.023438 187.828125 235.609375 187.828125 Z M 235.609375 187.828125 " fill-opacity="1" fill-rule="evenodd"/><path fill="#1f2937" d="M 334.898438 219.460938 C 332.042969 219.460938 329.40625 218.804688 327.210938 217.484375 C 322.816406 214.628906 319.960938 209.578125 319.742188 203.644531 C 319.304688 198.375 320.839844 192.882812 323.914062 187.828125 C 328.75 179.703125 336.4375 174.648438 343.90625 174.648438 C 346.542969 174.648438 349.179688 175.308594 351.59375 176.625 C 355.988281 179.261719 358.84375 184.316406 359.0625 190.464844 C 359.28125 195.519531 357.964844 201.230469 354.890625 206.28125 C 350.058594 214.410156 342.367188 219.460938 334.898438 219.460938 Z M 343.90625 187.828125 C 341.488281 187.828125 337.753906 190.027344 335.121094 194.417969 C 333.582031 197.273438 332.703125 200.351562 332.703125 202.988281 C 332.921875 204.523438 333.363281 205.621094 334.019531 206.0625 C 334.019531 206.0625 334.242188 206.28125 334.898438 206.28125 C 337.097656 206.28125 340.832031 203.867188 343.464844 199.472656 C 345.222656 196.617188 346.101562 193.761719 345.882812 191.125 C 345.882812 189.585938 345.445312 188.269531 344.785156 188.050781 C 344.785156 187.828125 344.34375 187.828125 343.90625 187.828125 Z M 343.90625 187.828125 " fill-opacity="1" fill-rule="evenodd"/><path fill="#1f2937" d="M 307.222656 280.75 C 300.851562 280.75 294.699219 278.773438 289.867188 275.257812 C 284.8125 278.773438 278.664062 280.75 272.292969 280.75 C 257.136719 280.75 245.054688 270.207031 244.394531 256.148438 C 243.734375 246.921875 248.128906 236.816406 256.257812 228.25 C 265.261719 218.363281 277.785156 212.433594 289.648438 212.214844 C 301.730469 212.433594 314.25 218.363281 323.257812 228.25 C 331.382812 236.816406 335.777344 246.921875 335.339844 256.148438 C 334.460938 270.207031 322.378906 280.75 307.222656 280.75 Z M 289.867188 259.882812 C 291.625 259.882812 293.382812 260.539062 294.699219 262.078125 C 297.773438 265.59375 302.386719 267.570312 307.222656 267.570312 C 314.25 267.570312 321.71875 263.394531 322.160156 255.488281 C 322.378906 249.996094 319.304688 242.96875 313.8125 237.253906 C 307 229.785156 297.996094 225.394531 289.648438 225.394531 C 281.519531 225.394531 272.511719 229.785156 265.703125 237.253906 C 260.210938 242.96875 257.136719 249.996094 257.355469 255.488281 C 257.792969 263.394531 265.261719 267.570312 272.292969 267.570312 C 277.125 267.570312 281.738281 265.59375 284.8125 262.078125 C 286.132812 260.539062 287.890625 259.882812 289.867188 259.882812 Z M 289.867188 259.882812 " fill-opacity="1" fill-rule="evenodd"/><path fill="#1f2937" d="M 289.425781 202.765625 L 288.769531 202.765625 C 283.496094 202.546875 278.664062 199.472656 275.589844 194.199219 C 272.953125 189.804688 271.414062 184.316406 271.632812 178.382812 C 272.292969 165.421875 280.421875 155.316406 290.085938 155.316406 L 290.746094 155.316406 C 296.019531 155.539062 300.851562 158.613281 303.925781 163.886719 C 306.5625 168.277344 308.097656 173.988281 307.878906 179.703125 C 307.222656 192.664062 299.09375 202.765625 289.425781 202.765625 Z M 290.085938 168.5 C 288.328125 168.5 285.253906 172.453125 284.8125 178.824219 C 284.8125 182.117188 285.472656 185.195312 286.792969 187.390625 C 287.671875 188.707031 288.550781 189.585938 289.425781 189.585938 C 291.183594 189.585938 294.261719 185.632812 294.699219 179.261719 C 294.699219 175.96875 294.039062 172.890625 292.722656 170.695312 C 291.84375 169.378906 290.964844 168.5 290.085938 168.5 Z M 290.085938 168.5 " fill-opacity="1" fill-rule="evenodd"/><g clip-path="url(#f702af6da9)"><path fill="#1f2937" d="M 291.625 142.136719 C 252.523438 142.136719 220.671875 110.285156 220.671875 70.964844 C 220.671875 31.863281 252.523438 0.0117188 291.625 0.0117188 C 330.726562 0.0117188 362.578125 31.863281 362.578125 70.964844 C 362.578125 110.285156 330.726562 142.136719 291.625 142.136719 Z M 291.625 13.191406 C 259.773438 13.191406 233.851562 39.113281 233.851562 70.964844 C 233.851562 102.816406 259.773438 128.957031 291.625 128.957031 C 323.476562 128.957031 349.398438 102.816406 349.398438 70.964844 C 349.398438 39.113281 323.476562 13.191406 291.625 13.191406 Z M 291.625 13.191406 " fill-opacity="1" fill-rule="evenodd"/></g><path fill="#1f2937" d="M 291.625 117.753906 C 281.738281 117.753906 273.832031 109.847656 273.832031 99.960938 L 273.832031 88.757812 L 262.628906 88.757812 C 252.742188 88.757812 244.835938 80.847656 244.835938 70.964844 C 244.835938 61.296875 252.742188 53.171875 262.628906 53.171875 L 273.832031 53.171875 L 273.832031 41.96875 C 273.832031 32.300781 281.738281 24.175781 291.625 24.175781 C 301.507812 24.175781 309.417969 32.300781 309.417969 41.96875 L 309.417969 53.171875 L 320.621094 53.171875 C 330.507812 53.171875 338.414062 61.296875 338.414062 70.964844 C 338.414062 80.847656 330.507812 88.757812 320.621094 88.757812 L 309.417969 88.757812 L 309.417969 99.960938 C 309.417969 109.847656 301.507812 117.753906 291.625 117.753906 Z M 262.628906 66.351562 C 259.992188 66.351562 258.015625 68.546875 258.015625 70.964844 C 258.015625 73.601562 259.992188 75.578125 262.628906 75.578125 L 280.421875 75.578125 C 284.15625 75.578125 287.011719 78.652344 287.011719 82.167969 L 287.011719 99.960938 C 287.011719 102.597656 288.988281 104.574219 291.625 104.574219 C 294.261719 104.574219 296.238281 102.597656 296.238281 99.960938 L 296.238281 82.167969 C 296.238281 78.652344 299.3125 75.578125 302.828125 75.578125 L 320.621094 75.578125 C 323.257812 75.578125 325.234375 73.601562 325.234375 70.964844 C 325.234375 68.546875 323.257812 66.351562 320.621094 66.351562 L 302.828125 66.351562 C 299.3125 66.351562 296.238281 63.496094 296.238281 59.761719 L 296.238281 41.96875 C 296.238281 39.550781 294.261719 37.355469 291.625 37.355469 C 288.988281 37.355469 287.011719 39.550781 287.011719 41.96875 L 287.011719 59.761719 C 287.011719 63.496094 284.15625 66.351562 280.421875 66.351562 Z M 262.628906 66.351562 " fill-opacity="1" fill-rule="evenodd"/></svg>