<svg xmlns="http://www.w3.org/2000/svg" xmlns:xlink="http://www.w3.org/1999/xlink" width="500" zoomAndPan="magnify" viewBox="0 0 375 374.999991" height="500" preserveAspectRatio="xMidYMid meet" version="1.0"><defs><clipPath id="39c20e6fd7"><path d="M 47 257 L 132 257 L 132 340.734375 L 47 340.734375 Z M 47 257 " clip-rule="nonzero"/></clipPath><clipPath id="bd47ab5588"><path d="M 227 257 L 312 257 L 312 340.734375 L 227 340.734375 Z M 227 257 " clip-rule="nonzero"/></clipPath><clipPath id="6b839c2cea"><path d="M 212 33.984375 L 225 33.984375 L 225 69 L 212 69 Z M 212 33.984375 " clip-rule="nonzero"/></clipPath></defs><path fill="#1f2937" d="M 102.617188 188.21875 C 87.429688 188.21875 75.113281 198.851562 75.113281 211.839844 C 75.113281 224.832031 87.429688 235.464844 102.617188 235.464844 C 117.804688 235.464844 130.121094 224.832031 130.121094 211.839844 C 130.132812 198.765625 117.804688 188.21875 102.617188 188.21875 Z M 102.617188 246.769531 C 81.191406 246.769531 63.722656 231.078125 63.722656 211.753906 C 63.722656 192.429688 81.191406 176.738281 102.617188 176.738281 C 124.042969 176.738281 141.515625 192.429688 141.515625 211.753906 C 141.515625 231.078125 124.054688 246.769531 102.617188 246.769531 Z M 102.617188 246.769531 " fill-opacity="1" fill-rule="evenodd"/><path fill="#1f2937" d="M 102.617188 142.398438 C 99.585938 142.398438 97.042969 145.945312 97.042969 150.15625 C 97.042969 154.382812 99.574219 157.917969 102.617188 157.917969 C 105.660156 157.917969 108.191406 154.371094 108.191406 150.15625 C 108.191406 145.945312 105.660156 142.398438 102.617188 142.398438 Z M 102.617188 169.234375 C 93.25 169.234375 85.660156 160.628906 85.660156 150.167969 C 85.660156 139.621094 93.25 131.015625 102.617188 131.015625 C 111.984375 131.015625 119.574219 139.621094 119.574219 150.167969 C 119.585938 160.714844 111.984375 169.234375 102.617188 169.234375 Z M 102.617188 169.234375 " fill-opacity="1" fill-rule="evenodd"/><path fill="#1f2937" d="M 64.234375 157.585938 C 61.203125 157.585938 58.664062 161.132812 58.664062 165.34375 C 58.664062 169.570312 61.191406 173.105469 64.234375 173.105469 C 67.269531 173.105469 69.808594 169.558594 69.808594 165.34375 C 69.882812 161.132812 67.269531 157.585938 64.234375 157.585938 Z M 64.234375 184.425781 C 54.867188 184.425781 47.28125 175.816406 47.28125 165.355469 C 47.28125 154.808594 54.867188 146.203125 64.234375 146.203125 C 73.605469 146.203125 81.191406 154.808594 81.191406 165.355469 C 81.191406 175.816406 73.59375 184.425781 64.234375 184.425781 Z M 64.234375 184.425781 " fill-opacity="1" fill-rule="evenodd"/><path fill="#1f2937" d="M 142.703125 157.585938 C 139.671875 157.585938 137.128906 161.132812 137.128906 165.34375 C 137.128906 169.570312 139.660156 173.105469 142.703125 173.105469 C 145.738281 173.105469 148.277344 169.558594 148.277344 165.34375 C 148.265625 161.132812 145.738281 157.585938 142.703125 157.585938 Z M 142.703125 184.425781 C 133.335938 184.425781 125.746094 175.816406 125.746094 165.355469 C 125.746094 154.808594 133.335938 146.203125 142.703125 146.203125 C 152.070312 146.203125 159.660156 154.808594 159.660156 165.355469 C 159.660156 175.816406 152.058594 184.425781 142.703125 184.425781 Z M 142.703125 184.425781 " fill-opacity="1" fill-rule="evenodd"/><path fill="#1f2937" d="M 233.316406 305.066406 L 125.320312 305.066406 C 122.199219 305.066406 119.671875 302.539062 119.671875 299.417969 C 119.671875 296.300781 122.199219 293.769531 125.320312 293.769531 L 233.316406 293.769531 C 236.433594 293.769531 238.964844 296.300781 238.964844 299.417969 C 239.046875 302.539062 236.433594 305.066406 233.316406 305.066406 Z M 335.320312 305.066406 C 357.171875 305.066406 374.890625 287.351562 374.890625 265.496094 L 374.890625 226.941406 C 374.890625 214.113281 366.539062 203.148438 354.140625 199.6875 L 336.335938 194.789062 C 331.953125 193.523438 328.664062 191.078125 326.292969 187.113281 L 288.074219 122.65625 C 282.84375 113.878906 273.980469 108.816406 263.777344 108.816406 L 34.621094 108.816406 C 15.554688 108.816406 0.109375 124.339844 0.109375 143.332031 L 0.109375 270.566406 C 0.109375 289.632812 15.628906 305.078125 34.621094 305.078125 L 53.433594 305.078125 C 56.550781 305.078125 59.082031 302.546875 59.082031 299.429688 C 59.082031 296.308594 56.550781 293.78125 53.433594 293.78125 L 34.621094 293.78125 C 21.878906 293.78125 11.417969 283.40625 11.417969 270.574219 L 11.417969 143.332031 C 11.417969 130.585938 21.792969 120.125 34.621094 120.125 L 263.777344 120.125 C 270.023438 120.125 275.167969 123.085938 278.289062 128.390625 L 316.507812 192.847656 C 320.386719 199.34375 325.960938 203.652344 333.304688 205.679688 L 351.105469 210.574219 C 358.535156 212.601562 363.507812 219.183594 363.507812 226.855469 L 363.507812 265.410156 C 363.507812 280.929688 350.847656 293.589844 335.328125 293.589844 L 305.296875 293.589844 C 302.179688 293.589844 299.648438 296.117188 299.648438 299.238281 C 299.648438 302.355469 302.179688 304.886719 305.296875 304.886719 L 335.320312 304.886719 Z M 335.320312 305.066406 " fill-opacity="1" fill-rule="evenodd"/><path fill="#1f2937" d="M 206.90625 200.199219 L 281.492188 200.199219 L 254.074219 154.046875 L 206.914062 154.046875 Z M 291.449219 211.507812 L 201.257812 211.507812 C 198.136719 211.507812 195.609375 208.980469 195.609375 205.859375 L 195.609375 148.316406 C 195.609375 145.195312 198.136719 142.667969 201.257812 142.667969 L 257.367188 142.667969 C 259.390625 142.667969 261.246094 143.757812 262.265625 145.453125 L 296.433594 203 C 297.441406 204.765625 297.527344 206.964844 296.519531 208.734375 C 295.414062 210.40625 293.476562 211.507812 291.449219 211.507812 Z M 291.449219 211.507812 " fill-opacity="1" fill-rule="evenodd"/><path fill="#1f2937" d="M 369.242188 249.976562 L 345.199219 249.976562 C 334.65625 249.976562 326.132812 241.453125 326.132812 230.910156 L 326.132812 199.183594 C 326.132812 196.0625 328.664062 193.535156 331.78125 193.535156 C 334.902344 193.535156 337.429688 196.0625 337.429688 199.183594 L 337.429688 230.910156 C 337.429688 235.132812 340.890625 238.667969 345.191406 238.667969 L 369.230469 238.667969 C 372.351562 238.667969 374.878906 241.199219 374.878906 244.316406 C 374.890625 247.445312 372.359375 249.976562 369.242188 249.976562 Z M 369.242188 249.976562 " fill-opacity="1" fill-rule="evenodd"/><g clip-path="url(#39c20e6fd7)"><path fill="#1f2937" d="M 89.371094 269.042969 C 72.660156 269.042969 59.082031 282.625 59.082031 299.332031 C 59.082031 316.042969 72.660156 329.621094 89.371094 329.621094 C 106.078125 329.621094 119.660156 316.042969 119.660156 299.332031 C 119.671875 282.632812 106.078125 269.042969 89.371094 269.042969 Z M 89.371094 341.015625 C 66.421875 341.015625 47.6875 322.28125 47.6875 299.332031 C 47.6875 276.386719 66.421875 257.648438 89.371094 257.648438 C 112.316406 257.648438 131.054688 276.386719 131.054688 299.332031 C 131.054688 322.367188 112.328125 341.015625 89.371094 341.015625 Z M 89.371094 341.015625 " fill-opacity="1" fill-rule="evenodd"/></g><g clip-path="url(#bd47ab5588)"><path fill="#1f2937" d="M 269.339844 269.042969 C 252.628906 269.042969 239.046875 282.625 239.046875 299.332031 C 239.046875 316.042969 252.628906 329.621094 269.339844 329.621094 C 286.046875 329.621094 299.628906 316.042969 299.628906 299.332031 C 299.628906 282.632812 286.046875 269.042969 269.339844 269.042969 Z M 269.339844 341.015625 C 246.390625 341.015625 227.65625 322.28125 227.65625 299.332031 C 227.65625 276.386719 246.390625 257.648438 269.339844 257.648438 C 292.285156 257.648438 311.019531 276.386719 311.019531 299.332031 C 311.019531 322.367188 292.285156 341.015625 269.339844 341.015625 Z M 269.339844 341.015625 " fill-opacity="1" fill-rule="evenodd"/></g><path fill="#1f2937" d="M 269.339844 290.984375 C 264.695312 290.984375 260.988281 294.777344 260.988281 299.332031 C 260.988281 303.972656 264.78125 307.683594 269.339844 307.683594 C 273.980469 307.683594 277.6875 303.886719 277.6875 299.332031 C 277.699219 294.777344 273.980469 290.984375 269.339844 290.984375 Z M 269.339844 319.160156 C 258.460938 319.160156 249.59375 310.296875 249.59375 299.417969 C 249.59375 288.539062 258.460938 279.675781 269.339844 279.675781 C 280.21875 279.675781 289.082031 288.539062 289.082031 299.417969 C 289.082031 310.308594 280.226562 319.160156 269.339844 319.160156 Z M 269.339844 319.160156 " fill-opacity="1" fill-rule="evenodd"/><path fill="#1f2937" d="M 89.371094 290.984375 C 84.730469 290.984375 81.019531 294.777344 81.019531 299.332031 C 81.019531 303.972656 84.816406 307.683594 89.371094 307.683594 C 94.011719 307.683594 97.71875 303.886719 97.71875 299.332031 C 97.71875 294.777344 94.011719 290.984375 89.371094 290.984375 Z M 89.371094 319.160156 C 78.492188 319.160156 69.628906 310.296875 69.628906 299.417969 C 69.628906 288.539062 78.492188 279.675781 89.371094 279.675781 C 100.25 279.675781 109.113281 288.539062 109.113281 299.417969 C 109.125 310.308594 100.261719 319.160156 89.371094 319.160156 Z M 89.371094 319.160156 " fill-opacity="1" fill-rule="evenodd"/><path fill="#1f2937" d="M 226.058594 232.761719 L 201.257812 232.761719 C 198.136719 232.761719 195.609375 230.234375 195.609375 227.113281 C 195.609375 223.996094 198.136719 221.464844 201.257812 221.464844 L 226.058594 221.464844 C 229.175781 221.464844 231.707031 223.996094 231.707031 227.113281 C 231.792969 230.234375 229.175781 232.761719 226.058594 232.761719 Z M 226.058594 232.761719 " fill-opacity="1" fill-rule="evenodd"/><path fill="#1f2937" d="M 236.1875 120.125 C 233.066406 120.125 230.539062 117.597656 230.539062 114.476562 L 230.539062 96.503906 C 230.539062 90.007812 225.222656 84.691406 218.726562 84.691406 C 212.230469 84.691406 206.914062 90.007812 206.914062 96.503906 L 206.914062 114.476562 C 206.914062 117.597656 204.386719 120.125 201.265625 120.125 C 198.148438 120.125 195.617188 117.597656 195.617188 114.476562 L 195.617188 96.503906 C 195.617188 83.757812 205.996094 73.296875 218.824219 73.296875 C 231.566406 73.296875 242.027344 83.671875 242.027344 96.503906 L 242.027344 114.476562 C 241.921875 117.597656 239.390625 120.125 236.1875 120.125 Z M 236.1875 120.125 " fill-opacity="1" fill-rule="evenodd"/><g clip-path="url(#6b839c2cea)"><path fill="#1f2937" d="M 218.46875 68.742188 C 215.351562 68.742188 212.820312 66.214844 212.820312 63.09375 L 212.820312 39.632812 C 212.820312 36.515625 215.351562 33.984375 218.46875 33.984375 C 221.589844 33.984375 224.117188 36.515625 224.117188 39.632812 L 224.117188 63.085938 C 224.203125 66.214844 221.675781 68.742188 218.46875 68.742188 Z M 218.46875 68.742188 " fill-opacity="1" fill-rule="evenodd"/></g><path fill="#1f2937" d="M 198.46875 68.742188 C 197.539062 68.742188 196.53125 68.484375 195.597656 67.980469 L 175.265625 56.257812 C 172.5625 54.648438 171.640625 51.199219 173.152344 48.496094 C 174.761719 45.796875 178.210938 44.875 180.914062 46.386719 L 201.246094 58.109375 C 203.945312 59.71875 204.867188 63.167969 203.359375 65.871094 C 202.351562 67.734375 200.410156 68.742188 198.46875 68.742188 Z M 198.46875 68.742188 " fill-opacity="1" fill-rule="evenodd"/><path fill="#1f2937" d="M 238.546875 68.742188 C 236.605469 68.742188 234.664062 67.734375 233.648438 65.871094 C 232.039062 63.167969 232.972656 59.707031 235.757812 58.109375 L 256.089844 46.386719 C 258.792969 44.777344 262.253906 45.710938 263.851562 48.496094 C 265.457031 51.199219 264.527344 54.660156 261.738281 56.257812 L 241.40625 67.980469 C 240.484375 68.496094 239.476562 68.742188 238.546875 68.742188 Z M 238.546875 68.742188 " fill-opacity="1" fill-rule="evenodd"/></svg>