<svg xmlns="http://www.w3.org/2000/svg" xmlns:xlink="http://www.w3.org/1999/xlink" width="500" zoomAndPan="magnify" viewBox="0 0 375 374.999991" height="500" preserveAspectRatio="xMidYMid meet" version="1.0"><defs><clipPath id="e6651e0f0e"><path d="M 94.65625 147 L 276.15625 147 L 276.15625 243 L 94.65625 243 Z M 94.65625 147 " clip-rule="nonzero"/></clipPath><clipPath id="1949fe0766"><path d="M 252 188 L 276.15625 188 L 276.15625 216 L 252 216 Z M 252 188 " clip-rule="nonzero"/></clipPath><clipPath id="16e520abb6"><path d="M 117 219 L 159 219 L 159 259.628906 L 117 259.628906 Z M 117 219 " clip-rule="nonzero"/></clipPath><clipPath id="7f20173702"><path d="M 205 219 L 246 219 L 246 259.628906 L 205 259.628906 Z M 205 219 " clip-rule="nonzero"/></clipPath><clipPath id="9618eee2e1"><path d="M 197 111.128906 L 204 111.128906 L 204 128 L 197 128 Z M 197 111.128906 " clip-rule="nonzero"/></clipPath></defs><rect x="-37.5" width="450" fill="#ffffff" y="-37.499999" height="449.999989" fill-opacity="1"/><rect x="-37.5" width="450" fill="#ffffff" y="-37.499999" height="449.999989" fill-opacity="1"/><path fill="#1f2937" d="M 144.402344 185.898438 C 137.039062 185.898438 131.070312 191.050781 131.070312 197.347656 C 131.070312 203.644531 137.039062 208.800781 144.402344 208.800781 C 151.765625 208.800781 157.734375 203.644531 157.734375 197.347656 C 157.738281 191.011719 151.765625 185.898438 144.402344 185.898438 Z M 144.402344 214.28125 C 134.015625 214.28125 125.546875 206.675781 125.546875 197.308594 C 125.546875 187.9375 134.015625 180.332031 144.402344 180.332031 C 154.789062 180.332031 163.257812 187.9375 163.257812 197.308594 C 163.257812 206.675781 154.792969 214.28125 144.402344 214.28125 Z M 144.402344 214.28125 " fill-opacity="1" fill-rule="evenodd"/><path fill="#1f2937" d="M 144.402344 163.683594 C 142.933594 163.683594 141.699219 165.40625 141.699219 167.445312 C 141.699219 169.496094 142.925781 171.207031 144.402344 171.207031 C 145.878906 171.207031 147.105469 169.488281 147.105469 167.445312 C 147.105469 165.40625 145.878906 163.683594 144.402344 163.683594 Z M 144.402344 176.695312 C 139.859375 176.695312 136.183594 172.523438 136.183594 167.453125 C 136.183594 162.339844 139.859375 158.167969 144.402344 158.167969 C 148.945312 158.167969 152.621094 162.339844 152.621094 167.453125 C 152.628906 172.566406 148.945312 176.695312 144.402344 176.695312 Z M 144.402344 176.695312 " fill-opacity="1" fill-rule="evenodd"/><path fill="#1f2937" d="M 125.796875 171.046875 C 124.324219 171.046875 123.09375 172.765625 123.09375 174.808594 C 123.09375 176.855469 124.320312 178.570312 125.796875 178.570312 C 127.265625 178.570312 128.496094 176.851562 128.496094 174.808594 C 128.535156 172.765625 127.265625 171.046875 125.796875 171.046875 Z M 125.796875 184.058594 C 121.253906 184.058594 117.578125 179.886719 117.578125 174.816406 C 117.578125 169.703125 121.253906 165.53125 125.796875 165.53125 C 130.335938 165.53125 134.015625 169.703125 134.015625 174.816406 C 134.015625 179.886719 130.332031 184.058594 125.796875 184.058594 Z M 125.796875 184.058594 " fill-opacity="1" fill-rule="evenodd"/><path fill="#1f2937" d="M 163.835938 171.046875 C 162.363281 171.046875 161.132812 172.765625 161.132812 174.808594 C 161.132812 176.855469 162.359375 178.570312 163.835938 178.570312 C 165.304688 178.570312 166.535156 176.851562 166.535156 174.808594 C 166.53125 172.765625 165.304688 171.046875 163.835938 171.046875 Z M 163.835938 184.058594 C 159.292969 184.058594 155.613281 179.886719 155.613281 174.816406 C 155.613281 169.703125 159.292969 165.53125 163.835938 165.53125 C 168.375 165.53125 172.054688 169.703125 172.054688 174.816406 C 172.054688 179.886719 168.371094 184.058594 163.835938 184.058594 Z M 163.835938 184.058594 " fill-opacity="1" fill-rule="evenodd"/><g clip-path="url(#e6651e0f0e)"><path fill="#1f2937" d="M 207.761719 242.542969 L 155.40625 242.542969 C 153.894531 242.542969 152.667969 241.316406 152.667969 239.804688 C 152.667969 238.292969 153.894531 237.066406 155.40625 237.066406 L 207.761719 237.066406 C 209.273438 237.066406 210.5 238.292969 210.5 239.804688 C 210.539062 241.316406 209.273438 242.542969 207.761719 242.542969 Z M 257.210938 242.542969 C 267.804688 242.542969 276.390625 233.953125 276.390625 223.359375 L 276.390625 204.671875 C 276.390625 198.449219 272.34375 193.136719 266.332031 191.457031 L 257.703125 189.082031 C 255.578125 188.46875 253.984375 187.285156 252.835938 185.363281 L 234.304688 154.113281 C 231.769531 149.859375 227.472656 147.40625 222.527344 147.40625 L 111.441406 147.40625 C 102.195312 147.40625 94.710938 154.929688 94.710938 164.136719 L 94.710938 225.816406 C 94.710938 235.058594 102.234375 242.546875 111.441406 242.546875 L 120.558594 242.546875 C 122.070312 242.546875 123.296875 241.320312 123.296875 239.808594 C 123.296875 238.296875 122.070312 237.070312 120.558594 237.070312 L 111.441406 237.070312 C 105.261719 237.070312 100.191406 232.042969 100.191406 225.820312 L 100.191406 164.136719 C 100.191406 157.960938 105.21875 152.886719 111.441406 152.886719 L 222.527344 152.886719 C 225.554688 152.886719 228.050781 154.324219 229.5625 156.894531 L 248.089844 188.140625 C 249.972656 191.289062 252.671875 193.378906 256.230469 194.363281 L 264.863281 196.734375 C 268.464844 197.71875 270.875 200.90625 270.875 204.628906 L 270.875 223.316406 C 270.875 230.839844 264.738281 236.976562 257.214844 236.976562 L 242.65625 236.976562 C 241.144531 236.976562 239.917969 238.203125 239.917969 239.714844 C 239.917969 241.226562 241.144531 242.453125 242.65625 242.453125 L 257.210938 242.453125 Z M 257.210938 242.542969 " fill-opacity="1" fill-rule="evenodd"/></g><path fill="#1f2937" d="M 194.957031 191.707031 L 231.117188 191.707031 L 217.824219 169.332031 L 194.964844 169.332031 Z M 235.941406 197.1875 L 192.21875 197.1875 C 190.707031 197.1875 189.480469 195.960938 189.480469 194.449219 L 189.480469 166.554688 C 189.480469 165.042969 190.707031 163.816406 192.21875 163.816406 L 219.417969 163.816406 C 220.402344 163.816406 221.300781 164.34375 221.792969 165.167969 L 238.359375 193.0625 C 238.847656 193.917969 238.886719 194.984375 238.398438 195.84375 C 237.863281 196.652344 236.925781 197.1875 235.941406 197.1875 Z M 235.941406 197.1875 " fill-opacity="1" fill-rule="evenodd"/><g clip-path="url(#1949fe0766)"><path fill="#1f2937" d="M 273.652344 215.835938 L 262 215.835938 C 256.886719 215.835938 252.757812 211.707031 252.757812 206.59375 L 252.757812 191.210938 C 252.757812 189.699219 253.984375 188.472656 255.496094 188.472656 C 257.007812 188.472656 258.234375 189.699219 258.234375 191.210938 L 258.234375 206.59375 C 258.234375 208.640625 259.910156 210.355469 261.996094 210.355469 L 273.648438 210.355469 C 275.160156 210.355469 276.386719 211.582031 276.386719 213.09375 C 276.390625 214.609375 275.164062 215.835938 273.652344 215.835938 Z M 273.652344 215.835938 " fill-opacity="1" fill-rule="evenodd"/></g><g clip-path="url(#16e520abb6)"><path fill="#1f2937" d="M 137.980469 225.078125 C 129.878906 225.078125 123.296875 231.664062 123.296875 239.761719 C 123.296875 247.863281 129.878906 254.445312 137.980469 254.445312 C 146.082031 254.445312 152.664062 247.863281 152.664062 239.761719 C 152.667969 231.667969 146.082031 225.078125 137.980469 225.078125 Z M 137.980469 259.96875 C 126.855469 259.96875 117.773438 250.886719 117.773438 239.761719 C 117.773438 228.636719 126.855469 219.554688 137.980469 219.554688 C 149.105469 219.554688 158.1875 228.636719 158.1875 239.761719 C 158.1875 250.929688 149.109375 259.96875 137.980469 259.96875 Z M 137.980469 259.96875 " fill-opacity="1" fill-rule="evenodd"/></g><g clip-path="url(#7f20173702)"><path fill="#1f2937" d="M 225.222656 225.078125 C 217.125 225.078125 210.539062 231.664062 210.539062 239.761719 C 210.539062 247.863281 217.125 254.445312 225.222656 254.445312 C 233.324219 254.445312 239.90625 247.863281 239.90625 239.761719 C 239.90625 231.667969 233.324219 225.078125 225.222656 225.078125 Z M 225.222656 259.96875 C 214.097656 259.96875 205.015625 250.886719 205.015625 239.761719 C 205.015625 228.636719 214.097656 219.554688 225.222656 219.554688 C 236.347656 219.554688 245.429688 228.636719 245.429688 239.761719 C 245.429688 250.929688 236.347656 259.96875 225.222656 259.96875 Z M 225.222656 259.96875 " fill-opacity="1" fill-rule="evenodd"/></g><path fill="#1f2937" d="M 225.222656 235.714844 C 222.972656 235.714844 221.175781 237.554688 221.175781 239.761719 C 221.175781 242.011719 223.015625 243.808594 225.222656 243.808594 C 227.472656 243.808594 229.269531 241.972656 229.269531 239.761719 C 229.277344 237.554688 227.472656 235.714844 225.222656 235.714844 Z M 225.222656 249.375 C 219.949219 249.375 215.652344 245.078125 215.652344 239.804688 C 215.652344 234.53125 219.949219 230.234375 225.222656 230.234375 C 230.496094 230.234375 234.792969 234.53125 234.792969 239.804688 C 234.792969 245.082031 230.503906 249.375 225.222656 249.375 Z M 225.222656 249.375 " fill-opacity="1" fill-rule="evenodd"/><path fill="#1f2937" d="M 137.980469 235.714844 C 135.730469 235.714844 133.933594 237.554688 133.933594 239.761719 C 133.933594 242.011719 135.773438 243.808594 137.980469 243.808594 C 140.230469 243.808594 142.027344 241.972656 142.027344 239.761719 C 142.027344 237.554688 140.230469 235.714844 137.980469 235.714844 Z M 137.980469 249.375 C 132.707031 249.375 128.410156 245.078125 128.410156 239.804688 C 128.410156 234.53125 132.707031 230.234375 137.980469 230.234375 C 143.253906 230.234375 147.550781 234.53125 147.550781 239.804688 C 147.554688 245.082031 143.257812 249.375 137.980469 249.375 Z M 137.980469 249.375 " fill-opacity="1" fill-rule="evenodd"/><path fill="#1f2937" d="M 204.242188 207.492188 L 192.21875 207.492188 C 190.707031 207.492188 189.480469 206.265625 189.480469 204.753906 C 189.480469 203.242188 190.707031 202.015625 192.21875 202.015625 L 204.242188 202.015625 C 205.753906 202.015625 206.980469 203.242188 206.980469 204.753906 C 207.023438 206.265625 205.753906 207.492188 204.242188 207.492188 Z M 204.242188 207.492188 " fill-opacity="1" fill-rule="evenodd"/><path fill="#1f2937" d="M 209.152344 152.886719 C 207.640625 152.886719 206.414062 151.660156 206.414062 150.148438 L 206.414062 141.4375 C 206.414062 138.289062 203.835938 135.710938 200.6875 135.710938 C 197.539062 135.710938 194.964844 138.289062 194.964844 141.4375 L 194.964844 150.148438 C 194.964844 151.660156 193.738281 152.886719 192.226562 152.886719 C 190.714844 152.886719 189.488281 151.660156 189.488281 150.148438 L 189.488281 141.4375 C 189.488281 135.257812 194.515625 130.1875 200.734375 130.1875 C 206.914062 130.1875 211.984375 135.21875 211.984375 141.4375 L 211.984375 150.148438 C 211.933594 151.660156 210.707031 152.886719 209.152344 152.886719 Z M 209.152344 152.886719 " fill-opacity="1" fill-rule="evenodd"/><g clip-path="url(#9618eee2e1)"><path fill="#1f2937" d="M 200.5625 127.980469 C 199.050781 127.980469 197.824219 126.753906 197.824219 125.242188 L 197.824219 113.867188 C 197.824219 112.355469 199.050781 111.128906 200.5625 111.128906 C 202.074219 111.128906 203.300781 112.355469 203.300781 113.867188 L 203.300781 125.234375 C 203.34375 126.753906 202.117188 127.980469 200.5625 127.980469 Z M 200.5625 127.980469 " fill-opacity="1" fill-rule="evenodd"/></g><path fill="#1f2937" d="M 190.867188 127.980469 C 190.417969 127.980469 189.929688 127.855469 189.476562 127.609375 L 179.621094 121.925781 C 178.308594 121.148438 177.863281 119.472656 178.597656 118.164062 C 179.375 116.855469 181.046875 116.410156 182.359375 117.140625 L 192.214844 122.824219 C 193.523438 123.605469 193.96875 125.277344 193.238281 126.585938 C 192.75 127.492188 191.808594 127.980469 190.867188 127.980469 Z M 190.867188 127.980469 " fill-opacity="1" fill-rule="evenodd"/><path fill="#1f2937" d="M 210.296875 127.980469 C 209.355469 127.980469 208.414062 127.492188 207.921875 126.585938 C 207.140625 125.277344 207.59375 123.597656 208.945312 122.824219 L 218.800781 117.140625 C 220.109375 116.363281 221.789062 116.8125 222.5625 118.164062 C 223.34375 119.472656 222.890625 121.152344 221.539062 121.925781 L 211.683594 127.609375 C 211.238281 127.859375 210.746094 127.980469 210.296875 127.980469 Z M 210.296875 127.980469 " fill-opacity="1" fill-rule="evenodd"/></svg>