<svg xmlns="http://www.w3.org/2000/svg" xmlns:xlink="http://www.w3.org/1999/xlink" width="500" zoomAndPan="magnify" viewBox="0 0 375 374.999991" height="500" preserveAspectRatio="xMidYMid meet" version="1.0"><path fill="#1f2937" d="M 195.367188 126.613281 C 193.058594 126.613281 190.847656 125.28125 189.824219 123.023438 L 189.136719 121.5 C 185.332031 113.128906 181.40625 104.472656 181.40625 95.152344 C 181.40625 80.976562 188.566406 71.820312 199.671875 71.820312 C 207.117188 71.820312 212.394531 79.382812 215.699219 85.066406 C 217.390625 87.96875 216.414062 91.703125 213.511719 93.390625 C 210.613281 95.078125 206.878906 94.105469 205.1875 91.203125 C 201.429688 84.757812 199.339844 83.949219 199.316406 83.949219 C 194.367188 83.996094 193.582031 90.988281 193.582031 95.152344 C 193.582031 101.832031 196.816406 108.945312 200.21875 116.484375 L 200.933594 118.027344 C 202.3125 121.097656 200.957031 124.6875 197.886719 126.066406 C 197.078125 126.449219 196.199219 126.613281 195.367188 126.613281 " fill-opacity="1" fill-rule="nonzero"/><path fill="#1f2937" d="M 179.625 126.613281 C 178.789062 126.613281 177.910156 126.449219 177.101562 126.066406 C 174.035156 124.6875 172.679688 121.097656 174.058594 118.027344 L 174.773438 116.484375 C 178.171875 108.945312 181.40625 101.832031 181.40625 95.152344 C 181.40625 90.988281 180.621094 84.019531 175.34375 83.996094 C 175.484375 84.042969 173.390625 85.042969 169.800781 91.203125 C 168.113281 94.105469 164.378906 95.078125 161.476562 93.390625 C 158.574219 91.703125 157.601562 87.96875 159.289062 85.066406 C 162.59375 79.382812 167.875 71.820312 175.320312 71.820312 C 186.425781 71.820312 193.582031 80.976562 193.582031 95.152344 C 193.582031 104.472656 189.660156 113.128906 185.855469 121.5 L 185.164062 123.023438 C 184.140625 125.28125 181.929688 126.613281 179.625 126.613281 " fill-opacity="1" fill-rule="nonzero"/><path fill="#1f2937" d="M 217.9375 109.109375 C 215.652344 109.109375 213.464844 107.828125 212.417969 105.613281 C 210.898438 102.355469 209.207031 99.027344 207.472656 95.675781 C 206.6875 94.082031 205.925781 92.558594 205.09375 91.035156 C 198.125 77.625 193.582031 68.347656 193.582031 61.164062 C 193.582031 45.683594 200.933594 35.289062 211.847656 35.289062 C 216.273438 35.289062 220.863281 38.597656 228.328125 45.089844 C 230.851562 47.300781 231.160156 51.199219 228.949219 53.722656 C 226.734375 56.265625 222.929688 56.550781 220.410156 54.339844 L 220.316406 54.269531 C 218.601562 52.769531 213.558594 48.394531 211.445312 47.492188 C 207.304688 47.964844 205.761719 56.027344 205.761719 61.164062 C 205.761719 65.921875 211.585938 77.148438 215.84375 85.328125 C 216.675781 86.898438 217.507812 88.515625 218.339844 90.15625 C 220.078125 93.558594 221.859375 97.054688 223.453125 100.429688 C 224.878906 103.472656 223.574219 107.113281 220.527344 108.539062 C 219.695312 108.921875 218.816406 109.109375 217.9375 109.109375 " fill-opacity="1" fill-rule="nonzero"/><path fill="#1f2937" d="M 150.585938 49.773438 L 150.65625 49.773438 Z M 157.054688 109.109375 C 156.171875 109.109375 155.292969 108.921875 154.460938 108.539062 C 151.417969 107.113281 150.109375 103.472656 151.535156 100.429688 C 153.128906 97.054688 154.914062 93.558594 156.695312 90.085938 C 157.480469 88.515625 158.3125 86.898438 159.195312 85.257812 C 163.402344 77.148438 169.230469 65.921875 169.230469 61.164062 C 169.230469 56.027344 167.683594 47.964844 163.546875 47.492188 C 161.429688 48.394531 156.386719 52.769531 154.675781 54.269531 L 146.660156 45.089844 C 154.128906 38.597656 158.71875 35.289062 163.140625 35.289062 C 174.058594 35.289062 181.40625 45.683594 181.40625 61.164062 C 181.40625 68.347656 176.863281 77.625 169.945312 90.941406 C 169.0625 92.558594 168.300781 94.082031 167.542969 95.601562 C 165.78125 99.027344 164.09375 102.355469 162.570312 105.613281 C 161.523438 107.828125 159.335938 109.109375 157.054688 109.109375 " fill-opacity="1" fill-rule="nonzero"/><path fill="#1f2937" d="M 290.542969 120.527344 C 288.308594 120.527344 286.167969 119.289062 285.097656 117.171875 C 278.25 103.472656 270.78125 91.417969 264.214844 80.785156 C 254.679688 65.375 248.378906 55.195312 248.378906 47.46875 C 248.378906 23.445312 259.863281 17.027344 266.640625 17.027344 C 282.433594 17.027344 309.570312 62.902344 327.074219 106.066406 C 328.332031 109.183594 326.835938 112.726562 323.71875 113.984375 C 320.628906 115.246094 317.0625 113.773438 315.800781 110.632812 C 293.707031 56.171875 271.707031 30.628906 266.238281 29.15625 C 265.429688 29.367188 260.554688 32.9375 260.554688 47.46875 C 260.554688 51.746094 267.664062 63.257812 274.5625 74.390625 C 280.9375 84.6875 288.902344 97.527344 295.988281 111.703125 C 297.488281 114.722656 296.273438 118.386719 293.253906 119.882812 C 292.375 120.3125 291.472656 120.527344 290.542969 120.527344 " fill-opacity="1" fill-rule="nonzero"/><path fill="#1f2937" d="M 84.445312 120.527344 C 83.519531 120.527344 82.613281 120.3125 81.734375 119.882812 C 78.714844 118.386719 77.5 114.722656 79 111.703125 C 86.085938 97.527344 94.054688 84.6875 100.429688 74.390625 C 107.324219 63.257812 114.4375 51.746094 114.4375 47.46875 C 114.4375 32.9375 109.558594 29.367188 108.253906 29.203125 C 103.28125 30.628906 81.285156 56.171875 59.191406 110.632812 C 57.929688 113.773438 54.363281 115.246094 51.269531 113.984375 C 48.15625 112.726562 46.65625 109.183594 47.917969 106.066406 C 65.421875 62.902344 92.554688 17.027344 108.347656 17.027344 C 115.125 17.027344 126.613281 23.445312 126.613281 47.46875 C 126.613281 55.195312 120.308594 65.375 110.773438 80.785156 C 104.210938 91.417969 96.742188 103.472656 89.890625 117.171875 C 88.824219 119.289062 86.683594 120.527344 84.445312 120.527344 " fill-opacity="1" fill-rule="nonzero"/><path fill="#1f2937" d="M 248.378906 357.96875 C 245.023438 357.96875 242.289062 355.234375 242.289062 351.878906 C 242.289062 350.144531 241.078125 342.628906 225.546875 318.65625 C 223.714844 315.851562 224.523438 312.070312 227.332031 310.238281 C 230.160156 308.40625 233.941406 309.214844 235.75 312.046875 C 252.515625 337.921875 254.464844 347.171875 254.464844 351.878906 C 254.464844 355.234375 251.730469 357.96875 248.378906 357.96875 " fill-opacity="1" fill-rule="nonzero"/><path fill="#1f2937" d="M 126.613281 357.96875 C 123.257812 357.96875 120.523438 355.234375 120.523438 351.878906 C 120.523438 347.171875 122.472656 337.921875 139.242188 312.046875 C 141.046875 309.214844 144.828125 308.40625 147.660156 310.238281 C 150.464844 312.070312 151.273438 315.851562 149.441406 318.65625 C 133.914062 342.628906 132.699219 350.144531 132.699219 351.878906 C 132.699219 355.234375 129.964844 357.96875 126.613281 357.96875 " fill-opacity="1" fill-rule="nonzero"/><path fill="#1f2937" d="M 351.878906 357.96875 C 349.121094 357.96875 346.621094 356.089844 345.957031 353.308594 C 345.695312 352.238281 339.703125 327.097656 339.703125 315.351562 C 339.703125 310.523438 342.339844 303.675781 346.335938 293.304688 C 353.398438 274.992188 364.054688 247.355469 364.054688 217.9375 C 364.054688 206.191406 360.964844 195.371094 358.488281 186.6875 C 356.5625 180.007812 354.921875 174.226562 354.921875 169.234375 L 354.945312 166.59375 C 355.113281 132.585938 352.355469 123.167969 350.714844 120.574219 C 339.605469 121.550781 333.613281 136.699219 333.613281 150.96875 C 333.613281 157.054688 333.113281 205.832031 333.113281 205.832031 C 333.089844 207.046875 332.710938 208.234375 332.019531 209.257812 C 322.292969 223.195312 297.082031 262.933594 297.082031 278.820312 C 297.082031 282.175781 294.347656 284.910156 290.996094 284.910156 C 287.640625 284.910156 284.90625 282.175781 284.90625 278.820312 C 284.90625 257.703125 314.113281 213.847656 320.9375 203.835938 C 321.03125 194.871094 321.4375 156.34375 321.4375 150.96875 C 321.4375 129.800781 331.902344 108.351562 351.878906 108.351562 C 353.710938 108.351562 356.398438 108.871094 358.894531 111.394531 C 364.910156 117.433594 367.289062 133.464844 367.121094 166.664062 L 367.097656 169.234375 C 367.097656 172.515625 368.527344 177.53125 370.191406 183.335938 C 372.878906 192.753906 376.230469 204.476562 376.230469 217.9375 C 376.230469 249.640625 365.078125 278.558594 357.703125 297.679688 C 354.828125 305.101562 351.878906 312.78125 351.878906 315.351562 C 351.878906 323.914062 356.160156 343.605469 357.800781 350.453125 C 358.585938 353.734375 356.5625 357.015625 353.304688 357.800781 C 352.828125 357.921875 352.355469 357.96875 351.878906 357.96875 " fill-opacity="1" fill-rule="nonzero"/><path fill="#1f2937" d="M 23.113281 357.96875 C 22.660156 357.96875 22.160156 357.921875 21.683594 357.800781 C 18.425781 357.015625 16.40625 353.734375 17.191406 350.453125 C 18.832031 343.605469 23.113281 323.914062 23.113281 315.351562 C 23.113281 312.78125 20.140625 305.101562 17.285156 297.679688 C 9.914062 278.558594 -1.242188 249.640625 -1.242188 217.9375 C -1.242188 204.476562 2.113281 192.753906 4.800781 183.335938 C 6.464844 177.53125 7.890625 172.515625 7.890625 169.234375 L 7.890625 166.664062 C 7.699219 133.464844 10.078125 117.433594 16.097656 111.394531 C 18.59375 108.871094 21.28125 108.351562 23.113281 108.351562 C 43.089844 108.351562 53.554688 129.800781 53.554688 150.96875 C 53.554688 156.34375 53.933594 194.871094 54.050781 203.835938 C 60.878906 213.847656 90.082031 257.703125 90.082031 278.820312 C 90.082031 282.175781 87.347656 284.910156 83.996094 284.910156 C 80.640625 284.910156 77.90625 282.175781 77.90625 278.820312 C 77.90625 262.910156 52.695312 223.195312 42.96875 209.257812 C 42.28125 208.234375 41.898438 207.046875 41.875 205.832031 C 41.875 205.832031 41.375 157.054688 41.375 150.96875 C 41.375 136.699219 35.382812 121.550781 24.253906 120.574219 C 22.660156 123.167969 19.878906 132.585938 20.066406 166.59375 L 20.066406 169.234375 C 20.066406 174.226562 18.425781 180.007812 16.5 186.6875 C 14.027344 195.371094 10.933594 206.191406 10.933594 217.9375 C 10.933594 247.355469 21.589844 274.992188 28.652344 293.304688 C 32.648438 303.675781 35.289062 310.523438 35.289062 315.351562 C 35.289062 327.097656 29.296875 352.238281 29.035156 353.308594 C 28.367188 356.089844 25.871094 357.96875 23.113281 357.96875 " fill-opacity="1" fill-rule="nonzero"/><path fill="#1f2937" d="M 248.378906 106.136719 C 246.09375 106.136719 243.90625 104.855469 242.859375 102.640625 C 239.4375 95.339844 235.605469 87.96875 231.871094 80.832031 C 222.976562 63.710938 217.9375 53.722656 217.9375 47.46875 C 217.9375 33.363281 225.617188 23.113281 236.203125 23.113281 C 248.164062 23.113281 257.914062 38.167969 259.746094 41.1875 C 261.503906 44.066406 260.578125 47.800781 257.722656 49.558594 C 254.847656 51.296875 251.113281 50.390625 249.351562 47.539062 C 245.808594 41.734375 239.53125 35.289062 236.203125 35.289062 C 232.394531 35.289062 230.113281 41.472656 230.113281 47.46875 C 230.113281 51.058594 237.082031 64.449219 242.695312 75.222656 C 246.453125 82.449219 250.351562 89.941406 253.894531 97.457031 C 255.320312 100.5 254.015625 104.117188 250.96875 105.542969 C 250.136719 105.949219 249.257812 106.136719 248.378906 106.136719 " fill-opacity="1" fill-rule="nonzero"/><path fill="#1f2937" d="M 126.613281 106.136719 C 125.730469 106.136719 124.851562 105.949219 124.019531 105.542969 C 120.976562 104.117188 119.667969 100.5 121.09375 97.457031 C 124.636719 89.941406 128.539062 82.449219 132.296875 75.222656 C 137.910156 64.449219 144.878906 51.058594 144.878906 47.46875 C 144.878906 41.472656 142.59375 35.289062 138.789062 35.289062 C 135.125 35.289062 128.679688 42.519531 125.636719 47.539062 C 123.902344 50.390625 120.144531 51.320312 117.289062 49.558594 C 114.410156 47.824219 113.484375 44.066406 115.246094 41.1875 C 117.074219 38.167969 126.828125 23.113281 138.789062 23.113281 C 149.371094 23.113281 157.054688 33.363281 157.054688 47.46875 C 157.054688 53.722656 152.011719 63.710938 143.117188 80.832031 C 139.382812 87.96875 135.554688 95.339844 132.128906 102.640625 C 131.082031 104.855469 128.894531 106.136719 126.613281 106.136719 " fill-opacity="1" fill-rule="nonzero"/><path fill="#1f2937" d="M 187.496094 246.976562 C 194.867188 246.976562 198.933594 249.757812 201.882812 251.78125 C 204.332031 253.46875 205.808594 254.46875 209.398438 254.46875 C 217.054688 254.46875 217.9375 249.378906 217.9375 245.574219 C 217.9375 241.386719 213.585938 238.652344 207.898438 235.488281 C 205.285156 234.039062 203.046875 232.777344 201.40625 231.089844 C 199.71875 229.355469 198.71875 227.261719 197.769531 225.214844 C 195.722656 220.839844 194.367188 217.9375 187.496094 217.9375 C 180.621094 217.9375 179.265625 220.839844 177.222656 225.214844 C 176.269531 227.261719 175.269531 229.355469 173.582031 231.089844 C 171.941406 232.777344 169.707031 234.039062 167.089844 235.488281 C 161.40625 238.652344 157.054688 241.386719 157.054688 245.574219 C 157.054688 249.378906 157.933594 254.46875 165.589844 254.46875 C 169.183594 254.46875 170.65625 253.46875 173.105469 251.78125 C 176.054688 249.757812 180.121094 246.976562 187.496094 246.976562 Z M 209.398438 266.644531 C 202.050781 266.644531 197.984375 263.863281 195.011719 261.839844 C 192.5625 260.152344 191.085938 259.152344 187.496094 259.152344 C 183.902344 259.152344 182.429688 260.152344 179.980469 261.839844 C 177.007812 263.863281 172.941406 266.644531 165.589844 266.644531 C 153.011719 266.644531 144.878906 258.367188 144.878906 245.574219 C 144.878906 233.898438 155.078125 228.238281 161.167969 224.835938 C 162.523438 224.074219 164.402344 223.050781 164.878906 222.578125 C 165.164062 222.265625 165.757812 220.984375 166.1875 220.054688 C 168.539062 215.0625 172.867188 205.761719 187.496094 205.761719 C 202.121094 205.761719 206.449219 215.0625 208.804688 220.054688 C 209.230469 220.984375 209.828125 222.265625 210.136719 222.625 C 210.585938 223.050781 212.464844 224.074219 213.820312 224.835938 C 219.910156 228.238281 230.113281 233.898438 230.113281 245.574219 C 230.113281 258.367188 221.980469 266.644531 209.398438 266.644531 " fill-opacity="1" fill-rule="nonzero"/><path fill="#1f2937" d="M 204.808594 181.957031 C 204.808594 185.738281 206.019531 187.355469 206.472656 187.519531 C 210.300781 187.496094 211.824219 182.789062 211.847656 181.957031 C 211.847656 178.199219 210.613281 176.582031 210.160156 176.414062 C 206.355469 176.414062 204.808594 181.148438 204.808594 181.957031 Z M 206.402344 199.675781 C 199.550781 199.675781 192.632812 193.585938 192.632812 181.957031 C 192.632812 174.558594 199.339844 164.238281 210.230469 164.238281 C 217.082031 164.238281 224.023438 170.328125 224.023438 181.957031 C 224.023438 189.351562 217.316406 199.675781 206.402344 199.675781 " fill-opacity="1" fill-rule="nonzero"/><path fill="#1f2937" d="M 164.757812 176.414062 C 164.378906 176.582031 163.140625 178.199219 163.140625 181.957031 C 163.164062 182.789062 164.6875 187.496094 168.589844 187.496094 C 168.96875 187.355469 170.179688 185.738281 170.179688 181.957031 C 170.179688 181.148438 168.636719 176.414062 164.757812 176.414062 Z M 168.589844 199.675781 C 157.671875 199.675781 150.964844 189.351562 150.964844 181.957031 C 150.964844 170.328125 157.910156 164.238281 164.757812 164.238281 C 175.652344 164.238281 182.359375 174.558594 182.359375 181.957031 C 182.359375 193.585938 175.4375 199.675781 168.589844 199.675781 " fill-opacity="1" fill-rule="nonzero"/><path fill="#1f2937" d="M 235.25 206.308594 C 235.25 210.089844 236.460938 211.707031 236.914062 211.875 C 240.742188 211.851562 242.265625 207.140625 242.289062 206.308594 C 242.289062 202.550781 241.054688 200.933594 240.601562 200.769531 C 236.796875 200.769531 235.25 205.5 235.25 206.308594 Z M 236.84375 224.027344 C 229.992188 224.027344 223.074219 217.9375 223.074219 206.308594 C 223.074219 198.914062 229.78125 188.589844 240.671875 188.589844 C 247.523438 188.589844 254.464844 194.679688 254.464844 206.308594 C 254.464844 213.707031 247.757812 224.027344 236.84375 224.027344 " fill-opacity="1" fill-rule="nonzero"/><path fill="#1f2937" d="M 134.316406 200.769531 C 133.9375 200.933594 132.699219 202.550781 132.699219 206.308594 C 132.722656 207.140625 134.246094 211.851562 138.148438 211.851562 C 138.527344 211.707031 139.738281 210.089844 139.738281 206.308594 C 139.738281 205.5 138.195312 200.769531 134.316406 200.769531 Z M 138.148438 224.027344 C 127.230469 224.027344 120.523438 213.707031 120.523438 206.308594 C 120.523438 194.679688 127.46875 188.589844 134.316406 188.589844 C 145.210938 188.589844 151.917969 198.914062 151.917969 206.308594 C 151.917969 217.9375 144.996094 224.027344 138.148438 224.027344 " fill-opacity="1" fill-rule="nonzero"/><path fill="#1f2937" d="M 126.613281 126.613281 C 106.777344 126.613281 83.996094 133.535156 83.996094 187.496094 C 83.996094 234.324219 143.59375 285.71875 187.496094 308.5 C 231.398438 285.71875 290.996094 234.324219 290.996094 187.496094 C 290.996094 133.535156 268.210938 126.613281 248.378906 126.613281 C 220.789062 126.613281 192.085938 154.988281 191.800781 155.273438 C 189.421875 157.652344 185.570312 157.652344 183.191406 155.273438 C 182.90625 154.988281 154.128906 126.613281 126.613281 126.613281 Z M 187.496094 321.4375 C 186.566406 321.4375 185.640625 321.226562 184.761719 320.796875 C 137.863281 297.347656 71.816406 240.484375 71.816406 187.496094 C 71.816406 139.027344 90.25 114.4375 126.613281 114.4375 C 152.558594 114.4375 177.671875 134.011719 187.496094 142.667969 C 197.316406 134.011719 222.429688 114.4375 248.378906 114.4375 C 284.742188 114.4375 303.171875 139.027344 303.171875 187.496094 C 303.171875 240.484375 237.128906 297.347656 190.230469 320.796875 C 189.351562 321.226562 188.421875 321.4375 187.496094 321.4375 " fill-opacity="1" fill-rule="nonzero"/></svg>