<svg xmlns="http://www.w3.org/2000/svg" xmlns:xlink="http://www.w3.org/1999/xlink" width="500" zoomAndPan="magnify" viewBox="0 0 375 374.999991" height="500" preserveAspectRatio="xMidYMid meet" version="1.0"><defs><clipPath id="7264bb5874"><path d="M 214 103.402344 L 253 103.402344 L 253 154 L 214 154 Z M 214 103.402344 " clip-rule="nonzero"/></clipPath><clipPath id="2545c7e529"><path d="M 118 103.402344 L 157 103.402344 L 157 154 L 118 154 Z M 118 103.402344 " clip-rule="nonzero"/></clipPath><clipPath id="3fb90fdaad"><path d="M 203 244 L 218 244 L 218 267.652344 L 203 267.652344 Z M 203 244 " clip-rule="nonzero"/></clipPath><clipPath id="9c1ef85607"><path d="M 153 244 L 168 244 L 168 267.652344 L 153 267.652344 Z M 153 244 " clip-rule="nonzero"/></clipPath><clipPath id="cb88b99725"><path d="M 232 147 L 276.15625 147 L 276.15625 267.652344 L 232 267.652344 Z M 232 147 " clip-rule="nonzero"/></clipPath><clipPath id="299bb23f77"><path d="M 94.65625 147 L 139 147 L 139 267.652344 L 94.65625 267.652344 Z M 94.65625 147 " clip-rule="nonzero"/></clipPath></defs><rect x="-37.5" width="450" fill="#ffffff" y="-37.499999" height="449.999989" fill-opacity="1"/><rect x="-37.5" width="450" fill="#ffffff" y="-37.499999" height="449.999989" fill-opacity="1"/><path fill="#1f2937" d="M 189.34375 156.222656 C 188.230469 156.222656 187.164062 155.582031 186.671875 154.496094 L 186.339844 153.761719 C 184.507812 149.730469 182.617188 145.5625 182.617188 141.070312 C 182.617188 134.246094 186.066406 129.835938 191.414062 129.835938 C 195 129.835938 197.542969 133.476562 199.136719 136.214844 C 199.949219 137.613281 199.476562 139.410156 198.082031 140.222656 C 196.683594 141.035156 194.886719 140.566406 194.074219 139.167969 C 192.261719 136.066406 191.253906 135.675781 191.242188 135.675781 C 188.859375 135.699219 188.484375 139.066406 188.484375 141.070312 C 188.484375 144.289062 190.039062 147.714844 191.679688 151.34375 L 192.023438 152.089844 C 192.6875 153.566406 192.035156 155.296875 190.554688 155.960938 C 190.167969 156.144531 189.742188 156.222656 189.34375 156.222656 " fill-opacity="1" fill-rule="nonzero"/><path fill="#1f2937" d="M 181.757812 156.222656 C 181.359375 156.222656 180.933594 156.144531 180.546875 155.960938 C 179.066406 155.296875 178.414062 153.566406 179.078125 152.089844 L 179.421875 151.34375 C 181.0625 147.714844 182.617188 144.289062 182.617188 141.070312 C 182.617188 139.066406 182.242188 135.710938 179.699219 135.699219 C 179.765625 135.722656 178.757812 136.203125 177.027344 139.167969 C 176.214844 140.566406 174.417969 141.035156 173.019531 140.222656 C 171.625 139.410156 171.152344 137.613281 171.964844 136.214844 C 173.558594 133.476562 176.101562 129.835938 179.6875 129.835938 C 185.035156 129.835938 188.484375 134.246094 188.484375 141.070312 C 188.484375 145.5625 186.59375 149.730469 184.761719 153.761719 L 184.429688 154.496094 C 183.9375 155.582031 182.871094 156.222656 181.757812 156.222656 " fill-opacity="1" fill-rule="nonzero"/><path fill="#1f2937" d="M 200.210938 147.792969 C 199.113281 147.792969 198.058594 147.175781 197.554688 146.109375 C 196.820312 144.542969 196.007812 142.9375 195.171875 141.324219 C 194.792969 140.554688 194.425781 139.824219 194.027344 139.089844 C 190.671875 132.628906 188.484375 128.164062 188.484375 124.703125 C 188.484375 117.246094 192.023438 112.242188 197.28125 112.242188 C 199.410156 112.242188 201.621094 113.835938 205.21875 116.960938 C 206.429688 118.027344 206.578125 119.90625 205.515625 121.117188 C 204.449219 122.34375 202.617188 122.480469 201.402344 121.417969 L 201.355469 121.382812 C 200.53125 120.660156 198.105469 118.554688 197.085938 118.117188 C 195.089844 118.347656 194.347656 122.230469 194.347656 124.703125 C 194.347656 126.996094 197.152344 132.402344 199.203125 136.339844 C 199.605469 137.097656 200.003906 137.875 200.40625 138.664062 C 201.242188 140.304688 202.101562 141.988281 202.867188 143.613281 C 203.554688 145.078125 202.925781 146.832031 201.460938 147.519531 C 201.058594 147.703125 200.636719 147.792969 200.210938 147.792969 " fill-opacity="1" fill-rule="nonzero"/><path fill="#1f2937" d="M 167.773438 119.21875 L 167.808594 119.21875 Z M 170.890625 147.792969 C 170.464844 147.792969 170.042969 147.703125 169.640625 147.519531 C 168.175781 146.832031 167.546875 145.078125 168.234375 143.613281 C 169 141.988281 169.859375 140.304688 170.71875 138.632812 C 171.097656 137.875 171.496094 137.097656 171.921875 136.304688 C 173.949219 132.402344 176.753906 126.996094 176.753906 124.703125 C 176.753906 122.230469 176.011719 118.347656 174.015625 118.117188 C 172.996094 118.554688 170.570312 120.660156 169.746094 121.382812 L 165.886719 116.960938 C 169.480469 113.835938 171.691406 112.242188 173.820312 112.242188 C 179.078125 112.242188 182.617188 117.246094 182.617188 124.703125 C 182.617188 128.164062 180.429688 132.628906 177.097656 139.042969 C 176.675781 139.824219 176.308594 140.554688 175.941406 141.289062 C 175.09375 142.9375 174.28125 144.542969 173.546875 146.109375 C 173.042969 147.175781 171.988281 147.792969 170.890625 147.792969 " fill-opacity="1" fill-rule="nonzero"/><g clip-path="url(#7264bb5874)"><path fill="#1f2937" d="M 235.179688 153.292969 C 234.101562 153.292969 233.070312 152.695312 232.558594 151.675781 C 229.257812 145.078125 225.660156 139.273438 222.5 134.152344 C 217.90625 126.730469 214.871094 121.828125 214.871094 118.105469 C 214.871094 106.539062 220.40625 103.445312 223.667969 103.445312 C 231.273438 103.445312 244.34375 125.539062 252.773438 146.328125 C 253.378906 147.828125 252.65625 149.535156 251.15625 150.140625 C 249.667969 150.75 247.949219 150.039062 247.34375 148.527344 C 236.703125 122.296875 226.109375 109.996094 223.472656 109.285156 C 223.085938 109.390625 220.738281 111.109375 220.738281 118.105469 C 220.738281 120.167969 224.160156 125.710938 227.484375 131.070312 C 230.550781 136.03125 234.390625 142.214844 237.800781 149.042969 C 238.523438 150.496094 237.941406 152.261719 236.484375 152.984375 C 236.0625 153.1875 235.625 153.292969 235.179688 153.292969 " fill-opacity="1" fill-rule="nonzero"/></g><g clip-path="url(#2545c7e529)"><path fill="#1f2937" d="M 135.921875 153.292969 C 135.476562 153.292969 135.039062 153.1875 134.617188 152.984375 C 133.160156 152.261719 132.578125 150.496094 133.300781 149.042969 C 136.710938 142.214844 140.550781 136.03125 143.617188 131.070312 C 146.941406 125.710938 150.363281 120.167969 150.363281 118.105469 C 150.363281 111.109375 148.015625 109.390625 147.386719 109.308594 C 144.992188 109.996094 134.398438 122.296875 123.757812 148.527344 C 123.152344 150.039062 121.433594 150.75 119.945312 150.140625 C 118.445312 149.535156 117.722656 147.828125 118.328125 146.328125 C 126.757812 125.539062 139.828125 103.445312 147.433594 103.445312 C 150.695312 103.445312 156.230469 106.539062 156.230469 118.105469 C 156.230469 121.828125 153.195312 126.730469 148.601562 134.152344 C 145.441406 139.273438 141.84375 145.078125 138.542969 151.675781 C 138.03125 152.695312 137 153.292969 135.921875 153.292969 " fill-opacity="1" fill-rule="nonzero"/></g><g clip-path="url(#3fb90fdaad)"><path fill="#1f2937" d="M 214.871094 267.644531 C 213.257812 267.644531 211.941406 266.328125 211.941406 264.714844 C 211.941406 263.878906 211.355469 260.257812 203.875 248.710938 C 202.996094 247.359375 203.382812 245.539062 204.734375 244.660156 C 206.097656 243.777344 207.917969 244.164062 208.789062 245.527344 C 216.863281 257.992188 217.804688 262.445312 217.804688 264.714844 C 217.804688 266.328125 216.488281 267.644531 214.871094 267.644531 " fill-opacity="1" fill-rule="nonzero"/></g><g clip-path="url(#9c1ef85607)"><path fill="#1f2937" d="M 156.230469 267.644531 C 154.613281 267.644531 153.296875 266.328125 153.296875 264.714844 C 153.296875 262.445312 154.238281 257.992188 162.3125 245.527344 C 163.183594 244.164062 165.003906 243.777344 166.367188 244.660156 C 167.71875 245.539062 168.105469 247.359375 167.226562 248.710938 C 159.746094 260.257812 159.160156 263.878906 159.160156 264.714844 C 159.160156 266.328125 157.84375 267.644531 156.230469 267.644531 " fill-opacity="1" fill-rule="nonzero"/></g><g clip-path="url(#cb88b99725)"><path fill="#1f2937" d="M 264.71875 267.644531 C 263.390625 267.644531 262.1875 266.742188 261.867188 265.402344 C 261.742188 264.886719 258.855469 252.777344 258.855469 247.121094 C 258.855469 244.796875 260.125 241.496094 262.050781 236.503906 C 265.453125 227.683594 270.582031 214.375 270.582031 200.207031 C 270.582031 194.546875 269.09375 189.335938 267.902344 185.15625 C 266.976562 181.9375 266.183594 179.15625 266.183594 176.75 L 266.195312 175.476562 C 266.277344 159.097656 264.949219 154.5625 264.15625 153.316406 C 258.808594 153.785156 255.921875 161.082031 255.921875 167.953125 C 255.921875 170.886719 255.683594 194.375 255.683594 194.375 C 255.671875 194.960938 255.488281 195.535156 255.15625 196.027344 C 250.46875 202.738281 238.328125 221.875 238.328125 229.527344 C 238.328125 231.144531 237.011719 232.460938 235.398438 232.460938 C 233.78125 232.460938 232.464844 231.144531 232.464844 229.527344 C 232.464844 219.355469 246.53125 198.238281 249.816406 193.414062 C 249.863281 189.097656 250.058594 170.542969 250.058594 167.953125 C 250.058594 157.757812 255.097656 147.429688 264.71875 147.429688 C 265.601562 147.429688 266.894531 147.679688 268.097656 148.894531 C 270.996094 151.804688 272.140625 159.523438 272.058594 175.511719 L 272.050781 176.75 C 272.050781 178.328125 272.734375 180.746094 273.539062 183.542969 C 274.832031 188.078125 276.449219 193.722656 276.449219 200.207031 C 276.449219 215.472656 271.074219 229.402344 267.523438 238.609375 C 266.140625 242.183594 264.71875 245.882812 264.71875 247.121094 C 264.71875 251.242188 266.78125 260.726562 267.570312 264.027344 C 267.949219 265.605469 266.976562 267.1875 265.40625 267.566406 C 265.175781 267.621094 264.949219 267.644531 264.71875 267.644531 " fill-opacity="1" fill-rule="nonzero"/></g><g clip-path="url(#299bb23f77)"><path fill="#1f2937" d="M 106.382812 267.644531 C 106.164062 267.644531 105.925781 267.621094 105.695312 267.566406 C 104.125 267.1875 103.152344 265.605469 103.53125 264.027344 C 104.320312 260.726562 106.382812 251.242188 106.382812 247.121094 C 106.382812 245.882812 104.953125 242.183594 103.578125 238.609375 C 100.027344 229.402344 94.65625 215.472656 94.65625 200.207031 C 94.65625 193.722656 96.269531 188.078125 97.5625 183.542969 C 98.367188 180.746094 99.050781 178.328125 99.050781 176.75 L 99.050781 175.511719 C 98.960938 159.523438 100.105469 151.804688 103.003906 148.894531 C 104.207031 147.679688 105.5 147.429688 106.382812 147.429688 C 116.003906 147.429688 121.042969 157.757812 121.042969 167.953125 C 121.042969 170.542969 121.226562 189.097656 121.285156 193.414062 C 124.570312 198.238281 138.636719 219.355469 138.636719 229.527344 C 138.636719 231.144531 137.320312 232.460938 135.703125 232.460938 C 134.089844 232.460938 132.773438 231.144531 132.773438 229.527344 C 132.773438 221.867188 120.632812 202.738281 115.945312 196.027344 C 115.613281 195.535156 115.429688 194.960938 115.417969 194.375 C 115.417969 194.375 115.179688 170.886719 115.179688 167.953125 C 115.179688 161.082031 112.292969 153.785156 106.933594 153.316406 C 106.164062 154.5625 104.824219 159.097656 104.917969 175.476562 L 104.917969 176.75 C 104.917969 179.15625 104.125 181.9375 103.199219 185.15625 C 102.007812 189.335938 100.519531 194.546875 100.519531 200.207031 C 100.519531 214.375 105.648438 227.683594 109.050781 236.503906 C 110.976562 241.496094 112.246094 244.796875 112.246094 247.121094 C 112.246094 252.777344 109.359375 264.886719 109.234375 265.402344 C 108.914062 266.742188 107.710938 267.644531 106.382812 267.644531 " fill-opacity="1" fill-rule="nonzero"/></g><path fill="#1f2937" d="M 214.871094 146.363281 C 213.773438 146.363281 212.71875 145.746094 212.214844 144.679688 C 210.566406 141.164062 208.722656 137.613281 206.921875 134.175781 C 202.640625 125.929688 200.210938 121.117188 200.210938 118.105469 C 200.210938 111.3125 203.910156 106.378906 209.007812 106.378906 C 214.769531 106.378906 219.464844 113.628906 220.347656 115.082031 C 221.195312 116.46875 220.746094 118.265625 219.375 119.113281 C 217.988281 119.949219 216.1875 119.515625 215.34375 118.140625 C 213.636719 115.347656 210.613281 112.242188 209.007812 112.242188 C 207.175781 112.242188 206.074219 115.21875 206.074219 118.105469 C 206.074219 119.835938 209.433594 126.285156 212.136719 131.472656 C 213.945312 134.953125 215.824219 138.5625 217.53125 142.183594 C 218.214844 143.648438 217.585938 145.390625 216.121094 146.078125 C 215.71875 146.269531 215.296875 146.363281 214.871094 146.363281 " fill-opacity="1" fill-rule="nonzero"/><path fill="#1f2937" d="M 156.230469 146.363281 C 155.804688 146.363281 155.382812 146.269531 154.980469 146.078125 C 153.515625 145.390625 152.886719 143.648438 153.570312 142.183594 C 155.277344 138.5625 157.15625 134.953125 158.96875 131.472656 C 161.667969 126.285156 165.027344 119.835938 165.027344 118.105469 C 165.027344 115.21875 163.925781 112.242188 162.09375 112.242188 C 160.328125 112.242188 157.226562 115.722656 155.761719 118.140625 C 154.921875 119.515625 153.113281 119.960938 151.738281 119.113281 C 150.355469 118.277344 149.90625 116.46875 150.753906 115.082031 C 151.636719 113.628906 156.332031 106.378906 162.09375 106.378906 C 167.191406 106.378906 170.890625 111.3125 170.890625 118.105469 C 170.890625 121.117188 168.460938 125.929688 164.179688 134.175781 C 162.378906 137.613281 160.535156 141.164062 158.886719 144.679688 C 158.382812 145.746094 157.328125 146.363281 156.230469 146.363281 " fill-opacity="1" fill-rule="nonzero"/><path fill="#1f2937" d="M 185.550781 214.191406 C 189.101562 214.191406 191.058594 215.53125 192.480469 216.503906 C 193.660156 217.316406 194.371094 217.800781 196.101562 217.800781 C 199.789062 217.800781 200.210938 215.347656 200.210938 213.515625 C 200.210938 211.5 198.117188 210.183594 195.378906 208.660156 C 194.117188 207.960938 193.042969 207.355469 192.25 206.539062 C 191.4375 205.703125 190.957031 204.695312 190.5 203.710938 C 189.515625 201.605469 188.859375 200.207031 185.550781 200.207031 C 182.242188 200.207031 181.585938 201.605469 180.601562 203.710938 C 180.144531 204.695312 179.664062 205.703125 178.851562 206.539062 C 178.058594 207.355469 176.984375 207.960938 175.722656 208.660156 C 172.984375 210.183594 170.890625 211.5 170.890625 213.515625 C 170.890625 215.347656 171.3125 217.800781 175.003906 217.800781 C 176.730469 217.800781 177.441406 217.316406 178.621094 216.503906 C 180.042969 215.53125 182 214.191406 185.550781 214.191406 Z M 196.101562 223.664062 C 192.558594 223.664062 190.601562 222.324219 189.171875 221.351562 C 187.992188 220.535156 187.28125 220.054688 185.550781 220.054688 C 183.820312 220.054688 183.109375 220.535156 181.929688 221.351562 C 180.5 222.324219 178.542969 223.664062 175.003906 223.664062 C 168.941406 223.664062 165.027344 219.675781 165.027344 213.515625 C 165.027344 207.890625 169.9375 205.164062 172.871094 203.527344 C 173.523438 203.160156 174.429688 202.667969 174.660156 202.441406 C 174.796875 202.289062 175.082031 201.671875 175.289062 201.226562 C 176.421875 198.820312 178.507812 194.34375 185.550781 194.34375 C 192.59375 194.34375 194.679688 198.820312 195.8125 201.226562 C 196.019531 201.671875 196.304688 202.289062 196.453125 202.460938 C 196.671875 202.667969 197.578125 203.160156 198.230469 203.527344 C 201.164062 205.164062 206.074219 207.890625 206.074219 213.515625 C 206.074219 219.675781 202.160156 223.664062 196.101562 223.664062 " fill-opacity="1" fill-rule="nonzero"/><path fill="#1f2937" d="M 193.890625 182.878906 C 193.890625 184.699219 194.472656 185.476562 194.691406 185.558594 C 196.535156 185.546875 197.269531 183.277344 197.28125 182.878906 C 197.28125 181.066406 196.683594 180.289062 196.464844 180.207031 C 194.632812 180.207031 193.890625 182.488281 193.890625 182.878906 Z M 194.65625 191.410156 C 191.359375 191.410156 188.023438 188.476562 188.023438 182.878906 C 188.023438 179.316406 191.253906 174.34375 196.5 174.34375 C 199.800781 174.34375 203.144531 177.277344 203.144531 182.878906 C 203.144531 186.4375 199.914062 191.410156 194.65625 191.410156 " fill-opacity="1" fill-rule="nonzero"/><path fill="#1f2937" d="M 174.601562 180.207031 C 174.417969 180.289062 173.820312 181.066406 173.820312 182.878906 C 173.832031 183.277344 174.566406 185.546875 176.445312 185.546875 C 176.628906 185.476562 177.210938 184.699219 177.210938 182.878906 C 177.210938 182.488281 176.46875 180.207031 174.601562 180.207031 Z M 176.445312 191.410156 C 171.1875 191.410156 167.957031 186.4375 167.957031 182.878906 C 167.957031 177.277344 171.300781 174.34375 174.601562 174.34375 C 179.847656 174.34375 183.078125 179.316406 183.078125 182.878906 C 183.078125 188.476562 179.742188 191.410156 176.445312 191.410156 " fill-opacity="1" fill-rule="nonzero"/><path fill="#1f2937" d="M 208.550781 194.605469 C 208.550781 196.425781 209.132812 197.207031 209.351562 197.285156 C 211.195312 197.273438 211.929688 195.007812 211.941406 194.605469 C 211.941406 192.796875 211.34375 192.015625 211.125 191.9375 C 209.292969 191.9375 208.550781 194.214844 208.550781 194.605469 Z M 209.316406 203.136719 C 206.019531 203.136719 202.683594 200.207031 202.683594 194.605469 C 202.683594 191.042969 205.914062 186.074219 211.160156 186.074219 C 214.460938 186.074219 217.804688 189.003906 217.804688 194.605469 C 217.804688 198.167969 214.574219 203.136719 209.316406 203.136719 " fill-opacity="1" fill-rule="nonzero"/><path fill="#1f2937" d="M 159.941406 191.9375 C 159.757812 192.015625 159.160156 192.796875 159.160156 194.605469 C 159.171875 195.007812 159.90625 197.273438 161.785156 197.273438 C 161.96875 197.207031 162.550781 196.425781 162.550781 194.605469 C 162.550781 194.214844 161.808594 191.9375 159.941406 191.9375 Z M 161.785156 203.136719 C 156.527344 203.136719 153.296875 198.167969 153.296875 194.605469 C 153.296875 189.003906 156.640625 186.074219 159.941406 186.074219 C 165.1875 186.074219 168.417969 191.042969 168.417969 194.605469 C 168.417969 200.207031 165.082031 203.136719 161.785156 203.136719 " fill-opacity="1" fill-rule="nonzero"/><path fill="#1f2937" d="M 156.230469 156.222656 C 146.675781 156.222656 135.703125 159.558594 135.703125 185.546875 C 135.703125 208.097656 164.40625 232.847656 185.550781 243.820312 C 206.695312 232.847656 235.398438 208.097656 235.398438 185.546875 C 235.398438 159.558594 224.425781 156.222656 214.871094 156.222656 C 201.585938 156.222656 187.761719 169.886719 187.625 170.027344 C 186.480469 171.171875 184.625 171.171875 183.476562 170.027344 C 183.339844 169.886719 169.480469 156.222656 156.230469 156.222656 Z M 185.550781 250.054688 C 185.105469 250.054688 184.65625 249.949219 184.234375 249.742188 C 161.648438 238.449219 129.839844 211.066406 129.839844 185.546875 C 129.839844 162.203125 138.714844 150.359375 156.230469 150.359375 C 168.726562 150.359375 180.820312 159.785156 185.550781 163.957031 C 190.28125 159.785156 202.375 150.359375 214.871094 150.359375 C 232.386719 150.359375 241.261719 162.203125 241.261719 185.546875 C 241.261719 211.066406 209.453125 238.449219 186.867188 249.742188 C 186.445312 249.949219 185.996094 250.054688 185.550781 250.054688 " fill-opacity="1" fill-rule="nonzero"/></svg>