<svg xmlns="http://www.w3.org/2000/svg" xmlns:xlink="http://www.w3.org/1999/xlink" width="500" zoomAndPan="magnify" viewBox="0 0 375 374.999991" height="500" preserveAspectRatio="xMidYMid meet" version="1.0"><defs><clipPath id="d0fec0a28b"><path d="M 96.375 93.851562 L 274.875 93.851562 L 274.875 277.601562 L 96.375 277.601562 Z M 96.375 93.851562 " clip-rule="nonzero"/></clipPath></defs><rect x="-37.5" width="450" fill="#ffffff" y="-37.499999" height="449.999989" fill-opacity="1"/><rect x="-37.5" width="450" fill="#ffffff" y="-37.499999" height="449.999989" fill-opacity="1"/><g clip-path="url(#d0fec0a28b)"><path fill="#1f2937" d="M 109.726562 191.128906 L 119.929688 191.128906 L 122.136719 177.476562 C 122.105469 177.316406 122.09375 177.152344 122.09375 176.980469 C 122.09375 176.511719 122.214844 176.050781 122.429688 175.660156 L 128.164062 140 C 128.378906 138.644531 129.554688 137.679688 130.886719 137.679688 L 130.886719 137.667969 L 240.207031 137.667969 C 241.667969 137.667969 242.851562 138.785156 242.960938 140.21875 L 248.664062 175.65625 C 248.878906 176.046875 249 176.507812 249 176.976562 C 249 177.148438 248.976562 177.3125 248.957031 177.472656 L 251.15625 191.125 L 261.371094 191.125 L 251.210938 135.960938 C 250.429688 131.703125 246.730469 128.800781 242.382812 128.800781 L 128.714844 128.800781 C 124.367188 128.800781 120.660156 131.703125 119.871094 135.960938 Z M 125.519531 191.128906 L 150.90625 191.128906 L 150.90625 179.746094 L 127.359375 179.746094 Z M 156.441406 191.128906 L 182.769531 191.128906 L 182.769531 179.746094 L 156.441406 179.746094 Z M 188.304688 191.128906 L 214.625 191.128906 L 214.625 179.746094 L 188.304688 179.746094 Z M 220.15625 191.128906 L 245.566406 191.128906 L 243.742188 179.746094 L 220.15625 179.746094 Z M 267.019531 191.367188 C 274.402344 193.015625 277.25 202.234375 271.78125 207.703125 C 270.171875 209.3125 268.007812 210.359375 265.609375 210.523438 L 251.070312 266.015625 C 249.320312 272.644531 243.574219 277.226562 236.742188 277.226562 L 136.007812 277.226562 C 129.175781 277.226562 123.417969 272.644531 121.683594 266.015625 L 107.136719 210.554688 L 106.171875 210.554688 C 97.613281 210.554688 93.179688 200.125 99.316406 193.988281 C 100.59375 192.699219 102.242188 191.769531 104.066406 191.367188 L 114.453125 134.980469 C 115.71875 128.101562 121.726562 123.285156 128.714844 123.285156 L 146.042969 123.285156 L 146.042969 115.339844 C 146.042969 103.5 155.699219 93.839844 167.542969 93.839844 L 203.554688 93.839844 C 215.394531 93.839844 225.054688 103.496094 225.054688 115.339844 L 225.054688 123.285156 L 242.386719 123.285156 C 249.367188 123.285156 255.367188 128.101562 256.636719 134.980469 Z M 264.925781 196.664062 L 106.171875 196.664062 C 102.523438 196.664062 100.5625 201.132812 103.226562 203.789062 C 103.976562 204.550781 105.027344 205.023438 106.171875 205.023438 L 264.925781 205.023438 C 268.566406 205.023438 270.527344 200.550781 267.875 197.894531 C 267.109375 197.132812 266.066406 196.664062 264.925781 196.664062 Z M 162.203125 226.195312 C 167.855469 220.539062 177.570312 224.570312 177.570312 232.570312 C 177.570312 240.570312 167.855469 244.59375 162.203125 238.933594 C 158.683594 235.414062 158.683594 229.714844 162.203125 226.195312 Z M 166.109375 230.121094 C 163.925781 232.292969 165.46875 236.046875 168.566406 236.046875 C 171.660156 236.046875 173.203125 232.292969 171.03125 230.121094 C 169.664062 228.75 167.464844 228.75 166.109375 230.121094 Z M 210.546875 226.195312 C 216.203125 231.851562 212.183594 241.578125 204.183594 241.578125 C 196.171875 241.578125 192.152344 231.855469 197.808594 226.195312 C 201.324219 222.675781 207.023438 222.675781 210.546875 226.195312 Z M 207.652344 232.570312 C 207.652344 229.480469 203.898438 227.929688 201.714844 230.117188 C 199.542969 232.289062 201.089844 236.042969 204.183594 236.042969 C 206.09375 236.042969 207.652344 234.488281 207.652344 232.570312 Z M 186.367188 213.570312 C 194.363281 213.570312 198.394531 223.285156 192.742188 228.941406 C 187.074219 234.609375 177.359375 230.566406 177.359375 222.578125 C 177.359375 217.601562 181.394531 213.570312 186.367188 213.570312 Z M 188.832031 220.113281 C 186.644531 217.9375 182.894531 219.484375 182.894531 222.578125 C 182.894531 225.660156 186.648438 227.21875 188.832031 225.03125 C 190.1875 223.675781 190.1875 221.46875 188.832031 220.113281 Z M 186.320312 242.285156 C 186.144531 242.285156 185.941406 242.285156 185.730469 242.285156 C 182.917969 242.386719 178.804688 245.222656 175.207031 248.90625 C 173.035156 251.121094 171.445312 253.226562 170.054688 255.605469 L 170.066406 255.605469 C 168.914062 257.632812 167.378906 261.148438 168.878906 262.515625 C 170.089844 263.613281 173.214844 264.007812 174.4375 262.675781 C 177.65625 259.15625 181.710938 257.308594 186.382812 257.308594 C 190.875 257.308594 195.265625 259.175781 198.324219 262.675781 C 199.425781 263.925781 201.394531 263.570312 202.839844 263.066406 C 203.722656 262.753906 204.207031 262.28125 204.371094 261.710938 C 205.863281 256.660156 193.636719 242.21875 186.4375 242.285156 Z M 185.539062 236.769531 C 185.820312 236.757812 186.113281 236.757812 186.414062 236.769531 C 196.382812 236.816406 212.484375 253.734375 209.660156 263.265625 C 208.988281 265.539062 207.40625 267.296875 204.652344 268.273438 C 201.09375 269.527344 196.933594 269.460938 194.179688 266.316406 C 190.136719 261.6875 182.625 261.6875 178.582031 266.316406 C 175.175781 270.210938 168.265625 269.628906 164.9375 266.382812 C 161.261719 262.796875 162.796875 257.238281 165.261719 252.878906 L 165.273438 252.878906 C 169.238281 245.871094 178.433594 237.03125 185.539062 236.769531 Z M 156.441406 143.199219 L 156.441406 156.03125 L 182.769531 156.03125 L 182.769531 143.199219 Z M 188.304688 143.199219 L 188.304688 156.03125 L 214.625 156.03125 L 214.625 143.199219 Z M 220.15625 143.199219 L 220.15625 156.03125 L 239.917969 156.03125 L 237.855469 143.199219 Z M 240.816406 161.5625 L 220.15625 161.5625 L 220.15625 174.210938 L 242.84375 174.210938 Z M 128.242188 174.214844 L 150.910156 174.214844 L 150.910156 161.566406 L 130.28125 161.566406 Z M 131.167969 156.03125 L 150.910156 156.03125 L 150.910156 143.199219 L 133.230469 143.199219 Z M 156.441406 161.5625 L 156.441406 174.210938 L 182.769531 174.210938 L 182.769531 161.5625 Z M 214.621094 161.5625 L 188.300781 161.5625 L 188.300781 174.210938 L 214.621094 174.210938 Z M 259.90625 210.554688 L 112.839844 210.554688 L 127.027344 264.632812 C 128.125 268.824219 131.664062 271.695312 136.007812 271.695312 L 236.738281 271.695312 C 241.085938 271.695312 244.625 268.824219 245.722656 264.632812 Z M 208.875 123.28125 L 208.875 115.335938 C 208.875 112.421875 206.46875 110.015625 203.554688 110.015625 L 167.542969 110.015625 C 164.632812 110.015625 162.214844 112.421875 162.214844 115.335938 L 162.214844 123.28125 Z M 151.570312 115.339844 L 151.570312 123.285156 L 156.679688 123.285156 L 156.679688 115.339844 C 156.679688 109.378906 161.578125 104.484375 167.546875 104.484375 L 203.558594 104.484375 C 209.519531 104.484375 214.414062 109.378906 214.414062 115.339844 L 214.414062 123.285156 L 219.527344 123.285156 L 219.527344 115.339844 C 219.527344 106.558594 212.34375 99.378906 203.5625 99.378906 L 167.550781 99.378906 C 158.75 99.375 151.570312 106.554688 151.570312 115.339844 Z M 151.570312 115.339844 " fill-opacity="1" fill-rule="nonzero"/></g></svg>