<svg xmlns="http://www.w3.org/2000/svg" xmlns:xlink="http://www.w3.org/1999/xlink" width="500" zoomAndPan="magnify" viewBox="0 0 375 374.999991" height="500" preserveAspectRatio="xMidYMid meet" version="1.0"><defs><clipPath id="c8d81f6515"><path d="M 5.15625 0 L 369.65625 0 L 369.65625 375 L 5.15625 375 Z M 5.15625 0 " clip-rule="nonzero"/></clipPath></defs><g clip-path="url(#c8d81f6515)"><path fill="#1f2937" d="M 32.457031 198.917969 L 53.324219 198.917969 L 57.835938 170.996094 C 57.769531 170.671875 57.746094 170.335938 57.746094 169.988281 C 57.746094 169.023438 57.996094 168.085938 58.433594 167.289062 L 70.160156 94.363281 C 70.59375 91.59375 73.003906 89.621094 75.726562 89.621094 L 75.726562 89.597656 L 299.273438 89.597656 C 302.253906 89.597656 304.679688 91.882812 304.90625 94.816406 L 316.566406 167.277344 C 317.003906 168.078125 317.253906 169.015625 317.253906 169.976562 C 317.253906 170.324219 317.207031 170.664062 317.164062 170.988281 L 321.660156 198.910156 L 342.550781 198.910156 L 321.773438 86.105469 C 320.171875 77.398438 312.609375 71.46875 303.71875 71.46875 L 71.28125 71.46875 C 62.390625 71.46875 54.8125 77.398438 53.203125 86.105469 Z M 64.753906 198.917969 L 116.664062 198.917969 L 116.664062 175.644531 L 68.511719 175.644531 Z M 127.984375 198.917969 L 181.820312 198.917969 L 181.820312 175.644531 L 127.984375 175.644531 Z M 193.140625 198.917969 L 246.957031 198.917969 L 246.957031 175.644531 L 193.140625 175.644531 Z M 258.273438 198.917969 L 310.230469 198.917969 L 306.496094 175.644531 L 258.273438 175.644531 Z M 354.101562 199.40625 C 369.195312 202.773438 375.015625 221.628906 363.839844 232.808594 C 360.542969 236.105469 356.121094 238.238281 351.214844 238.578125 L 321.480469 352.046875 C 317.910156 365.609375 306.160156 374.976562 292.183594 374.976562 L 86.203125 374.976562 C 72.226562 374.976562 60.453125 365.609375 56.90625 352.046875 L 27.164062 238.640625 L 25.191406 238.640625 C 7.6875 238.640625 -1.382812 217.3125 11.167969 204.761719 C 13.78125 202.128906 17.148438 200.230469 20.882812 199.40625 L 42.121094 84.101562 C 44.710938 70.039062 56.992188 60.1875 71.28125 60.1875 L 106.722656 60.1875 L 106.722656 43.941406 C 106.722656 19.726562 126.464844 -0.0234375 150.6875 -0.0234375 L 224.320312 -0.0234375 C 248.535156 -0.0234375 268.285156 19.71875 268.285156 43.941406 L 268.285156 60.1875 L 303.726562 60.1875 C 318 60.1875 330.273438 70.039062 332.867188 84.101562 Z M 349.816406 210.234375 L 25.191406 210.234375 C 17.722656 210.234375 13.714844 219.375 19.164062 224.804688 C 20.699219 226.367188 22.847656 227.328125 25.191406 227.328125 L 349.816406 227.328125 C 357.261719 227.328125 361.269531 218.1875 355.847656 212.757812 C 354.285156 211.195312 352.152344 210.234375 349.816406 210.234375 Z M 139.761719 270.621094 C 151.324219 259.058594 171.191406 267.300781 171.191406 283.660156 C 171.191406 300.015625 151.324219 308.242188 139.761719 296.671875 C 132.566406 289.476562 132.566406 277.824219 139.761719 270.621094 Z M 147.753906 278.648438 C 143.285156 283.09375 146.445312 290.769531 152.773438 290.769531 C 159.101562 290.769531 162.261719 283.09375 157.816406 278.648438 C 155.019531 275.851562 150.523438 275.851562 147.753906 278.648438 Z M 238.617188 270.621094 C 250.183594 282.1875 241.964844 302.078125 225.605469 302.078125 C 209.222656 302.078125 201.003906 282.195312 212.570312 270.621094 C 219.761719 263.429688 231.417969 263.429688 238.617188 270.621094 Z M 232.703125 283.660156 C 232.703125 277.339844 225.023438 274.171875 220.5625 278.640625 C 216.117188 283.085938 219.277344 290.761719 225.605469 290.761719 C 229.519531 290.761719 232.703125 287.578125 232.703125 283.660156 Z M 189.171875 244.808594 C 205.53125 244.808594 213.773438 264.675781 202.210938 276.238281 C 190.621094 287.828125 170.753906 279.5625 170.753906 263.226562 C 170.753906 253.050781 179.007812 244.808594 189.171875 244.808594 Z M 194.214844 258.183594 C 189.746094 253.738281 182.078125 256.898438 182.078125 263.226562 C 182.078125 269.53125 189.753906 272.714844 194.214844 268.246094 C 196.988281 265.472656 196.988281 260.957031 194.214844 258.183594 Z M 189.085938 303.523438 C 188.71875 303.523438 188.308594 303.523438 187.871094 303.523438 C 182.125 303.734375 173.710938 309.527344 166.359375 317.0625 C 161.914062 321.59375 158.664062 325.902344 155.820312 330.757812 L 155.84375 330.757812 C 153.484375 334.90625 150.347656 342.097656 153.417969 344.894531 C 155.890625 347.140625 162.285156 347.941406 164.78125 345.21875 C 171.359375 338.023438 179.652344 334.242188 189.207031 334.242188 C 198.394531 334.242188 207.375 338.066406 213.628906 345.21875 C 215.875 347.78125 219.910156 347.054688 222.859375 346.019531 C 224.667969 345.378906 225.65625 344.417969 225.992188 343.246094 C 229.039062 332.917969 204.042969 303.386719 189.320312 303.523438 Z M 187.484375 292.25 C 188.058594 292.226562 188.65625 292.226562 189.269531 292.25 C 209.660156 292.339844 242.578125 326.9375 236.808594 346.429688 C 235.433594 351.078125 232.199219 354.675781 226.566406 356.671875 C 219.285156 359.230469 210.785156 359.09375 205.152344 352.660156 C 196.882812 343.199219 181.527344 343.199219 173.257812 352.660156 C 166.292969 360.628906 152.15625 359.441406 145.351562 352.800781 C 137.835938 345.46875 140.980469 334.105469 146.015625 325.191406 L 146.039062 325.191406 C 154.144531 310.855469 172.953125 292.78125 187.484375 292.25 Z M 127.984375 100.910156 L 127.984375 127.144531 L 181.820312 127.144531 L 181.820312 100.910156 Z M 193.140625 100.910156 L 193.140625 127.144531 L 246.957031 127.144531 L 246.957031 100.910156 Z M 258.273438 100.910156 L 258.273438 127.144531 L 298.683594 127.144531 L 294.464844 100.910156 Z M 300.515625 138.460938 L 258.273438 138.460938 L 258.273438 164.320312 L 304.664062 164.320312 Z M 70.320312 164.328125 L 116.671875 164.328125 L 116.671875 138.46875 L 74.492188 138.46875 Z M 76.300781 127.144531 L 116.671875 127.144531 L 116.671875 100.910156 L 80.519531 100.910156 Z M 127.984375 138.460938 L 127.984375 164.320312 L 181.820312 164.320312 L 181.820312 138.460938 Z M 246.949219 138.460938 L 193.132812 138.460938 L 193.132812 164.320312 L 246.949219 164.320312 Z M 339.554688 238.640625 L 38.824219 238.640625 L 67.832031 349.226562 C 70.078125 357.792969 77.320312 363.660156 86.203125 363.660156 L 292.175781 363.660156 C 301.066406 363.660156 308.308594 357.792969 310.546875 349.226562 Z M 235.199219 60.179688 L 235.199219 43.933594 C 235.199219 37.976562 230.277344 33.054688 224.320312 33.054688 L 150.6875 33.054688 C 144.730469 33.054688 139.785156 37.976562 139.785156 43.933594 L 139.785156 60.179688 Z M 118.019531 43.941406 L 118.019531 60.1875 L 128.46875 60.1875 L 128.46875 43.941406 C 128.46875 31.753906 138.484375 21.742188 150.695312 21.742188 L 224.328125 21.742188 C 236.515625 21.742188 246.53125 31.753906 246.53125 43.941406 L 246.53125 60.1875 L 256.980469 60.1875 L 256.980469 43.941406 C 256.980469 25.984375 242.296875 11.296875 224.335938 11.296875 L 150.703125 11.296875 C 132.703125 11.289062 118.019531 25.976562 118.019531 43.941406 Z M 118.019531 43.941406 " fill-opacity="1" fill-rule="nonzero"/></g></svg>