<svg xmlns="http://www.w3.org/2000/svg" xmlns:xlink="http://www.w3.org/1999/xlink" width="500" zoomAndPan="magnify" viewBox="0 0 375 374.999991" height="500" preserveAspectRatio="xMidYMid meet" version="1.0"><defs><clipPath id="1919ddb155"><path d="M 1.640625 0 L 373.640625 0 L 373.640625 375 L 1.640625 375 Z M 1.640625 0 " clip-rule="nonzero"/></clipPath></defs><g clip-path="url(#1919ddb155)"><path fill="#1f2937" d="M 273.339844 42.390625 L 300.394531 42.390625 C 303.511719 42.390625 306.046875 44.910156 306.046875 48.039062 L 306.046875 67.886719 L 325.894531 67.886719 C 329.027344 67.886719 331.546875 70.40625 331.546875 73.539062 L 331.546875 100.59375 C 331.546875 103.703125 329.027344 106.246094 325.894531 106.246094 L 306.046875 106.246094 L 306.046875 126.089844 C 306.046875 129.199219 303.503906 131.742188 300.394531 131.742188 L 273.339844 131.742188 C 270.234375 131.742188 267.6875 129.199219 267.6875 126.089844 L 267.6875 106.246094 L 247.84375 106.246094 C 244.734375 106.246094 242.191406 103.703125 242.191406 100.59375 L 242.191406 73.539062 C 242.191406 70.40625 244.734375 67.886719 247.84375 67.886719 L 267.6875 67.886719 L 267.6875 48.039062 C 267.6875 44.910156 270.222656 42.390625 273.339844 42.390625 Z M 294.738281 53.691406 L 278.992188 53.691406 L 278.992188 73.539062 C 278.992188 76.644531 276.472656 79.191406 273.339844 79.191406 L 253.496094 79.191406 L 253.496094 94.933594 L 273.339844 94.933594 C 276.472656 94.933594 278.992188 97.453125 278.992188 100.585938 L 278.992188 120.429688 L 294.738281 120.429688 L 294.738281 100.585938 C 294.738281 97.453125 297.28125 94.933594 300.386719 94.933594 L 320.234375 94.933594 L 320.234375 79.191406 L 300.386719 79.191406 C 297.28125 79.191406 294.738281 76.644531 294.738281 73.539062 Z M 286.863281 24.425781 C 296.359375 8.816406 307.847656 0.164062 327.304688 0.164062 C 352.730469 0.164062 373.375 20.808594 373.375 46.257812 C 373.375 89.03125 332.132812 130.273438 290.867188 171.539062 C 288.648438 173.757812 285.082031 173.757812 282.882812 171.539062 C 241.617188 130.273438 200.351562 89.03125 200.351562 46.257812 C 200.351562 20.808594 221 0.164062 246.421875 0.164062 C 265.878906 0.164062 277.371094 8.808594 286.863281 24.425781 Z M 306.796875 17.789062 C 301.210938 22.253906 296.617188 29.230469 291.902344 38.636719 C 289.84375 42.777344 283.917969 42.824219 281.835938 38.660156 C 273.339844 21.65625 265.292969 11.464844 246.429688 11.464844 C 227.253906 11.464844 211.664062 27.050781 211.664062 46.257812 C 211.664062 83.058594 248.652344 121.277344 286.871094 159.539062 C 325.09375 121.269531 362.082031 83.058594 362.082031 46.257812 C 362.082031 27.058594 346.515625 11.464844 327.3125 11.464844 C 318.539062 11.464844 312.0625 13.574219 306.796875 17.789062 Z M 194.976562 344.074219 L 150.941406 369.296875 C 142.269531 374.261719 131.304688 372.179688 125.03125 364.632812 L 108.578125 374.039062 C 105.875 375.597656 102.417969 374.660156 100.890625 371.953125 L 92.769531 357.785156 L 65.851562 373.351562 C 63.148438 374.910156 59.691406 373.988281 58.140625 371.292969 C 56.582031 368.597656 57.503906 365.15625 60.199219 363.582031 L 87.160156 348 L 82.332031 339.601562 L 34.363281 339.601562 C 16.351562 339.601562 1.617188 324.882812 1.617188 306.855469 L 1.617188 128.191406 C 1.617188 110.636719 15.601562 96.167969 33.0625 95.457031 L 33.0625 76.460938 L 22.574219 76.460938 C 19.46875 76.460938 16.925781 73.941406 16.925781 70.808594 L 16.925781 33.621094 C 16.925781 22.816406 25.734375 14.035156 36.511719 14.035156 L 157.28125 14.035156 C 168.058594 14.035156 176.867188 22.828125 176.867188 33.621094 L 176.867188 70.808594 C 176.867188 73.941406 174.324219 76.460938 171.214844 76.460938 L 160.734375 76.460938 L 160.734375 95.457031 C 178.199219 96.167969 192.183594 110.628906 192.183594 128.191406 L 192.183594 242.96875 L 242.578125 214.085938 L 238.4375 206.828125 C 236.878906 204.132812 237.816406 200.667969 240.546875 199.117188 L 265.65625 184.746094 C 268.351562 183.1875 271.816406 184.125 273.339844 186.855469 L 288.359375 213.0625 L 303.667969 204.269531 L 296.457031 191.65625 C 294.898438 188.960938 295.835938 185.496094 298.539062 183.949219 L 323.648438 169.574219 C 326.371094 168.019531 329.808594 168.953125 331.359375 171.660156 L 368.410156 236.339844 C 369.945312 239.035156 369.007812 242.5 366.304688 244.050781 L 341.191406 258.421875 C 338.472656 259.980469 335.03125 259.042969 333.484375 256.3125 L 326.25 243.703125 L 310.941406 252.46875 L 325.957031 278.695312 C 327.515625 281.390625 326.578125 284.855469 323.851562 286.378906 L 298.742188 300.777344 C 296.042969 302.308594 292.582031 301.375 291.03125 298.667969 L 286.890625 291.410156 Z M 184.449219 337.074219 L 177.738281 325.382812 C 176.203125 322.664062 177.140625 319.222656 179.847656 317.675781 C 182.550781 316.117188 186.007812 317.050781 187.554688 319.78125 L 194.265625 331.472656 L 210.808594 321.992188 L 197.261719 298.441406 C 195.703125 295.746094 196.640625 292.304688 199.34375 290.757812 C 202.039062 289.222656 205.480469 290.132812 207.03125 292.839844 L 220.578125 316.390625 L 230.96875 310.441406 L 224.261719 298.726562 C 222.703125 296.027344 223.636719 292.566406 226.367188 291.039062 C 229.0625 289.480469 232.527344 290.417969 234.054688 293.121094 L 240.761719 304.835938 L 254.222656 297.125 L 240.8125 273.710938 C 239.277344 271.015625 240.214844 267.550781 242.917969 266 C 245.617188 264.46875 249.078125 265.40625 250.628906 268.109375 L 264.015625 291.523438 L 281.269531 281.632812 L 248.199219 223.890625 L 189.542969 257.484375 C 189.40625 257.574219 189.242188 257.667969 189.082031 257.734375 L 136.464844 287.875 C 136.304688 287.960938 136.167969 288.058594 136.003906 288.148438 L 112.226562 301.769531 C 107.875 304.261719 106.34375 309.914062 108.835938 314.292969 L 132.800781 356.105469 C 135.292969 360.472656 140.945312 362.007812 145.324219 359.511719 L 161.179688 350.40625 L 147.769531 327.015625 C 146.234375 324.292969 147.171875 320.855469 149.875 319.304688 C 152.582031 317.753906 156.035156 318.683594 157.585938 321.414062 L 170.972656 344.800781 Z M 355.796875 237.039062 L 324.351562 182.164062 L 309.042969 190.957031 L 340.492188 245.816406 Z M 320.644531 233.898438 L 309.292969 214.054688 L 293.984375 222.847656 L 305.335938 242.667969 Z M 313.347656 279.394531 L 266.355469 197.351562 L 251.050781 206.117188 L 298.039062 288.164062 Z M 119.15625 354.992188 L 102.902344 326.613281 L 91.625 333.0625 L 107.875 361.441406 Z M 97.550781 316.65625 C 94.230469 307.4375 97.960938 296.933594 106.632812 291.941406 L 112.21875 288.761719 L 12.910156 288.761719 L 12.910156 306.839844 C 12.910156 318.625 22.566406 328.308594 34.355469 328.308594 L 78.9375 328.308594 C 79.425781 327.394531 80.152344 326.613281 81.085938 326.085938 Z M 131.945312 277.457031 L 180.871094 249.425781 L 180.871094 140.589844 L 12.917969 140.589844 L 12.917969 277.449219 L 131.945312 277.449219 Z M 48.136719 178.515625 C 59.578125 167.074219 79.238281 175.21875 79.238281 191.425781 C 79.238281 207.605469 59.578125 215.75 48.136719 204.308594 C 41.015625 197.1875 41.015625 185.636719 48.136719 178.515625 Z M 61.023438 184.488281 C 54.863281 184.488281 51.777344 191.972656 56.121094 196.300781 C 60.472656 200.652344 67.933594 197.585938 67.933594 191.425781 C 67.933594 187.582031 64.84375 184.488281 61.023438 184.488281 Z M 145.652344 178.515625 C 157.09375 189.980469 148.949219 209.636719 132.765625 209.636719 C 116.5625 209.636719 108.417969 189.980469 119.882812 178.515625 C 127.003906 171.402344 138.539062 171.402344 145.652344 178.515625 Z M 139.6875 191.425781 C 139.6875 185.246094 132.226562 182.179688 127.875 186.523438 C 123.523438 190.851562 126.617188 198.335938 132.777344 198.335938 C 136.59375 198.335938 139.6875 195.242188 139.6875 191.425781 Z M 96.886719 153.039062 C 113.066406 153.039062 121.238281 172.699219 109.796875 184.164062 C 98.332031 195.605469 78.671875 187.433594 78.671875 171.253906 C 78.664062 161.210938 86.835938 153.039062 96.886719 153.039062 Z M 101.78125 166.386719 C 97.429688 162.035156 89.96875 165.128906 89.96875 171.261719 C 89.96875 177.425781 97.429688 180.507812 101.78125 176.164062 C 104.484375 173.460938 104.484375 169.082031 101.78125 166.386719 Z M 96.789062 211.058594 C 90.203125 210.921875 82.167969 216.484375 74.449219 224.382812 C 68.886719 230.082031 60.214844 241.273438 60.492188 248.757812 C 60.539062 250.082031 60.878906 250.976562 61.675781 251.6875 C 64.082031 253.882812 70.347656 254.683594 72.777344 252.035156 C 79.277344 244.914062 87.472656 241.183594 96.902344 241.183594 C 105.96875 241.183594 114.84375 244.960938 121.027344 252.035156 C 123.199219 254.527344 127.164062 253.792969 130.046875 252.792969 C 131.78125 252.171875 132.742188 251.234375 133.089844 250.113281 C 136.019531 240.171875 112.019531 211.082031 96.789062 211.058594 Z M 96.128906 199.804688 C 96.425781 199.804688 96.726562 199.804688 96.976562 199.804688 C 117.097656 199.894531 149.59375 233.996094 143.894531 253.292969 C 142.546875 257.894531 139.316406 261.464844 133.753906 263.433594 C 126.542969 265.976562 118.121094 265.839844 112.558594 259.453125 C 104.4375 250.160156 89.355469 250.160156 81.25 259.453125 C 74.363281 267.351562 60.378906 266.179688 53.644531 259.617188 C 36.300781 242.667969 74.433594 199.941406 96.128906 199.804688 Z M 12.917969 129.289062 L 180.878906 129.289062 L 180.878906 128.191406 C 180.878906 116.402344 171.222656 106.746094 159.410156 106.746094 L 155.082031 106.746094 C 151.976562 106.746094 149.433594 104.203125 149.433594 101.09375 L 149.433594 76.46875 L 44.359375 76.46875 L 44.359375 101.09375 C 44.359375 104.203125 41.816406 106.746094 38.707031 106.746094 L 34.355469 106.746094 C 22.566406 106.746094 12.910156 116.402344 12.910156 128.191406 L 12.910156 129.289062 Z M 157.28125 25.335938 L 36.511719 25.335938 C 31.957031 25.335938 28.226562 29.066406 28.226562 33.621094 L 28.226562 65.15625 L 165.570312 65.15625 L 165.570312 33.621094 C 165.570312 29.066406 161.816406 25.335938 157.28125 25.335938 Z M 157.28125 25.335938 " fill-opacity="1" fill-rule="nonzero"/></g></svg>