<svg xmlns="http://www.w3.org/2000/svg" xmlns:xlink="http://www.w3.org/1999/xlink" width="500" zoomAndPan="magnify" viewBox="0 0 375 374.999991" height="500" preserveAspectRatio="xMidYMid meet" version="1.0"><defs><clipPath id="d5904cb89c"><path d="M 94.65625 93.851562 L 276.15625 93.851562 L 276.15625 277.601562 L 94.65625 277.601562 Z M 94.65625 93.851562 " clip-rule="nonzero"/></clipPath></defs><rect x="-37.5" width="450" fill="#ffffff" y="-37.499999" height="449.999989" fill-opacity="1"/><rect x="-37.5" width="450" fill="#ffffff" y="-37.499999" height="449.999989" fill-opacity="1"/><g clip-path="url(#d5904cb89c)"><path fill="#1f2937" d="M 227.53125 114.578125 L 240.765625 114.578125 C 242.289062 114.578125 243.527344 115.808594 243.527344 117.339844 L 243.527344 127.046875 L 253.234375 127.046875 C 254.765625 127.046875 255.996094 128.277344 255.996094 129.8125 L 255.996094 143.042969 C 255.996094 144.5625 254.765625 145.808594 253.234375 145.808594 L 243.527344 145.808594 L 243.527344 155.511719 C 243.527344 157.03125 242.285156 158.277344 240.765625 158.277344 L 227.53125 158.277344 C 226.011719 158.277344 224.769531 157.03125 224.769531 155.511719 L 224.769531 145.808594 L 215.0625 145.808594 C 213.542969 145.808594 212.296875 144.5625 212.296875 143.042969 L 212.296875 129.8125 C 212.296875 128.277344 213.542969 127.046875 215.0625 127.046875 L 224.769531 127.046875 L 224.769531 117.339844 C 224.769531 115.808594 226.007812 114.578125 227.53125 114.578125 Z M 237.996094 120.105469 L 230.296875 120.105469 L 230.296875 129.8125 C 230.296875 131.332031 229.0625 132.574219 227.53125 132.574219 L 217.828125 132.574219 L 217.828125 140.273438 L 227.53125 140.273438 C 229.0625 140.273438 230.296875 141.507812 230.296875 143.039062 L 230.296875 152.746094 L 237.996094 152.746094 L 237.996094 143.039062 C 237.996094 141.507812 239.238281 140.273438 240.761719 140.273438 L 250.464844 140.273438 L 250.464844 132.574219 L 240.761719 132.574219 C 239.238281 132.574219 237.996094 131.332031 237.996094 129.8125 Z M 234.144531 105.792969 C 238.789062 98.160156 244.410156 93.925781 253.925781 93.925781 C 266.359375 93.925781 276.457031 104.023438 276.457031 116.46875 C 276.457031 137.386719 256.285156 157.558594 236.105469 177.738281 C 235.019531 178.824219 233.273438 178.824219 232.199219 177.738281 C 212.019531 157.558594 191.835938 137.386719 191.835938 116.46875 C 191.835938 104.023438 201.933594 93.925781 214.367188 93.925781 C 223.882812 93.925781 229.503906 98.15625 234.144531 105.792969 Z M 243.894531 102.546875 C 241.164062 104.730469 238.914062 108.140625 236.609375 112.742188 C 235.601562 114.765625 232.703125 114.789062 231.6875 112.753906 C 227.53125 104.4375 223.59375 99.453125 214.371094 99.453125 C 204.992188 99.453125 197.367188 107.074219 197.367188 116.46875 C 197.367188 134.464844 215.457031 153.160156 234.148438 171.871094 C 252.84375 153.15625 270.929688 134.464844 270.929688 116.46875 C 270.929688 107.078125 263.316406 99.453125 253.929688 99.453125 C 249.636719 99.453125 246.46875 100.484375 243.894531 102.546875 Z M 189.207031 262.121094 L 167.671875 274.457031 C 163.429688 276.882812 158.070312 275.867188 155 272.171875 L 146.953125 276.773438 C 145.628906 277.535156 143.941406 277.078125 143.195312 275.753906 L 139.222656 268.824219 L 126.058594 276.4375 C 124.734375 277.199219 123.042969 276.75 122.285156 275.429688 C 121.523438 274.113281 121.976562 272.429688 123.292969 271.660156 L 136.476562 264.039062 L 134.117188 259.933594 L 110.65625 259.933594 C 101.847656 259.933594 94.640625 252.734375 94.640625 243.917969 L 94.640625 156.539062 C 94.640625 147.953125 101.480469 140.878906 110.023438 140.53125 L 110.023438 131.242188 L 104.894531 131.242188 C 103.371094 131.242188 102.128906 130.007812 102.128906 128.476562 L 102.128906 110.289062 C 102.128906 105.007812 106.4375 100.710938 111.707031 100.710938 L 170.769531 100.710938 C 176.042969 100.710938 180.351562 105.011719 180.351562 110.289062 L 180.351562 128.476562 C 180.351562 130.007812 179.105469 131.242188 177.585938 131.242188 L 172.460938 131.242188 L 172.460938 140.53125 C 181.003906 140.878906 187.839844 147.949219 187.839844 156.539062 L 187.839844 212.671875 L 212.488281 198.546875 L 210.460938 195 C 209.699219 193.679688 210.160156 191.984375 211.492188 191.226562 L 223.773438 184.199219 C 225.09375 183.4375 226.785156 183.894531 227.53125 185.230469 L 234.875 198.046875 L 242.363281 193.746094 L 238.835938 187.578125 C 238.074219 186.261719 238.53125 184.566406 239.855469 183.808594 L 252.136719 176.78125 C 253.464844 176.015625 255.148438 176.476562 255.90625 177.796875 L 274.027344 209.429688 C 274.777344 210.75 274.320312 212.441406 272.996094 213.203125 L 260.714844 220.230469 C 259.386719 220.992188 257.703125 220.535156 256.945312 219.199219 L 253.40625 213.03125 L 245.921875 217.320312 L 253.265625 230.144531 C 254.027344 231.464844 253.570312 233.15625 252.234375 233.902344 L 239.953125 240.945312 C 238.636719 241.695312 236.941406 241.234375 236.183594 239.914062 L 234.15625 236.363281 Z M 184.058594 258.695312 L 180.777344 252.980469 C 180.027344 251.648438 180.484375 249.964844 181.808594 249.207031 C 183.128906 248.445312 184.820312 248.90625 185.578125 250.238281 L 188.859375 255.957031 L 196.949219 251.320312 L 190.324219 239.804688 C 189.5625 238.484375 190.019531 236.800781 191.34375 236.042969 C 192.664062 235.292969 194.34375 235.738281 195.101562 237.0625 L 201.726562 248.582031 L 206.808594 245.671875 L 203.527344 239.941406 C 202.765625 238.621094 203.226562 236.929688 204.558594 236.183594 C 205.878906 235.421875 207.570312 235.878906 208.316406 237.199219 L 211.601562 242.929688 L 218.183594 239.160156 L 211.625 227.707031 C 210.875 226.390625 211.332031 224.695312 212.652344 223.9375 C 213.972656 223.1875 215.667969 223.644531 216.425781 224.96875 L 222.972656 236.417969 L 231.410156 231.582031 L 215.234375 203.339844 L 186.550781 219.773438 C 186.484375 219.816406 186.402344 219.863281 186.324219 219.894531 L 160.589844 234.632812 C 160.511719 234.675781 160.445312 234.726562 160.367188 234.769531 L 148.738281 241.429688 C 146.609375 242.648438 145.859375 245.414062 147.078125 247.554688 L 158.800781 268.003906 C 160.019531 270.140625 162.785156 270.890625 164.921875 269.671875 L 172.679688 265.214844 L 166.121094 253.777344 C 165.371094 252.445312 165.828125 250.765625 167.148438 250.007812 C 168.472656 249.246094 170.164062 249.703125 170.921875 251.035156 L 177.46875 262.476562 Z M 267.859375 209.773438 L 252.480469 182.933594 L 244.992188 187.234375 L 260.371094 214.066406 Z M 250.667969 208.238281 L 245.117188 198.53125 L 237.628906 202.832031 L 243.179688 212.527344 Z M 247.097656 230.488281 L 224.117188 190.363281 L 216.628906 194.652344 L 239.609375 234.777344 Z M 152.125 267.457031 L 144.175781 253.578125 L 138.660156 256.734375 L 146.609375 270.613281 Z M 141.558594 248.710938 C 139.9375 244.203125 141.761719 239.066406 146 236.625 L 148.734375 235.070312 L 100.167969 235.070312 L 100.167969 243.910156 C 100.167969 249.675781 104.890625 254.410156 110.652344 254.410156 L 132.457031 254.410156 C 132.695312 253.960938 133.050781 253.578125 133.507812 253.324219 Z M 158.378906 229.539062 L 182.308594 215.832031 L 182.308594 162.605469 L 100.171875 162.605469 L 100.171875 229.535156 L 158.378906 229.535156 Z M 117.394531 181.152344 C 122.988281 175.554688 132.605469 179.539062 132.605469 187.464844 C 132.605469 195.378906 122.988281 199.363281 117.394531 193.765625 C 113.910156 190.285156 113.910156 184.632812 117.394531 181.152344 Z M 123.695312 184.074219 C 120.683594 184.074219 119.175781 187.734375 121.300781 189.847656 C 123.425781 191.976562 127.078125 190.476562 127.078125 187.464844 C 127.078125 185.585938 125.5625 184.074219 123.695312 184.074219 Z M 165.085938 181.152344 C 170.679688 186.757812 166.695312 196.371094 158.785156 196.371094 C 150.859375 196.371094 146.875 186.757812 152.480469 181.152344 C 155.964844 177.671875 161.605469 177.671875 165.085938 181.152344 Z M 162.167969 187.464844 C 162.167969 184.445312 158.519531 182.941406 156.390625 185.066406 C 154.261719 187.183594 155.773438 190.84375 158.789062 190.84375 C 160.65625 190.84375 162.167969 189.332031 162.167969 187.464844 Z M 141.234375 168.691406 C 149.148438 168.691406 153.144531 178.308594 147.550781 183.914062 C 141.941406 189.507812 132.328125 185.515625 132.328125 177.601562 C 132.324219 172.6875 136.320312 168.691406 141.234375 168.691406 Z M 143.628906 175.21875 C 141.5 173.089844 137.851562 174.605469 137.851562 177.605469 C 137.851562 180.617188 141.5 182.125 143.628906 180 C 144.953125 178.679688 144.953125 176.539062 143.628906 175.21875 Z M 141.1875 197.066406 C 137.964844 197 134.039062 199.722656 130.261719 203.582031 C 127.542969 206.371094 123.300781 211.84375 123.4375 215.503906 C 123.460938 216.152344 123.625 216.589844 124.015625 216.9375 C 125.191406 218.011719 128.257812 218.402344 129.445312 217.105469 C 132.625 213.625 136.632812 211.800781 141.242188 211.800781 C 145.679688 211.800781 150.015625 213.648438 153.042969 217.105469 C 154.105469 218.328125 156.042969 217.96875 157.453125 217.476562 C 158.300781 217.171875 158.773438 216.714844 158.941406 216.167969 C 160.375 211.304688 148.636719 197.078125 141.1875 197.066406 Z M 140.863281 191.5625 C 141.011719 191.5625 141.15625 191.5625 141.277344 191.5625 C 151.117188 191.605469 167.011719 208.285156 164.222656 217.722656 C 163.566406 219.972656 161.984375 221.71875 159.265625 222.683594 C 155.738281 223.925781 151.621094 223.859375 148.898438 220.734375 C 144.929688 216.191406 137.550781 216.191406 133.585938 220.734375 C 130.21875 224.597656 123.378906 224.023438 120.085938 220.8125 C 111.605469 212.527344 130.253906 191.628906 140.863281 191.5625 Z M 100.171875 157.074219 L 182.3125 157.074219 L 182.3125 156.539062 C 182.3125 150.773438 177.589844 146.050781 171.8125 146.050781 L 169.695312 146.050781 C 168.175781 146.050781 166.933594 144.808594 166.933594 143.289062 L 166.933594 131.246094 L 115.546875 131.246094 L 115.546875 143.289062 C 115.546875 144.808594 114.300781 146.050781 112.78125 146.050781 L 110.652344 146.050781 C 104.890625 146.050781 100.167969 150.773438 100.167969 156.539062 L 100.167969 157.074219 Z M 170.769531 106.238281 L 111.707031 106.238281 C 109.480469 106.238281 107.65625 108.0625 107.65625 110.289062 L 107.65625 125.710938 L 174.828125 125.710938 L 174.828125 110.289062 C 174.828125 108.0625 172.992188 106.238281 170.769531 106.238281 Z M 170.769531 106.238281 " fill-opacity="1" fill-rule="nonzero"/></g></svg>